<?xml version="1.0" encoding="utf-8"?><svg version="1.1" preserveAspectRatio="xMidYMid" xml:space="preserve" width="544.072703pt" height="283.53754000000003pt" viewBox="-1.5338029999999998 59.87276 544.072703 283.53754000000003" xmlns="http://www.w3.org/2000/svg" xmlns:xlink="http://www.w3.org/1999/xlink"><g transform="matrix(1 0 0 -1 0 816)"><g stroke="#000000" fill="none" fill-rule="evenodd" stroke-width="1" stroke-linecap="round" stroke-linejoin="round" stroke-miterlimit="3" letter-spacing="normal" font-weight="normal" font-style="normal" baseline-shift="0"><g transform="matrix(0.75 0 0 0.75 0 816.450012)"><g transform="matrix(0.957955 0 0 -0.958916 0 0)" font-family="ArialUnicode" font-size="10"><path stroke="#B4B4B4" stroke-width="2" d="M9 95V467m0 0H744" /><path stroke="#B4B4B4" stroke-width="2" d="M744 95H9m20 0V467" /><path d="M9 95V467m0 0H744" /><path d="M744 95H9m20 0V467" /><g transform="matrix(-1 0 0 1 12 304)" font-family="ArialUnicode" font-size="10"><text transform="matrix(0 -1 -1 0 0 0)" fill="#000000" font-weight="bold" stroke="none"><tspan dx="0 " x="0" y="9">DeskChar</tspan></text></g><path fill="#DFDFDF" stroke="none" d="M251 119.5C251 114.25 255.25 110 260.5 110C265.75 110 270 114.25 270 119.5C270 124.75 265.75 129 260.5 129C255.25 129 251 124.75 251 119.5" /><path fill="#000000" stroke="none" d="M249 117.5C249 112.25 253.25 108 258.5 108C263.75 108 268 112.25 268 117.5C268 122.75 263.75 127 258.5 127C253.25 127 249 122.75 249 117.5" /><path d="M249 117.5C249 112.25 253.25 108 258.5 108C263.75 108 268 112.25 268 117.5C268 122.75 263.75 127 258.5 127C253.25 127 249 122.75 249 117.5" /><path fill="#DFDFDF" stroke="none" d="M191 194.5C191 172 191 172 221 172h74C325 172 325 172 325 194.5v-2C325 215 325 215 295 215H221C191 215 191 215 191 192.5v2" /><path fill="#F9E791" stroke="none" d="M188 191.5C188 169 188 169 218 169h74C322 169 322 169 322 191.5v-2C322 212 322 212 292 212H218C188 212 188 212 188 189.5v2" /><path d="M188 191.5C188 169 188 169 218 169h74C322 169 322 169 322 191.5v-2C322 212 322 212 292 212H218C188 212 188 212 188 189.5v2m0 0C188 169 188 169 218 169h74C322 169 322 169 322 191.5v-2C322 212 322 212 292 212H218C188 212 188 212 188 189.5v2" /><text transform="matrix(1 0 0 1 201 177)" fill="#000000" font-weight="bold" stroke="none"><tspan dx="0 " x="0" y="9">Vytvoření nové mapy</tspan></text><path fill="#DFDFDF" stroke="none" d="M64 172C64 167 64 167 69 167h79C153 167 153 167 153 172v39C153 216 153 216 148 216H69C64 216 64 216 64 211V172" /><path fill="#00FFFF" stroke="none" d="M61 169C61 164 61 164 66 164h79C150 164 150 164 150 169v39C150 213 150 213 145 213H66C61 213 61 213 61 208V169" /><path d="M61 169C61 164 61 164 66 164h79C150 164 150 164 150 169v39C150 213 150 213 145 213H66C61 213 61 213 61 208V169m0 0C61 164 61 164 66 164h79C150 164 150 164 150 169v39C150 213 150 213 145 213H66C61 213 61 213 61 208V169" /><rect x="61" y="164" width="89" height="49" /><text transform="matrix(1 0 0 1 92 173)" fill="#000000" font-weight="bold" stroke="none"><tspan dx="0 " x="0" y="9">Mapa</tspan></text><path fill="#DFDFDF" stroke="none" d="M368 422.5C368 400 368 400 398 400h74C502 400 502 400 502 422.5v-2C502 443 502 443 472 443H398C368 443 368 443 368 420.5v2" /><path fill="#F9E791" stroke="none" d="M365 419.5C365 397 365 397 395 397h74C499 397 499 397 499 419.5v-2C499 440 499 440 469 440H395C365 440 365 440 365 417.5v2" /><path d="M365 419.5C365 397 365 397 395 397h74C499 397 499 397 499 419.5v-2C499 440 499 440 469 440H395C365 440 365 440 365 417.5v2m0 0C365 397 365 397 395 397h74C499 397 499 397 499 419.5v-2C499 440 499 440 469 440H395C365 440 365 440 365 417.5v2" /><text transform="matrix(1 0 0 1 398 405)" fill="#000000" font-weight="bold" stroke="none"><tspan dx="0 " x="0" y="9">Uložení mapy</tspan></text><path fill="#DFDFDF" stroke="none" d="M709 420.5C709 415.25 713.25 411 718.5 411C723.75 411 728 415.25 728 420.5C728 425.75 723.75 430 718.5 430C713.25 430 709 425.75 709 420.5" /><path fill="#BDE077" stroke="none" d="M707 418.5C707 413.25 711.25 409 716.5 409C721.75 409 726 413.25 726 418.5C726 423.75 721.75 428 716.5 428C711.25 428 707 423.75 707 418.5" /><path d="M707 418.5C707 413.25 711.25 409 716.5 409C721.75 409 726 413.25 726 418.5C726 423.75 721.75 428 716.5 428C711.25 428 707 423.75 707 418.5M707 418.5C707 413.25 711.25 409 716.5 409C721.75 409 726 413.25 726 418.5C726 423.75 721.75 428 716.5 428C711.25 428 707 423.75 707 418.5" /><path fill="#000000" stroke="none" d="M713 418.5C713 416.57 714.57 415 716.5 415C718.43 415 720 416.57 720 418.5C720 420.43 718.43 422 716.5 422C714.57 422 713 420.43 713 418.5" /><path d="M713 418.5C713 416.57 714.57 415 716.5 415C718.43 415 720 416.57 720 418.5C720 420.43 718.43 422 716.5 422C714.57 422 713 420.43 713 418.5" /><path fill="#DFDFDF" stroke="none" d="M188 268.5C188 246 188 246 218 246h74C322 246 322 246 322 268.5v-2C322 289 322 289 292 289H218C188 289 188 289 188 266.5v2" /><path fill="#F9E791" stroke="none" d="M185 265.5C185 243 185 243 215 243h74C319 243 319 243 319 265.5v-2C319 286 319 286 289 286H215C185 286 185 286 185 263.5v2" /><path d="M185 265.5C185 243 185 243 215 243h74C319 243 319 243 319 265.5v-2C319 286 319 286 289 286H215C185 286 185 286 185 263.5v2m0 0C185 243 185 243 215 243h74C319 243 319 243 319 265.5v-2C319 286 319 286 289 286H215C185 286 185 286 185 263.5v2" /><text transform="matrix(1 0 0 1 193 251)" fill="#000000" font-weight="bold" stroke="none"><tspan dx="0 " x="0" y="9">Nastavení podkladové </tspan></text><text transform="matrix(1 0 0 1 239 263)" fill="#000000" font-weight="bold" stroke="none"><tspan dx="0 " x="0" y="9">mapy</tspan></text><path fill="#DFDFDF" stroke="none" d="M185 347.5C185 325 185 325 215 325h74C319 325 319 325 319 347.5v-2C319 368 319 368 289 368H215C185 368 185 368 185 345.5v2" /><path fill="#F9E791" stroke="none" d="M182 344.5C182 322 182 322 212 322h74C316 322 316 322 316 344.5v-2C316 365 316 365 286 365H212C182 365 182 365 182 342.5v2" /><path d="M182 344.5C182 322 182 322 212 322h74C316 322 316 322 316 344.5v-2C316 365 316 365 286 365H212C182 365 182 365 182 342.5v2m0 0C182 322 182 322 212 322h74C316 322 316 322 316 344.5v-2C316 365 316 365 286 365H212C182 365 182 365 182 342.5v2" /><text transform="matrix(1 0 0 1 185 330)" fill="#000000" font-weight="bold" stroke="none"><tspan dx="0 " x="0" y="9">Přiřazení objektů k mapě</tspan></text><path fill="#DFDFDF" stroke="none" d="M482 307C482 302 482 302 487 302h79C571 302 571 302 571 307v39C571 351 571 351 566 351H487C482 351 482 351 482 346V307" /><path fill="#00FFFF" stroke="none" d="M479 304C479 299 479 299 484 299h79C568 299 568 299 568 304v39C568 348 568 348 563 348H484C479 348 479 348 479 343V304" /><path d="M479 304C479 299 479 299 484 299h79C568 299 568 299 568 304v39C568 348 568 348 563 348H484C479 348 479 348 479 343V304m0 0C479 299 479 299 484 299h79C568 299 568 299 568 304v39C568 348 568 348 563 348H484C479 348 479 348 479 343V304" /><rect x="479" y="299" width="89" height="49" /><text transform="matrix(1 0 0 1 510 308)" fill="#000000" font-weight="bold" stroke="none"><tspan dx="0 " x="0" y="9">Mapa</tspan></text><path fill="#DFDFDF" stroke="none" d="M536 422.5C536 400 536 400 566 400h74C670 400 670 400 670 422.5v-2C670 443 670 443 640 443H566C536 443 536 443 536 420.5v2" /><path fill="#F9E791" stroke="none" d="M533 419.5C533 397 533 397 563 397h74C667 397 667 397 667 419.5v-2C667 440 667 440 637 440H563C533 440 533 440 533 417.5v2" /><path d="M533 419.5C533 397 533 397 563 397h74C667 397 667 397 667 419.5v-2C667 440 667 440 637 440H563C533 440 533 440 533 417.5v2m0 0C533 397 533 397 563 397h74C667 397 667 397 667 419.5v-2C667 440 667 440 637 440H563C533 440 533 440 533 417.5v2" /><text transform="matrix(1 0 0 1 548 405)" fill="#000000" font-weight="bold" stroke="none"><tspan dx="0 " x="0" y="9">Vytvoření obrázku z </tspan></text><text transform="matrix(1 0 0 1 587 417)" fill="#000000" font-weight="bold" stroke="none"><tspan dx="0 " x="0" y="9">mapy</tspan></text><path fill="#DFDFDF" stroke="none" d="M185 422.5C185 400 185 400 215 400h74C319 400 319 400 319 422.5v-2C319 443 319 443 289 443H215C185 443 185 443 185 420.5v2" /><path fill="#F9E791" stroke="none" d="M182 419.5C182 397 182 397 212 397h74C316 397 316 397 316 419.5v-2C316 440 316 440 286 440H212C182 440 182 440 182 417.5v2" /><path d="M182 419.5C182 397 182 397 212 397h74C316 397 316 397 316 419.5v-2C316 440 316 440 286 440H212C182 440 182 440 182 417.5v2m0 0C182 397 182 397 212 397h74C316 397 316 397 316 419.5v-2C316 440 316 440 286 440H212C182 440 182 440 182 417.5v2" /><text transform="matrix(1 0 0 1 184 405)" fill="#000000" font-weight="bold" stroke="none"><tspan dx="0 " x="0" y="9">Úprava rozložení objektů </tspan></text><text transform="matrix(1 0 0 1 227 417)" fill="#000000" font-weight="bold" stroke="none"><tspan dx="0 " x="0" y="9">na mapě</tspan></text><path d="M668 419h39m0 0l-14 5m14 -5l-14 -5" /><path d="M500 419h33m0 0l-14 5m14 -5l-14 -5" /><path d="M254 213v30m0 0l-5 -14m5 14l5 -14" /><path d="M188 191H151m0 0l14 -5m-14 5l14 5" /><path d="M259 128v41m0 0l-5 -14m5 14l5 -14" /><path d="M317 419h48m0 0l-14 5m14 -5l-14 -5" /><path d="M479 324H432m0 0v73m0 0l-5 -14m5 14l5 -14" /><path d="M569 324h31m0 0v73m0 0l-5 -14m5 14l5 -14" /><path d="M249 366v31m0 0l-5 -14m5 14l5 -14" /><path d="M251 287v35m0 0l-5 -14m5 14l5 -14" /></g></g></g></g></svg>