<?xml version="1.0" encoding="utf-8"?><svg version="1.1" preserveAspectRatio="xMidYMid" xml:space="preserve" width="561.09933pt" height="520.6121619999999pt" viewBox="41.61987 -1.451562 561.09933 520.6121619999999" xmlns="http://www.w3.org/2000/svg" xmlns:xlink="http://www.w3.org/1999/xlink"><g transform="matrix(1 0 0 -1 0 841)"><g stroke="#000000" fill="none" fill-rule="evenodd" stroke-width="1" stroke-linecap="round" stroke-linejoin="round" stroke-miterlimit="3" letter-spacing="normal" font-weight="normal" font-style="normal" baseline-shift="0"><g transform="matrix(0.75 0 0 0.75 0 841.650024)"><g transform="matrix(0.958838 0 0 -0.959795 0 0)" font-family="ArialUnicode" font-size="10"><path stroke="#B4B4B4" stroke-width="2" d="M69 493V711m0 0H825" /><path stroke="#B4B4B4" stroke-width="2" d="M825 493H69m20 0V711" /><path d="M69 493V711m0 0H825" /><path d="M825 493H69m20 0V711" /><g transform="matrix(-1 0 0 1 72 665)" font-family="ArialUnicode" font-size="10"><text transform="matrix(0 -1 -1 0 0 0)" fill="#000000" font-weight="bold" stroke="none"><tspan dx="0 " x="0" y="9">Uživatel aplikace MobChar</tspan></text></g><path stroke="#B4B4B4" stroke-width="2" d="M69 10V493m0 0H825" /><path stroke="#B4B4B4" stroke-width="2" d="M825 10H69m20 0V493" /><path d="M69 10V493m0 0H825" /><path d="M825 10H69m20 0V493" /><g transform="matrix(-1 0 0 1 72 316)" font-family="ArialUnicode" font-size="10"><text transform="matrix(0 -1 -1 0 0 0)" fill="#000000" font-weight="bold" stroke="none"><tspan dx="0 " x="0" y="9">Uživatel aplikace DeskChar</tspan></text></g><path fill="#DFDFDF" stroke="none" d="M639 25.5C639 20.25 643.25 16 648.5 16C653.75 16 658 20.25 658 25.5C658 30.75 653.75 35 648.5 35C643.25 35 639 30.75 639 25.5" /><path fill="#000000" stroke="none" d="M637 23.5C637 18.25 641.25 14 646.5 14C651.75 14 656 18.25 656 23.5C656 28.75 651.75 33 646.5 33C641.25 33 637 28.75 637 23.5" /><path d="M637 23.5C637 18.25 641.25 14 646.5 14C651.75 14 656 18.25 656 23.5C656 28.75 651.75 33 646.5 33C641.25 33 637 28.75 637 23.5" /><path fill="#DFDFDF" stroke="none" d="M474 163C474 132 474 132 504 132h74C608 132 608 132 608 163v-2C608 192 608 192 578 192H504C474 192 474 192 474 161v2" /><path fill="#F9E791" stroke="none" d="M471 160C471 129 471 129 501 129h74C605 129 605 129 605 160v-2C605 189 605 189 575 189H501C471 189 471 189 471 158v2" /><path d="M471 160C471 129 471 129 501 129h74C605 129 605 129 605 160v-2C605 189 605 189 575 189H501C471 189 471 189 471 158v2m0 0C471 129 471 129 501 129h74C605 129 605 129 605 160v-2C605 189 605 189 575 189H501C471 189 471 189 471 158v2" /><text transform="matrix(1 0 0 1 491 137)" fill="#000000" font-weight="bold" stroke="none"><tspan dx="0 " x="0" y="9">Vytvoření nového </tspan></text><text transform="matrix(1 0 0 1 503 149)" fill="#000000" font-weight="bold" stroke="none"><tspan dx="0 " x="0" y="9">dobrodružství</tspan></text><path fill="#DFDFDF" stroke="none" d="M679 163C679 132 679 132 709 132h74C813 132 813 132 813 163v-2C813 192 813 192 783 192H709C679 192 679 192 679 161v2" /><path fill="#F9E791" stroke="none" d="M676 160C676 129 676 129 706 129h74C810 129 810 129 810 160v-2C810 189 810 189 780 189H706C676 189 676 189 676 158v2" /><path d="M676 160C676 129 676 129 706 129h74C810 129 810 129 810 160v-2C810 189 810 189 780 189H706C676 189 676 189 676 158v2m0 0C676 129 676 129 706 129h74C810 129 810 129 810 160v-2C810 189 810 189 780 189H706C676 189 676 189 676 158v2" /><text transform="matrix(1 0 0 1 690 137)" fill="#000000" font-weight="bold" stroke="none"><tspan dx="0 " x="0" y="9">Import dobrodružství</tspan></text><path fill="#DFDFDF" stroke="none" d="M582 294C582 263 582 263 612 263h74C716 263 716 263 716 294v-2C716 323 716 323 686 323H612C582 323 582 323 582 292v2" /><path fill="#F9E791" stroke="none" d="M579 291C579 260 579 260 609 260h74C713 260 713 260 713 291v-2C713 320 713 320 683 320H609C579 320 579 320 579 289v2" /><path d="M579 291C579 260 579 260 609 260h74C713 260 713 260 713 291v-2C713 320 713 320 683 320H609C579 320 579 320 579 289v2m0 0C579 260 579 260 609 260h74C713 260 713 260 713 291v-2C713 320 713 320 683 320H609C579 320 579 320 579 289v2" /><text transform="matrix(1 0 0 1 595 268)" fill="#000000" font-weight="bold" stroke="none"><tspan dx="0 " x="0" y="9">Vytváření a editace </tspan></text><text transform="matrix(1 0 0 1 627 280)" fill="#000000" font-weight="bold" stroke="none"><tspan dx="0 " x="0" y="9">objektů</tspan></text><path fill="#DFDFDF" stroke="none" d="M219 183C219 152 219 152 249 152h74C353 152 353 152 353 183v-2C353 212 353 212 323 212H249C219 212 219 212 219 181v2" /><path fill="#F9E791" stroke="none" d="M216 180C216 149 216 149 246 149h74C350 149 350 149 350 180v-2C350 209 350 209 320 209H246C216 209 216 209 216 178v2" /><path d="M216 180C216 149 216 149 246 149h74C350 149 350 149 350 180v-2C350 209 350 209 320 209H246C216 209 216 209 216 178v2m0 0C216 149 216 149 246 149h74C350 149 350 149 350 180v-2C350 209 350 209 320 209H246C216 209 216 209 216 178v2" /><text transform="matrix(1 0 0 1 226 157)" fill="#000000" font-weight="bold" stroke="none"><tspan dx="0 " x="0" y="9">Uspořádání objektů v </tspan></text><text transform="matrix(1 0 0 1 248 169)" fill="#000000" font-weight="bold" stroke="none"><tspan dx="0 " x="0" y="9">dobrodružství</tspan></text><path fill="#DFDFDF" stroke="none" d="M301 359l-13 17L275 359l13 -17l13 17" /><path fill="#BDE077" d="M298 358l-13 17L272 358l13 -17l13 17" /><path d="M298 358l-13 17L272 358l13 -17l13 17 Z" /><text transform="matrix(1 0 0 1 216 339)" fill="#000000" stroke="none"><tspan dx="0 " x="0" y="9">Druh exportu</tspan></text><path fill="#DFDFDF" stroke="none" d="M430 368C430 337 430 337 460 337h74C564 337 564 337 564 368v-2C564 397 564 397 534 397H460C430 397 430 397 430 366v2" /><path fill="#F9E791" stroke="none" d="M427 365C427 334 427 334 457 334h74C561 334 561 334 561 365v-2C561 394 561 394 531 394H457C427 394 427 394 427 363v2" /><path d="M427 365C427 334 427 334 457 334h74C561 334 561 334 561 365v-2C561 394 561 394 531 394H457C427 394 427 394 427 363v2m0 0C427 334 427 334 457 334h74C561 334 561 334 561 365v-2C561 394 561 394 531 394H457C427 394 427 394 427 363v2" /><text transform="matrix(1 0 0 1 454 342)" fill="#000000" font-weight="bold" stroke="none"><tspan dx="0 " x="0" y="9">Export do HTML</tspan></text><path fill="#DFDFDF" stroke="none" d="M223 440C223 409 223 409 253 409h74C357 409 357 409 357 440v-2C357 469 357 469 327 469H253C223 469 223 469 223 438v2" /><path fill="#F9E791" stroke="none" d="M220 437C220 406 220 406 250 406h74C354 406 354 406 354 437v-2C354 466 354 466 324 466H250C220 466 220 466 220 435v2" /><path d="M220 437C220 406 220 406 250 406h74C354 406 354 406 354 437v-2C354 466 354 466 324 466H250C220 466 220 466 220 435v2m0 0C220 406 220 406 250 406h74C354 406 354 406 354 437v-2C354 466 354 466 324 466H250C220 466 220 466 220 435v2" /><text transform="matrix(1 0 0 1 233 414)" fill="#000000" font-weight="bold" stroke="none"><tspan dx="0 " x="0" y="9">Uložení XML souboru</tspan></text><path fill="#DFDFDF" stroke="none" d="M219 553C219 522 219 522 249 522h74C353 522 353 522 353 553v-2C353 582 353 582 323 582H249C219 582 219 582 219 551v2" /><path fill="#F9E791" stroke="none" d="M216 550C216 519 216 519 246 519h74C350 519 350 519 350 550v-2C350 579 350 579 320 579H246C216 579 216 579 216 548v2" /><path d="M216 550C216 519 216 519 246 519h74C350 519 350 519 350 550v-2C350 579 350 579 320 579H246C216 579 216 579 216 548v2m0 0C216 519 216 519 246 519h74C350 519 350 519 350 550v-2C350 579 350 579 320 579H246C216 579 216 579 216 548v2" /><text transform="matrix(1 0 0 1 219 527)" fill="#000000" font-weight="bold" stroke="none"><tspan dx="0 " x="0" y="9">Nahrání XML souboru do </tspan></text><text transform="matrix(1 0 0 1 263 539)" fill="#000000" font-weight="bold" stroke="none"><tspan dx="0 " x="0" y="9">zařízení</tspan></text><path fill="#DFDFDF" stroke="none" d="M483 458.5C483 453.25 487.25 449 492.5 449C497.75 449 502 453.25 502 458.5C502 463.75 497.75 468 492.5 468C487.25 468 483 463.75 483 458.5" /><path fill="#BDE077" stroke="none" d="M481 456.5C481 451.25 485.25 447 490.5 447C495.75 447 500 451.25 500 456.5C500 461.75 495.75 466 490.5 466C485.25 466 481 461.75 481 456.5" /><path d="M481 456.5C481 451.25 485.25 447 490.5 447C495.75 447 500 451.25 500 456.5C500 461.75 495.75 466 490.5 466C485.25 466 481 461.75 481 456.5M481 456.5C481 451.25 485.25 447 490.5 447C495.75 447 500 451.25 500 456.5C500 461.75 495.75 466 490.5 466C485.25 466 481 461.75 481 456.5" /><path fill="#000000" stroke="none" d="M487 456.5C487 454.57 488.57 453 490.5 453C492.43 453 494 454.57 494 456.5C494 458.43 492.43 460 490.5 460C488.57 460 487 458.43 487 456.5" /><path d="M487 456.5C487 454.57 488.57 453 490.5 453C492.43 453 494 454.57 494 456.5C494 458.43 492.43 460 490.5 460C488.57 460 487 458.43 487 456.5" /><path fill="#DFDFDF" stroke="none" d="M219 650C219 619 219 619 249 619h74C353 619 353 619 353 650v-2C353 679 353 679 323 679H249C219 679 219 679 219 648v2" /><path fill="#F9E791" stroke="none" d="M216 647C216 616 216 616 246 616h74C350 616 350 616 350 647v-2C350 676 350 676 320 676H246C216 676 216 676 216 645v2" /><path d="M216 647C216 616 216 616 246 616h74C350 616 350 616 350 647v-2C350 676 350 676 320 676H246C216 676 216 676 216 645v2m0 0C216 616 216 616 246 616h74C350 616 350 616 350 647v-2C350 676 350 676 320 676H246C216 676 216 676 216 645v2" /><text transform="matrix(1 0 0 1 222 624)" fill="#000000" font-weight="bold" stroke="none"><tspan dx="0 " x="0" y="9">Import XML souboru do </tspan></text><text transform="matrix(1 0 0 1 261 636)" fill="#000000" font-weight="bold" stroke="none"><tspan dx="0 " x="0" y="9">aplikace</tspan></text><path fill="#DFDFDF" stroke="none" d="M460 657.5C460 652.25 464.25 648 469.5 648C474.75 648 479 652.25 479 657.5C479 662.75 474.75 667 469.5 667C464.25 667 460 662.75 460 657.5" /><path fill="#BDE077" stroke="none" d="M458 655.5C458 650.25 462.25 646 467.5 646C472.75 646 477 650.25 477 655.5C477 660.75 472.75 665 467.5 665C462.25 665 458 660.75 458 655.5" /><path d="M458 655.5C458 650.25 462.25 646 467.5 646C472.75 646 477 650.25 477 655.5C477 660.75 472.75 665 467.5 665C462.25 665 458 660.75 458 655.5M458 655.5C458 650.25 462.25 646 467.5 646C472.75 646 477 650.25 477 655.5C477 660.75 472.75 665 467.5 665C462.25 665 458 660.75 458 655.5" /><path fill="#000000" stroke="none" d="M464 655.5C464 653.57 465.57 652 467.5 652C469.43 652 471 653.57 471 655.5C471 657.43 469.43 659 467.5 659C465.57 659 464 657.43 464 655.5" /><path d="M464 655.5C464 653.57 465.57 652 467.5 652C469.43 652 471 653.57 471 655.5C471 657.43 469.43 659 467.5 659C465.57 659 464 657.43 464 655.5" /><path fill="#DFDFDF" stroke="none" d="M429 38C429 33 429 33 434 33h79C518 33 518 33 518 38V77C518 82 518 82 513 82H434C429 82 429 82 429 77V38" /><path fill="#00FFFF" stroke="none" d="M426 35C426 30 426 30 431 30h79C515 30 515 30 515 35V74C515 79 515 79 510 79H431C426 79 426 79 426 74V35" /><path d="M426 35C426 30 426 30 431 30h79C515 30 515 30 515 35V74C515 79 515 79 510 79H431C426 79 426 79 426 74V35m0 0C426 30 426 30 431 30h79C515 30 515 30 515 35V74C515 79 515 79 510 79H431C426 79 426 79 426 74V35" /><rect x="426" y="30" width="89" height="49" /><text transform="matrix(1 0 0 1 435 39)" fill="#000000" font-weight="bold" stroke="none"><tspan dx="0 " x="0" y="9">Dobrodružství</tspan></text><path fill="#DFDFDF" stroke="none" d="M104 414C104 409 104 409 109 409h79C193 409 193 409 193 414v39C193 458 193 458 188 458H109C104 458 104 458 104 453V414" /><path fill="#99CCFF" stroke="none" d="M101 411C101 406 101 406 106 406h79C190 406 190 406 190 411v39C190 455 190 455 185 455H106C101 455 101 455 101 450V411" /><path d="M101 411C101 406 101 406 106 406h79C190 406 190 406 190 411v39C190 455 190 455 185 455H106C101 455 101 455 101 450V411m0 0C101 406 101 406 106 406h79C190 406 190 406 190 411v39C190 455 190 455 185 455H106C101 455 101 455 101 450V411" /><rect x="101" y="406" width="89" height="49" /><text transform="matrix(1 0 0 1 118 412)" fill="#000000" stroke="none"><tspan dx="0 " x="0" y="9">«datastore»</tspan></text><text transform="matrix(1 0 0 1 115 425)" fill="#000000" font-weight="bold" stroke="none"><tspan dx="0 " x="0" y="9">XML soubor</tspan></text><path fill="#DFDFDF" stroke="none" d="M626 350C626 345 626 345 631 345h79C715 345 715 345 715 350v39C715 394 715 394 710 394H631C626 394 626 394 626 389V350" /><path fill="#99CCFF" stroke="none" d="M623 347C623 342 623 342 628 342h79C712 342 712 342 712 347v39C712 391 712 391 707 391H628C623 391 623 391 623 386V347" /><path d="M623 347C623 342 623 342 628 342h79C712 342 712 342 712 347v39C712 391 712 391 707 391H628C623 391 623 391 623 386V347m0 0C623 342 623 342 628 342h79C712 342 712 342 712 347v39C712 391 712 391 707 391H628C623 391 623 391 623 386V347" /><rect x="623" y="342" width="89" height="49" /><text transform="matrix(1 0 0 1 640 348)" fill="#000000" stroke="none"><tspan dx="0 " x="0" y="9">«datastore»</tspan></text><text transform="matrix(1 0 0 1 634 361)" fill="#000000" font-weight="bold" stroke="none"><tspan dx="0 " x="0" y="9">HTML soubor</tspan></text><path fill="#DFDFDF" stroke="none" d="M663 89l-13 17L637 89L650 72l13 17" /><path fill="#BDE077" d="M660 88l-13 17L634 88L647 71l13 17" /><path d="M660 88l-13 17L634 88L647 71l13 17 Z" /><path fill="#DFDFDF" stroke="none" d="M663 215l-13 17L637 215l13 -17l13 17" /><path fill="#BDE077" d="M660 214l-13 17L634 214l13 -17l13 17" /><path d="M660 214l-13 17L634 214l13 -17l13 17 Z" /><path fill="#DFDFDF" stroke="none" d="M735 38C735 33 735 33 740 33h79C824 33 824 33 824 38V77C824 82 824 82 819 82H740C735 82 735 82 735 77V38" /><path fill="#00FFFF" stroke="none" d="M732 35C732 30 732 30 737 30h79C821 30 821 30 821 35V74C821 79 821 79 816 79H737C732 79 732 79 732 74V35" /><path d="M732 35C732 30 732 30 737 30h79C821 30 821 30 821 35V74C821 79 821 79 816 79H737C732 79 732 79 732 74V35m0 0C732 30 732 30 737 30h79C821 30 821 30 821 35V74C821 79 821 79 816 79H737C732 79 732 79 732 74V35" /><rect x="732" y="30" width="89" height="49" /><text transform="matrix(1 0 0 1 741 39)" fill="#000000" font-weight="bold" stroke="none"><tspan dx="0 " x="0" y="9">Dobrodružství</tspan></text><path fill="#DFDFDF" stroke="none" d="M738 273C738 268 738 268 743 268h79C827 268 827 268 827 273v39C827 317 827 317 822 317H743C738 317 738 317 738 312V273" /><path fill="#99CCFF" stroke="none" d="M735 270C735 265 735 265 740 265h79C824 265 824 265 824 270v39C824 314 824 314 819 314H740C735 314 735 314 735 309V270" /><path d="M735 270C735 265 735 265 740 265h79C824 265 824 265 824 270v39C824 314 824 314 819 314H740C735 314 735 314 735 309V270m0 0C735 265 735 265 740 265h79C824 265 824 265 824 270v39C824 314 824 314 819 314H740C735 314 735 314 735 309V270" /><rect x="735" y="265" width="89" height="49" /><text transform="matrix(1 0 0 1 752 271)" fill="#000000" stroke="none"><tspan dx="0 " x="0" y="9">«datastore»</tspan></text><text transform="matrix(1 0 0 1 749 284)" fill="#000000" font-weight="bold" stroke="none"><tspan dx="0 " x="0" y="9">XML soubor</tspan></text><path d="M298 358h65m0 0v0m0 0h64m0 0l-14 5m14 -5l-14 -5" /><path d="M660 88h83m0 0v41m0 0l-5 -14m5 14l5 -14" /><path d="M647 231v14m0 0v0m0 0v15m0 0l-5 -14m5 14l5 -14" /><path d="M647 34V71m0 0L642 57m5 14l5 -14" /><path d="M538 190v24m0 0h96m0 0l-14 5m14 -5l-14 -5" /><path d="M493 129V80m0 0l5 14M493 80l-5 14" /><path d="M771 129V80m0 0l5 14M771 80l-5 14" /><path d="M743 190v24m0 0H660m0 0l14 -5m-14 5l14 5" /><path d="M634 88H538m0 0v41m0 0l-5 -14m5 14l5 -14" /><path d="M285 210v65m0 0v0m0 0v66m0 0l-5 -14m5 14l5 -14" /><path d="M773 265V190m0 0l5 14m-5 -14l-5 14" /><path d="M285 375v15m0 0v0m0 0v16m0 0l-5 -14m5 14l5 -14" /><path d="M491 395v52m0 0l-5 -14m5 14l5 -14" /><path d="M562 367h61m0 0l-14 5m14 -5l-14 -5" /><path d="M285 467v52m0 0l-5 -14m5 14l5 -14" /><path d="M220 431H191m0 0l14 -5m-14 5l14 5" /><path d="M276 580v36m0 0l-5 -14m5 14l5 -14" /><path d="M351 656H458m0 0l-14 5m14 -5l-14 -5" /><path d="M146 456V646m0 0h70m0 0l-14 5m14 -5l-14 -5" /><path d="M579 287H465m0 0V182m0 0H351m0 0l14 -5m-14 5l14 5" /><g transform="matrix(1 0 0 -1 328 339)"><rect fill="#FFFFFF" stroke="none" x="0" width="74" y="-11" height="11" /></g><text transform="matrix(1 0 0 1 328 339)" fill="#000000" stroke="none"><tspan dx="0 " x="0" y="9">[Export pro tisk]</tspan></text><g transform="matrix(1 0 0 -1 543 95)"><rect fill="#FFFFFF" stroke="none" x="0" width="93" y="-11" height="11" /></g><text transform="matrix(1 0 0 1 543 95)" fill="#000000" stroke="none"><tspan dx="0 " x="0" y="9">[Importovat z XML]</tspan></text><g transform="matrix(1 0 0 -1 665 94)"><rect fill="#FFFFFF" stroke="none" x="0" width="79" y="-11" height="11" /></g><text transform="matrix(1 0 0 1 665 94)" fill="#000000" stroke="none"><tspan dx="0 " x="0" y="9">[Vytvoření nové]</tspan></text><g transform="matrix(1 0 0 -1 184 381)"><rect fill="#FFFFFF" stroke="none" x="0" width="95" y="-11" height="11" /></g><text transform="matrix(1 0 0 1 184 381)" fill="#000000" stroke="none"><tspan dx="0 " x="0" y="9">[Export do souboru]</tspan></text></g></g></g></g></svg>