<?xml version="1.0" encoding="utf-8"?><svg version="1.1" preserveAspectRatio="xMidYMid" xml:space="preserve" width="559.66113pt" height="520.6121619999999pt" viewBox="41.61987 -1.451562 559.66113 520.6121619999999" xmlns="http://www.w3.org/2000/svg" xmlns:xlink="http://www.w3.org/1999/xlink"><g transform="matrix(1 0 0 -1 0 841)"><g stroke="#000000" fill="none" fill-rule="evenodd" stroke-width="1" stroke-linecap="round" stroke-linejoin="round" stroke-miterlimit="3" letter-spacing="normal" font-weight="normal" font-style="normal" baseline-shift="0"><g transform="matrix(0.75 0 0 0.75 0 841.650024)"><g transform="matrix(0.958838 0 0 -0.959795 0 0)" font-family="ArialUnicode" font-size="10"><path stroke="#B4B4B4" stroke-width="2" d="M69 493V711m0 0H825" /><path stroke="#B4B4B4" stroke-width="2" d="M825 493H69m20 0V711" /><path d="M69 493V711m0 0H825" /><path d="M825 493H69m20 0V711" /><g transform="matrix(-1 0 0 1 72 665)" font-family="ArialUnicode" font-size="10"><text transform="matrix(0 -1 -1 0 0 0)" fill="#000000" font-weight="bold" stroke="none"><tspan dx="0 " x="0" y="9">Uživatel aplikace MobChar</tspan></text></g><path stroke="#B4B4B4" stroke-width="2" d="M69 10V493m0 0H825" /><path stroke="#B4B4B4" stroke-width="2" d="M825 10H69m20 0V493" /><path d="M69 10V493m0 0H825" /><path d="M825 10H69m20 0V493" /><g transform="matrix(-1 0 0 1 72 316)" font-family="ArialUnicode" font-size="10"><text transform="matrix(0 -1 -1 0 0 0)" fill="#000000" font-weight="bold" stroke="none"><tspan dx="0 " x="0" y="9">Uživatel aplikace DeskChar</tspan></text></g><path fill="#DFDFDF" stroke="none" d="M625 25.5C625 20.25 629.25 16 634.5 16C639.75 16 644 20.25 644 25.5C644 30.75 639.75 35 634.5 35C629.25 35 625 30.75 625 25.5" /><path fill="#000000" stroke="none" d="M623 23.5C623 18.25 627.25 14 632.5 14C637.75 14 642 18.25 642 23.5C642 28.75 637.75 33 632.5 33C627.25 33 623 28.75 623 23.5" /><path d="M623 23.5C623 18.25 627.25 14 632.5 14C637.75 14 642 18.25 642 23.5C642 28.75 637.75 33 632.5 33C627.25 33 623 28.75 623 23.5" /><path fill="#DFDFDF" stroke="none" d="M468 163C468 132 468 132 498 132h74C602 132 602 132 602 163v-2C602 192 602 192 572 192H498C468 192 468 192 468 161v2" /><path fill="#F9E791" stroke="none" d="M465 160C465 129 465 129 495 129h74C599 129 599 129 599 160v-2C599 189 599 189 569 189H495C465 189 465 189 465 158v2" /><path d="M465 160C465 129 465 129 495 129h74C599 129 599 129 599 160v-2C599 189 599 189 569 189H495C465 189 465 189 465 158v2m0 0C465 129 465 129 495 129h74C599 129 599 129 599 160v-2C599 189 599 189 569 189H495C465 189 465 189 465 158v2" /><text transform="matrix(1 0 0 1 485 137)" fill="#000000" font-weight="bold" stroke="none"><tspan dx="0 " x="0" y="9">Vytvoření nového </tspan></text><text transform="matrix(1 0 0 1 497 149)" fill="#000000" font-weight="bold" stroke="none"><tspan dx="0 " x="0" y="9">dobrodružství</tspan></text><path fill="#DFDFDF" stroke="none" d="M665 163C665 132 665 132 695 132h74C799 132 799 132 799 163v-2C799 192 799 192 769 192H695C665 192 665 192 665 161v2" /><path fill="#F9E791" stroke="none" d="M662 160C662 129 662 129 692 129h74C796 129 796 129 796 160v-2C796 189 796 189 766 189H692C662 189 662 189 662 158v2" /><path d="M662 160C662 129 662 129 692 129h74C796 129 796 129 796 160v-2C796 189 796 189 766 189H692C662 189 662 189 662 158v2m0 0C662 129 662 129 692 129h74C796 129 796 129 796 160v-2C796 189 796 189 766 189H692C662 189 662 189 662 158v2" /><text transform="matrix(1 0 0 1 676 137)" fill="#000000" font-weight="bold" stroke="none"><tspan dx="0 " x="0" y="9">Import dobrodružství</tspan></text><path fill="#DFDFDF" stroke="none" d="M568 294C568 263 568 263 598 263h74C702 263 702 263 702 294v-2C702 323 702 323 672 323H598C568 323 568 323 568 292v2" /><path fill="#F9E791" stroke="none" d="M565 291C565 260 565 260 595 260h74C699 260 699 260 699 291v-2C699 320 699 320 669 320H595C565 320 565 320 565 289v2" /><path d="M565 291C565 260 565 260 595 260h74C699 260 699 260 699 291v-2C699 320 699 320 669 320H595C565 320 565 320 565 289v2m0 0C565 260 565 260 595 260h74C699 260 699 260 699 291v-2C699 320 699 320 669 320H595C565 320 565 320 565 289v2" /><text transform="matrix(1 0 0 1 581 268)" fill="#000000" font-weight="bold" stroke="none"><tspan dx="0 " x="0" y="9">Vytváření a editace </tspan></text><text transform="matrix(1 0 0 1 613 280)" fill="#000000" font-weight="bold" stroke="none"><tspan dx="0 " x="0" y="9">objektů</tspan></text><path fill="#DFDFDF" stroke="none" d="M219 183C219 152 219 152 249 152h74C353 152 353 152 353 183v-2C353 212 353 212 323 212H249C219 212 219 212 219 181v2" /><path fill="#F9E791" stroke="none" d="M216 180C216 149 216 149 246 149h74C350 149 350 149 350 180v-2C350 209 350 209 320 209H246C216 209 216 209 216 178v2" /><path d="M216 180C216 149 216 149 246 149h74C350 149 350 149 350 180v-2C350 209 350 209 320 209H246C216 209 216 209 216 178v2m0 0C216 149 216 149 246 149h74C350 149 350 149 350 180v-2C350 209 350 209 320 209H246C216 209 216 209 216 178v2" /><text transform="matrix(1 0 0 1 226 157)" fill="#000000" font-weight="bold" stroke="none"><tspan dx="0 " x="0" y="9">Uspořádání objektů v </tspan></text><text transform="matrix(1 0 0 1 248 169)" fill="#000000" font-weight="bold" stroke="none"><tspan dx="0 " x="0" y="9">dobrodružství</tspan></text><path fill="#DFDFDF" stroke="none" d="M301 359l-13 17L275 359l13 -17l13 17" /><path fill="#BDE077" d="M298 358l-13 17L272 358l13 -17l13 17" /><path d="M298 358l-13 17L272 358l13 -17l13 17 Z" /><text transform="matrix(1 0 0 1 216 339)" fill="#000000" stroke="none"><tspan dx="0 " x="0" y="9">Druh exportu</tspan></text><path fill="#DFDFDF" stroke="none" d="M430 368C430 337 430 337 460 337h74C564 337 564 337 564 368v-2C564 397 564 397 534 397H460C430 397 430 397 430 366v2" /><path fill="#F9E791" stroke="none" d="M427 365C427 334 427 334 457 334h74C561 334 561 334 561 365v-2C561 394 561 394 531 394H457C427 394 427 394 427 363v2" /><path d="M427 365C427 334 427 334 457 334h74C561 334 561 334 561 365v-2C561 394 561 394 531 394H457C427 394 427 394 427 363v2m0 0C427 334 427 334 457 334h74C561 334 561 334 561 365v-2C561 394 561 394 531 394H457C427 394 427 394 427 363v2" /><text transform="matrix(1 0 0 1 454 342)" fill="#000000" font-weight="bold" stroke="none"><tspan dx="0 " x="0" y="9">Export do HTML</tspan></text><path fill="#DFDFDF" stroke="none" d="M223 440C223 409 223 409 253 409h74C357 409 357 409 357 440v-2C357 469 357 469 327 469H253C223 469 223 469 223 438v2" /><path fill="#F9E791" stroke="none" d="M220 437C220 406 220 406 250 406h74C354 406 354 406 354 437v-2C354 466 354 466 324 466H250C220 466 220 466 220 435v2" /><path d="M220 437C220 406 220 406 250 406h74C354 406 354 406 354 437v-2C354 466 354 466 324 466H250C220 466 220 466 220 435v2m0 0C220 406 220 406 250 406h74C354 406 354 406 354 437v-2C354 466 354 466 324 466H250C220 466 220 466 220 435v2" /><text transform="matrix(1 0 0 1 233 414)" fill="#000000" font-weight="bold" stroke="none"><tspan dx="0 " x="0" y="9">Uložení XML souboru</tspan></text><path fill="#DFDFDF" stroke="none" d="M219 553C219 522 219 522 249 522h74C353 522 353 522 353 553v-2C353 582 353 582 323 582H249C219 582 219 582 219 551v2" /><path fill="#F9E791" stroke="none" d="M216 550C216 519 216 519 246 519h74C350 519 350 519 350 550v-2C350 579 350 579 320 579H246C216 579 216 579 216 548v2" /><path d="M216 550C216 519 216 519 246 519h74C350 519 350 519 350 550v-2C350 579 350 579 320 579H246C216 579 216 579 216 548v2m0 0C216 519 216 519 246 519h74C350 519 350 519 350 550v-2C350 579 350 579 320 579H246C216 579 216 579 216 548v2" /><text transform="matrix(1 0 0 1 222 527)" fill="#000000" font-weight="bold" stroke="none"><tspan dx="0 " x="0" y="9">Nahrání XML soubor do </tspan></text><text transform="matrix(1 0 0 1 263 539)" fill="#000000" font-weight="bold" stroke="none"><tspan dx="0 " x="0" y="9">zařízení</tspan></text><path fill="#DFDFDF" stroke="none" d="M483 458.5C483 453.25 487.25 449 492.5 449C497.75 449 502 453.25 502 458.5C502 463.75 497.75 468 492.5 468C487.25 468 483 463.75 483 458.5" /><path fill="#BDE077" stroke="none" d="M481 456.5C481 451.25 485.25 447 490.5 447C495.75 447 500 451.25 500 456.5C500 461.75 495.75 466 490.5 466C485.25 466 481 461.75 481 456.5" /><path d="M481 456.5C481 451.25 485.25 447 490.5 447C495.75 447 500 451.25 500 456.5C500 461.75 495.75 466 490.5 466C485.25 466 481 461.75 481 456.5M481 456.5C481 451.25 485.25 447 490.5 447C495.75 447 500 451.25 500 456.5C500 461.75 495.75 466 490.5 466C485.25 466 481 461.75 481 456.5" /><path fill="#000000" stroke="none" d="M487 456.5C487 454.57 488.57 453 490.5 453C492.43 453 494 454.57 494 456.5C494 458.43 492.43 460 490.5 460C488.57 460 487 458.43 487 456.5" /><path d="M487 456.5C487 454.57 488.57 453 490.5 453C492.43 453 494 454.57 494 456.5C494 458.43 492.43 460 490.5 460C488.57 460 487 458.43 487 456.5" /><path fill="#DFDFDF" stroke="none" d="M219 650C219 619 219 619 249 619h74C353 619 353 619 353 650v-2C353 679 353 679 323 679H249C219 679 219 679 219 648v2" /><path fill="#F9E791" stroke="none" d="M216 647C216 616 216 616 246 616h74C350 616 350 616 350 647v-2C350 676 350 676 320 676H246C216 676 216 676 216 645v2" /><path d="M216 647C216 616 216 616 246 616h74C350 616 350 616 350 647v-2C350 676 350 676 320 676H246C216 676 216 676 216 645v2m0 0C216 616 216 616 246 616h74C350 616 350 616 350 647v-2C350 676 350 676 320 676H246C216 676 216 676 216 645v2" /><text transform="matrix(1 0 0 1 222 624)" fill="#000000" font-weight="bold" stroke="none"><tspan dx="0 " x="0" y="9">Import XML souboru na </tspan></text><text transform="matrix(1 0 0 1 261 636)" fill="#000000" font-weight="bold" stroke="none"><tspan dx="0 " x="0" y="9">aplikace</tspan></text><path fill="#DFDFDF" stroke="none" d="M460 657.5C460 652.25 464.25 648 469.5 648C474.75 648 479 652.25 479 657.5C479 662.75 474.75 667 469.5 667C464.25 667 460 662.75 460 657.5" /><path fill="#BDE077" stroke="none" d="M458 655.5C458 650.25 462.25 646 467.5 646C472.75 646 477 650.25 477 655.5C477 660.75 472.75 665 467.5 665C462.25 665 458 660.75 458 655.5" /><path d="M458 655.5C458 650.25 462.25 646 467.5 646C472.75 646 477 650.25 477 655.5C477 660.75 472.75 665 467.5 665C462.25 665 458 660.75 458 655.5M458 655.5C458 650.25 462.25 646 467.5 646C472.75 646 477 650.25 477 655.5C477 660.75 472.75 665 467.5 665C462.25 665 458 660.75 458 655.5" /><path fill="#000000" stroke="none" d="M464 655.5C464 653.57 465.57 652 467.5 652C469.43 652 471 653.57 471 655.5C471 657.43 469.43 659 467.5 659C465.57 659 464 657.43 464 655.5" /><path d="M464 655.5C464 653.57 465.57 652 467.5 652C469.43 652 471 653.57 471 655.5C471 657.43 469.43 659 467.5 659C465.57 659 464 657.43 464 655.5" /><path fill="#DFDFDF" stroke="none" d="M415 38C415 33 415 33 420 33h79C504 33 504 33 504 38V77C504 82 504 82 499 82H420C415 82 415 82 415 77V38" /><path fill="#00FFFF" stroke="none" d="M412 35C412 30 412 30 417 30h79C501 30 501 30 501 35V74C501 79 501 79 496 79H417C412 79 412 79 412 74V35" /><path d="M412 35C412 30 412 30 417 30h79C501 30 501 30 501 35V74C501 79 501 79 496 79H417C412 79 412 79 412 74V35m0 0C412 30 412 30 417 30h79C501 30 501 30 501 35V74C501 79 501 79 496 79H417C412 79 412 79 412 74V35" /><rect x="412" y="30" width="89" height="49" /><text transform="matrix(1 0 0 1 421 39)" fill="#000000" font-weight="bold" stroke="none"><tspan dx="0 " x="0" y="9">Dobrodružství</tspan></text><path fill="#DFDFDF" stroke="none" d="M104 414C104 409 104 409 109 409h79C193 409 193 409 193 414v39C193 458 193 458 188 458H109C104 458 104 458 104 453V414" /><path fill="#99CCFF" stroke="none" d="M101 411C101 406 101 406 106 406h79C190 406 190 406 190 411v39C190 455 190 455 185 455H106C101 455 101 455 101 450V411" /><path d="M101 411C101 406 101 406 106 406h79C190 406 190 406 190 411v39C190 455 190 455 185 455H106C101 455 101 455 101 450V411m0 0C101 406 101 406 106 406h79C190 406 190 406 190 411v39C190 455 190 455 185 455H106C101 455 101 455 101 450V411" /><rect x="101" y="406" width="89" height="49" /><text transform="matrix(1 0 0 1 118 412)" fill="#000000" stroke="none"><tspan dx="0 " x="0" y="9">«datastore»</tspan></text><text transform="matrix(1 0 0 1 115 425)" fill="#000000" font-weight="bold" stroke="none"><tspan dx="0 " x="0" y="9">XML soubor</tspan></text><path fill="#DFDFDF" stroke="none" d="M626 350C626 345 626 345 631 345h79C715 345 715 345 715 350v39C715 394 715 394 710 394H631C626 394 626 394 626 389V350" /><path fill="#99CCFF" stroke="none" d="M623 347C623 342 623 342 628 342h79C712 342 712 342 712 347v39C712 391 712 391 707 391H628C623 391 623 391 623 386V347" /><path d="M623 347C623 342 623 342 628 342h79C712 342 712 342 712 347v39C712 391 712 391 707 391H628C623 391 623 391 623 386V347m0 0C623 342 623 342 628 342h79C712 342 712 342 712 347v39C712 391 712 391 707 391H628C623 391 623 391 623 386V347" /><rect x="623" y="342" width="89" height="49" /><text transform="matrix(1 0 0 1 640 348)" fill="#000000" stroke="none"><tspan dx="0 " x="0" y="9">«datastore»</tspan></text><text transform="matrix(1 0 0 1 636 361)" fill="#000000" font-weight="bold" stroke="none"><tspan dx="0 " x="0" y="9">HTMLsoubor</tspan></text><path fill="#DFDFDF" stroke="none" d="M649 89l-13 17L623 89L636 72l13 17" /><path fill="#BDE077" d="M646 88l-13 17L620 88L633 71l13 17" /><path d="M646 88l-13 17L620 88L633 71l13 17 Z" /><text transform="matrix(1 0 0 1 568 69)" fill="#000000" stroke="none"><tspan dx="0 " x="0" y="9">[Importovat]</tspan></text><path fill="#DFDFDF" stroke="none" d="M649 215l-13 17L623 215l13 -17l13 17" /><path fill="#BDE077" d="M646 214l-13 17L620 214l13 -17l13 17" /><path d="M646 214l-13 17L620 214l13 -17l13 17 Z" /><path fill="#DFDFDF" stroke="none" d="M721 38C721 33 721 33 726 33h79C810 33 810 33 810 38V77C810 82 810 82 805 82H726C721 82 721 82 721 77V38" /><path fill="#00FFFF" stroke="none" d="M718 35C718 30 718 30 723 30h79C807 30 807 30 807 35V74C807 79 807 79 802 79H723C718 79 718 79 718 74V35" /><path d="M718 35C718 30 718 30 723 30h79C807 30 807 30 807 35V74C807 79 807 79 802 79H723C718 79 718 79 718 74V35m0 0C718 30 718 30 723 30h79C807 30 807 30 807 35V74C807 79 807 79 802 79H723C718 79 718 79 718 74V35" /><rect x="718" y="30" width="89" height="49" /><text transform="matrix(1 0 0 1 727 39)" fill="#000000" font-weight="bold" stroke="none"><tspan dx="0 " x="0" y="9">Dobrodružství</tspan></text><path fill="#DFDFDF" stroke="none" d="M724 273C724 268 724 268 729 268h79C813 268 813 268 813 273v39C813 317 813 317 808 317H729C724 317 724 317 724 312V273" /><path fill="#99CCFF" stroke="none" d="M721 270C721 265 721 265 726 265h79C810 265 810 265 810 270v39C810 314 810 314 805 314H726C721 314 721 314 721 309V270" /><path d="M721 270C721 265 721 265 726 265h79C810 265 810 265 810 270v39C810 314 810 314 805 314H726C721 314 721 314 721 309V270m0 0C721 265 721 265 726 265h79C810 265 810 265 810 270v39C810 314 810 314 805 314H726C721 314 721 314 721 309V270" /><rect x="721" y="265" width="89" height="49" /><text transform="matrix(1 0 0 1 738 271)" fill="#000000" stroke="none"><tspan dx="0 " x="0" y="9">«datastore»</tspan></text><text transform="matrix(1 0 0 1 735 284)" fill="#000000" font-weight="bold" stroke="none"><tspan dx="0 " x="0" y="9">XML soubor</tspan></text><path d="M298 358h65m0 0v0m0 0h64m0 0l-14 5m14 -5l-14 -5" /><path d="M646 88h83m0 0v41m0 0l-5 -14m5 14l5 -14" /><path d="M633 231v14m0 0v0m0 0v15m0 0l-5 -14m5 14l5 -14" /><path d="M633 34V71m0 0L628 57m5 14l5 -14" /><path d="M532 190v24m0 0h88m0 0l-14 5m14 -5l-14 -5" /><path d="M483 129V80m0 0l5 14M483 80l-5 14" /><path d="M757 129V80m0 0l5 14M757 80l-5 14" /><path d="M729 190v24m0 0H646m0 0l14 -5m-14 5l14 5" /><path d="M620 88H532m0 0v41m0 0l-5 -14m5 14l5 -14" /><path d="M285 210v65m0 0v0m0 0v66m0 0l-5 -14m5 14l5 -14" /><path d="M759 265V190m0 0l5 14m-5 -14l-5 14" /><path d="M285 375v15m0 0v0m0 0v16m0 0l-5 -14m5 14l5 -14" /><path d="M491 395v52m0 0l-5 -14m5 14l5 -14" /><path d="M562 367h61m0 0l-14 5m14 -5l-14 -5" /><path d="M285 467v52m0 0l-5 -14m5 14l5 -14" /><path d="M220 431H191m0 0l14 -5m-14 5l14 5" /><path d="M276 580v36m0 0l-5 -14m5 14l5 -14" /><path d="M351 656H458m0 0l-14 5m14 -5l-14 -5" /><path d="M146 456V646m0 0h70m0 0l-14 5m14 -5l-14 -5" /><path d="M565 285H458m0 0V180m0 0H351m0 0l14 -5m-14 5l14 5" /><g transform="matrix(1 0 0 -1 186 388)"><rect fill="#FFFFFF" stroke="none" x="0" width="95" y="-11" height="11" /></g><text transform="matrix(1 0 0 1 186 388)" fill="#000000" stroke="none"><tspan dx="0 " x="0" y="9">[Export do souboru]</tspan></text><g transform="matrix(1 0 0 -1 353 340)"><rect fill="#FFFFFF" stroke="none" x="0" width="74" y="-11" height="11" /></g><text transform="matrix(1 0 0 1 353 340)" fill="#000000" stroke="none"><tspan dx="0 " x="0" y="9">[Export pro tisk]</tspan></text></g></g></g></g></svg>