<?xml version="1.0" encoding="utf-8"?><svg version="1.1" preserveAspectRatio="xMidYMid" xml:space="preserve" width="503.0103pt" height="347.78756000000004pt" viewBox="8.521 12.22164 503.0103 347.78756000000004" xmlns="http://www.w3.org/2000/svg" xmlns:xlink="http://www.w3.org/1999/xlink"><g transform="matrix(1 0 0 -1 0 841)"><g stroke="#000000" fill="none" fill-rule="evenodd" stroke-width="1" stroke-linecap="round" stroke-linejoin="round" stroke-miterlimit="3" letter-spacing="normal" font-weight="normal" font-style="normal" baseline-shift="0"><g transform="matrix(0.75 0 0 0.75 0 841.650024)"><g transform="matrix(0.957739 0 0 -0.959617 0 0)" font-family="ArialUnicode" font-size="10"><path stroke="#B4B4B4" stroke-width="2" d="M393 29V490" /><path stroke="#B4B4B4" stroke-width="2" d="M701 490V29m0 0H393m0 20H701" /><path d="M393 29V490" /><path d="M701 490V29m0 0H393m0 20H701" /><text transform="matrix(1 0 0 1 478 32)" fill="#000000" font-weight="bold" stroke="none"><tspan dx="0 " x="0" y="9">uživatel aplikace MobChar</tspan></text><path stroke="#B4B4B4" stroke-width="2" d="M23 29V490" /><path stroke="#B4B4B4" stroke-width="2" d="M393 490V29m0 0H23m0 20H393" /><path d="M23 29V490" /><path d="M393 490V29m0 0H23m0 20H393" /><text transform="matrix(1 0 0 1 137 32)" fill="#000000" font-weight="bold" stroke="none"><tspan dx="0 " x="0" y="9">uživatel aplikace DeskChar</tspan></text><path fill="#DFDFDF" stroke="none" d="M235 172.5C235 152 235 152 265 152h74C369 152 369 152 369 172.5v-2C369 191 369 191 339 191H265C235 191 235 191 235 170.5v2" /><path fill="#F9E791" stroke="none" d="M232 169.5C232 149 232 149 262 149h74C366 149 366 149 366 169.5v-2C366 188 366 188 336 188H262C232 188 232 188 232 167.5v2" /><path d="M232 169.5C232 149 232 149 262 149h74C366 149 366 149 366 169.5v-2C366 188 366 188 336 188H262C232 188 232 188 232 167.5v2m0 0C232 149 232 149 262 149h74C366 149 366 149 366 169.5v-2C366 188 366 188 336 188H262C232 188 232 188 232 167.5v2" /><text transform="matrix(1 0 0 1 256 157)" fill="#000000" font-weight="bold" stroke="none"><tspan dx="0 " x="0" y="9">Vytvoření šablon</tspan></text><path fill="#DFDFDF" stroke="none" d="M153 311.5C153 291 153 291 183 291h74C287 291 287 291 287 311.5v-2C287 330 287 330 257 330H183C153 330 153 330 153 309.5v2" /><path fill="#F9E791" stroke="none" d="M150 308.5C150 288 150 288 180 288h74C284 288 284 288 284 308.5v-2C284 327 284 327 254 327H180C150 327 150 327 150 306.5v2" /><path d="M150 308.5C150 288 150 288 180 288h74C284 288 284 288 284 308.5v-2C284 327 284 327 254 327H180C150 327 150 327 150 306.5v2m0 0C150 288 150 288 180 288h74C284 288 284 288 284 308.5v-2C284 327 284 327 254 327H180C150 327 150 327 150 306.5v2" /><text transform="matrix(1 0 0 1 173 296)" fill="#000000" font-weight="bold" stroke="none"><tspan dx="0 " x="0" y="9">Editace šablon a </tspan></text><text transform="matrix(1 0 0 1 169 308)" fill="#000000" font-weight="bold" stroke="none"><tspan dx="0 " x="0" y="9">vytváření překladů</tspan></text><path fill="#DFDFDF" stroke="none" d="M153 381.5C153 361 153 361 183 361h74C287 361 287 361 287 381.5v-2C287 400 287 400 257 400H183C153 400 153 400 153 379.5v2" /><path fill="#F9E791" stroke="none" d="M150 378.5C150 358 150 358 180 358h74C284 358 284 358 284 378.5v-2C284 397 284 397 254 397H180C150 397 150 397 150 376.5v2" /><path d="M150 378.5C150 358 150 358 180 358h74C284 358 284 358 284 378.5v-2C284 397 284 397 254 397H180C150 397 150 397 150 376.5v2m0 0C150 358 150 358 180 358h74C284 358 284 358 284 378.5v-2C284 397 284 397 254 397H180C150 397 150 397 150 376.5v2" /><text transform="matrix(1 0 0 1 162 366)" fill="#000000" font-weight="bold" stroke="none"><tspan dx="0 " x="0" y="9">Eport šablon do XML </tspan></text><text transform="matrix(1 0 0 1 196 378)" fill="#000000" font-weight="bold" stroke="none"><tspan dx="0 " x="0" y="9">souboru</tspan></text><path fill="#DFDFDF" stroke="none" d="M438 383.5C438 363 438 363 468 363h74C572 363 572 363 572 383.5v-2C572 402 572 402 542 402H468C438 402 438 402 438 381.5v2" /><path fill="#F9E791" stroke="none" d="M435 380.5C435 360 435 360 465 360h74C569 360 569 360 569 380.5v-2C569 399 569 399 539 399H465C435 399 435 399 435 378.5v2" /><path d="M435 380.5C435 360 435 360 465 360h74C569 360 569 360 569 380.5v-2C569 399 569 399 539 399H465C435 399 435 399 435 378.5v2m0 0C435 360 435 360 465 360h74C569 360 569 360 569 380.5v-2C569 399 569 399 539 399H465C435 399 435 399 435 378.5v2" /><text transform="matrix(1 0 0 1 442 368)" fill="#000000" font-weight="bold" stroke="none"><tspan dx="0 " x="0" y="9">Nahrádní XML souboru </tspan></text><text transform="matrix(1 0 0 1 475 380)" fill="#000000" font-weight="bold" stroke="none"><tspan dx="0 " x="0" y="9">do zařízení</tspan></text><path fill="#DFDFDF" stroke="none" d="M488 171.5C488 151 488 151 518 151h74C622 151 622 151 622 171.5v-2C622 190 622 190 592 190H518C488 190 488 190 488 169.5v2" /><path fill="#F9E791" stroke="none" d="M485 168.5C485 148 485 148 515 148h74C619 148 619 148 619 168.5v-2C619 187 619 187 589 187H515C485 187 485 187 485 166.5v2" /><path d="M485 168.5C485 148 485 148 515 148h74C619 148 619 148 619 168.5v-2C619 187 619 187 589 187H515C485 187 485 187 485 166.5v2m0 0C485 148 485 148 515 148h74C619 148 619 148 619 168.5v-2C619 187 619 187 589 187H515C485 187 485 187 485 166.5v2" /><text transform="matrix(1 0 0 1 508 156)" fill="#000000" font-weight="bold" stroke="none"><tspan dx="0 " x="0" y="9">Import šablon do </tspan></text><text transform="matrix(1 0 0 1 530 168)" fill="#000000" font-weight="bold" stroke="none"><tspan dx="0 " x="0" y="9">aplikace</tspan></text><path fill="#DFDFDF" stroke="none" d="M662 169.5C662 164.25 666.25 160 671.5 160C676.75 160 681 164.25 681 169.5C681 174.75 676.75 179 671.5 179C666.25 179 662 174.75 662 169.5" /><path fill="#BDE077" stroke="none" d="M660 167.5C660 162.25 664.25 158 669.5 158C674.75 158 679 162.25 679 167.5C679 172.75 674.75 177 669.5 177C664.25 177 660 172.75 660 167.5" /><path d="M660 167.5C660 162.25 664.25 158 669.5 158C674.75 158 679 162.25 679 167.5C679 172.75 674.75 177 669.5 177C664.25 177 660 172.75 660 167.5M660 167.5C660 162.25 664.25 158 669.5 158C674.75 158 679 162.25 679 167.5C679 172.75 674.75 177 669.5 177C664.25 177 660 172.75 660 167.5" /><path fill="#000000" stroke="none" d="M666 167.5C666 165.57 667.57 164 669.5 164C671.43 164 673 165.57 673 167.5C673 169.43 671.43 171 669.5 171C667.57 171 666 169.43 666 167.5" /><path d="M666 167.5C666 165.57 667.57 164 669.5 164C671.43 164 673 165.57 673 167.5C673 169.43 671.43 171 669.5 171C667.57 171 666 169.43 666 167.5" /><path fill="#DFDFDF" stroke="none" d="M73 175.5C73 155 73 155 103 155h74C207 155 207 155 207 175.5v-2C207 194 207 194 177 194H103C73 194 73 194 73 173.5v2" /><path fill="#F9E791" stroke="none" d="M70 172.5C70 152 70 152 100 152h74C204 152 204 152 204 172.5v-2C204 191 204 191 174 191H100C70 191 70 191 70 170.5v2" /><path d="M70 172.5C70 152 70 152 100 152h74C204 152 204 152 204 172.5v-2C204 191 204 191 174 191H100C70 191 70 191 70 170.5v2m0 0C70 152 70 152 100 152h74C204 152 204 152 204 172.5v-2C204 191 204 191 174 191H100C70 191 70 191 70 170.5v2" /><text transform="matrix(1 0 0 1 89 160)" fill="#000000" font-weight="bold" stroke="none"><tspan dx="0 " x="0" y="9">Import XML šablon</tspan></text><path fill="#DFDFDF" stroke="none" d="M211 68.5C211 63.25 215.25 59 220.5 59C225.75 59 230 63.25 230 68.5C230 73.75 225.75 78 220.5 78C215.25 78 211 73.75 211 68.5" /><path fill="#000000" stroke="none" d="M209 66.5C209 61.25 213.25 57 218.5 57C223.75 57 228 61.25 228 66.5C228 71.75 223.75 76 218.5 76C213.25 76 209 71.75 209 66.5" /><path d="M209 66.5C209 61.25 213.25 57 218.5 57C223.75 57 228 61.25 228 66.5C228 71.75 223.75 76 218.5 76C213.25 76 209 71.75 209 66.5" /><path fill="#DFDFDF" stroke="none" d="M84 434C84 429 84 429 89 429h79C173 429 173 429 173 434v39C173 478 173 478 168 478H89C84 478 84 478 84 473V434" /><path fill="#99CCFF" stroke="none" d="M81 431C81 426 81 426 86 426h79C170 426 170 426 170 431v39C170 475 170 475 165 475H86C81 475 81 475 81 470V431" /><path d="M81 431C81 426 81 426 86 426h79C170 426 170 426 170 431v39C170 475 170 475 165 475H86C81 475 81 475 81 470V431m0 0C81 426 81 426 86 426h79C170 426 170 426 170 431v39C170 475 170 475 165 475H86C81 475 81 475 81 470V431" /><rect x="81" y="426" width="89" height="49" /><text transform="matrix(1 0 0 1 98 432)" fill="#000000" stroke="none"><tspan dx="0 " x="0" y="9">«datastore»</tspan></text><text transform="matrix(1 0 0 1 95 445)" fill="#000000" font-weight="bold" stroke="none"><tspan dx="0 " x="0" y="9">XML soubor</tspan></text><path fill="#DFDFDF" stroke="none" d="M235 120l-13 17L209 120l13 -17l13 17" /><path fill="#BDE077" d="M232 119l-13 17L206 119l13 -17l13 17" /><path d="M232 119l-13 17L206 119l13 -17l13 17 Z" /><path fill="#DFDFDF" stroke="none" d="M235 244l-13 17L209 244l13 -17l13 17" /><path fill="#BDE077" d="M232 243l-13 17L206 243l13 -17l13 17" /><path d="M232 243l-13 17L206 243l13 -17l13 17 Z" /><path d="M171 456H597m0 0V188m0 0l5 14m-5 -14l-5 14" /><path d="M81 447H41m0 0V169m0 0H70m0 0l-14 5m14 -5L56 164" /><path d="M219 77V89m0 0v0m0 0v13m0 0L214 88m5 14l5 -14" /><path d="M137 192v51m0 0h69m0 0l-14 5m14 -5l-14 -5" /><path d="M620 161h40m0 0l-14 5m14 -5l-14 -5" /><path d="M521 360V188m0 0l5 14m-5 -14l-5 14" /><path d="M285 379H435m0 0l-14 5m14 -5l-14 -5" /><path d="M150 378H126m0 0v48m0 0l-5 -14m5 14l5 -14" /><path d="M217 328v30m0 0l-5 -14m5 14l5 -14" /><path d="M299 189v54m0 0H232m0 0l14 -5m-14 5l14 5" /><path d="M219 260v14m0 0v0m0 0v14m0 0l-5 -14m5 14l5 -14" /><path d="M206 119H137m0 0v33m0 0l-5 -14m5 14l5 -14" /><path d="M232 119h67m0 0v30m0 0l-5 -14m5 14l5 -14" /><g transform="matrix(1 0 0 -1 58 122)"><rect fill="#FFFFFF" stroke="none" x="0" width="72" y="-11" height="11" /></g><text transform="matrix(1 0 0 1 58 122)" fill="#000000" stroke="none"><tspan dx="0 " x="0" y="9">[Import z XML]</tspan></text><g transform="matrix(1 0 0 -1 306 120)"><rect fill="#FFFFFF" stroke="none" x="0" width="79" y="-11" height="11" /></g><text transform="matrix(1 0 0 1 306 120)" fill="#000000" stroke="none"><tspan dx="0 " x="0" y="9">[Vytvoření nové]</tspan></text></g></g></g></g></svg>