<?xml version="1.0" encoding="utf-8"?><svg version="1.1" preserveAspectRatio="xMidYMid" xml:space="preserve" width="411.80221000000006pt" height="240.553pt" viewBox="83.94679 102.187 411.80221000000006 240.553" xmlns="http://www.w3.org/2000/svg" xmlns:xlink="http://www.w3.org/1999/xlink"><g transform="matrix(1 0 0 -1 0 841)"><g stroke="#000000" fill="none" fill-rule="evenodd" stroke-width="1" stroke-linecap="round" stroke-linejoin="round" stroke-miterlimit="3" letter-spacing="normal" font-weight="normal" font-style="normal" baseline-shift="0"><g transform="matrix(0.75 0 0 0.75 0 841.650024)"><g transform="matrix(0.957779 0 0 -0.959628 0 0)" font-family="ArialUnicode" font-size="10"><rect fill="#DFDFDF" stroke="none" x="136" y="159" width="543" height="302" /><path fill="#FFFFFF" d="M136 154H676l-8 8H128l8 -8" /><path fill="#DCDCDC" d="M676 154V458l-8 8V162l8 -8" /><rect fill="#FFFFFF" x="128" y="162" width="540" height="304" /><rect x="128" y="162" width="540" height="304" /><text transform="matrix(1 0 0 1 376 168)" fill="#000000" stroke="none"><tspan dx="0 " x="0" y="9">«device»</tspan></text><text transform="matrix(1 0 0 1 373 181)" fill="#000000" font-weight="bold" stroke="none"><tspan dx="0 " x="0" y="9">Computer</tspan></text><rect fill="#DFDFDF" stroke="none" x="177" y="224" width="450" height="223" /><path fill="#BCEFFF" d="M177 219H624l-8 8H169l8 -8" /><path fill="#76A9DC" d="M624 219V444l-8 8V227l8 -8" /><rect fill="#99CCFF" x="169" y="227" width="447" height="225" /><rect x="169" y="227" width="447" height="225" /><text transform="matrix(1 0 0 1 333 233)" fill="#000000" stroke="none"><tspan dx="0 " x="0" y="9">«executionEnvironment»</tspan></text><text transform="matrix(1 0 0 1 350 246)" fill="#000000" font-weight="bold" stroke="none"><tspan dx="0 " x="0" y="9">Windows / Linux</tspan></text><rect fill="#DFDFDF" stroke="none" x="440" y="277" width="154" height="154" /><path fill="#BCEFFF" d="M440 272H591l-8 8H432l8 -8" /><path fill="#76A9DC" d="M591 272V428l-8 8V280l8 -8" /><rect fill="#99CCFF" x="432" y="280" width="151" height="156" /><rect x="432" y="280" width="151" height="156" /><text transform="matrix(1 0 0 1 448 286)" fill="#000000" stroke="none"><tspan dx="0 " x="0" y="9">«executionEnvironment»</tspan></text><text transform="matrix(1 0 0 1 490 299)" fill="#000000" font-weight="bold" stroke="none"><tspan dx="0 " x="0" y="9">SQLite</tspan></text><path fill="#DFDFDF" stroke="none" d="M455 346C455 341 455 341 460 341h99C564 341 564 341 564 346v49C564 400 564 400 559 400H460C455 400 455 400 455 395V346" /><path fill="#FFC0CB" stroke="none" d="M452 343C452 338 452 338 457 338h99C561 338 561 338 561 343v49C561 397 561 397 556 397H457C452 397 452 397 452 392V343" /><path d="M452 343C452 338 452 338 457 338h99C561 338 561 338 561 343v49C561 397 561 397 556 397H457C452 397 452 397 452 392V343m0 0C452 338 452 338 457 338h99C561 338 561 338 561 343v49C561 397 561 397 556 397H457C452 397 452 397 452 392V343" /><rect x="452" y="338" width="109" height="59" /><text transform="matrix(1 0 0 1 459 347)" fill="#000000" font-weight="bold" stroke="none"><tspan dx="0 " x="0" y="9">DeskChar data</tspan></text><path fill="#FFC0CB" stroke="none" d="M546 348C546 343 546 343 550 343h2C556 343 556 343 556 348v6C556 359 556 359 552 359h-2C546 359 546 359 546 354v-6" /><path d="M546 348C546 343 546 343 550 343h2C556 343 556 343 556 348v6C556 359 556 359 552 359h-2C546 359 546 359 546 354v-6" /><path fill="#FFC0CB" stroke="none" d="M543 348C543 345 543 345 545 345h2C549 345 549 345 549 348v-2C549 349 549 349 547 349h-2C543 349 543 349 543 346v2" /><path d="M543 348C543 345 543 345 545 345h2C549 345 549 345 549 348v-2C549 349 549 349 547 349h-2C543 349 543 349 543 346v2" /><path fill="#FFC0CB" stroke="none" d="M543 355C543 352 543 352 545 352h2C549 352 549 352 549 355v-2C549 356 549 356 547 356h-2C543 356 543 356 543 353v2" /><path d="M543 355C543 352 543 352 545 352h2C549 352 549 352 549 355v-2C549 356 549 356 547 356h-2C543 356 543 356 543 353v2" /><path fill="#DFDFDF" stroke="none" d="M256 343C256 338 256 338 261 338h99C365 338 365 338 365 343v49C365 397 365 397 360 397H261C256 397 256 397 256 392V343" /><path fill="#FFC0CB" stroke="none" d="M253 340C253 335 253 335 258 335h99C362 335 362 335 362 340v49C362 394 362 394 357 394H258C253 394 253 394 253 389V340" /><path d="M253 340C253 335 253 335 258 335h99C362 335 362 335 362 340v49C362 394 362 394 357 394H258C253 394 253 394 253 389V340m0 0C253 335 253 335 258 335h99C362 335 362 335 362 340v49C362 394 362 394 357 394H258C253 394 253 394 253 389V340" /><rect x="253" y="335" width="109" height="59" /><text transform="matrix(1 0 0 1 273 344)" fill="#000000" font-weight="bold" stroke="none"><tspan dx="0 " x="0" y="9">DeskChar</tspan></text><path fill="#FFC0CB" stroke="none" d="M347 345C347 340 347 340 351 340h2C357 340 357 340 357 345v6C357 356 357 356 353 356h-2C347 356 347 356 347 351v-6" /><path d="M347 345C347 340 347 340 351 340h2C357 340 357 340 357 345v6C357 356 357 356 353 356h-2C347 356 347 356 347 351v-6" /><path fill="#FFC0CB" stroke="none" d="M344 345C344 342 344 342 346 342h2C350 342 350 342 350 345v-2C350 346 350 346 348 346h-2C344 346 344 346 344 343v2" /><path d="M344 345C344 342 344 342 346 342h2C350 342 350 342 350 345v-2C350 346 350 346 348 346h-2C344 346 344 346 344 343v2" /><path fill="#FFC0CB" stroke="none" d="M344 352C344 349 344 349 346 349h2C350 349 350 349 350 352v-2C350 353 350 353 348 353h-2C344 353 344 353 344 350v2" /><path d="M344 352C344 349 344 349 346 349h2C350 349 350 349 350 352v-2C350 353 350 353 348 353h-2C344 353 344 353 344 350v2m19 14h35M407.18 355.57C406.79 355.52 406.39 355.5 406 355.5C401.25 356 397 360.25 397 365.5C397 370.75 401.25 375 406.5 375C406.32 374.5 406.63 374.48 406.95 374.45M413 366h39" /><path fill="#FCF2E3" stroke="none" d="M400 365.5C400 361.91 402.91 359 406.5 359C410.09 359 413 361.91 413 365.5C413 369.09 410.09 372 406.5 372C402.91 372 400 369.09 400 365.5" /><path d="M400 365.5C400 361.91 402.91 359 406.5 359C410.09 359 413 361.91 413 365.5C413 369.09 410.09 372 406.5 372C402.91 372 400 369.09 400 365.5" /></g></g></g></g></svg>