<?xml version="1.0" encoding="utf-8"?><svg version="1.1" preserveAspectRatio="xMidYMid" xml:space="preserve" width="452.82751pt" height="286.41427pt" viewBox="64.56509 67.06463 452.82751 286.41427" xmlns="http://www.w3.org/2000/svg" xmlns:xlink="http://www.w3.org/1999/xlink"><g transform="matrix(1 0 0 -1 0 816)"><g stroke="#000000" fill="none" fill-rule="evenodd" stroke-width="1" stroke-linecap="round" stroke-linejoin="round" stroke-miterlimit="3" letter-spacing="normal" font-weight="normal" font-style="normal" baseline-shift="0"><g transform="matrix(0.75 0 0 0.75 0 816.450012)"><g transform="matrix(0.957955 0 0 -0.958916 0 0)" font-family="ArialUnicode" font-size="10"><path fill="#DFDFDF" stroke="none" d="M104 113C104 108 104 108 109 108H703C708 108 708 108 708 113v49C708 167 708 167 703 167H109C104 167 104 167 104 162V113" /><path fill="#FFC0CB" stroke="none" d="M101 110C101 105 101 105 106 105H700C705 105 705 105 705 110v49C705 164 705 164 700 164H106C101 164 101 164 101 159V110" /><path d="M101 110C101 105 101 105 106 105H700C705 105 705 105 705 110v49C705 164 705 164 700 164H106C101 164 101 164 101 159V110m0 0C101 105 101 105 106 105H700C705 105 705 105 705 110v49C705 164 705 164 700 164H106C101 164 101 164 101 159V110" /><rect x="101" y="105" width="604" height="59" /><text transform="matrix(1 0 0 1 345 114)" fill="#000000" font-weight="bold" stroke="none"><tspan dx="0 " x="0" y="9">Presentation Layer</tspan></text><path fill="#FFC0CB" stroke="none" d="M690 115C690 110 690 110 694 110h2C700 110 700 110 700 115v6C700 126 700 126 696 126h-2C690 126 690 126 690 121v-6" /><path d="M690 115C690 110 690 110 694 110h2C700 110 700 110 700 115v6C700 126 700 126 696 126h-2C690 126 690 126 690 121v-6" /><path fill="#FFC0CB" stroke="none" d="M687 115C687 112 687 112 689 112h2C693 112 693 112 693 115v-2C693 116 693 116 691 116h-2C687 116 687 116 687 113v2" /><path d="M687 115C687 112 687 112 689 112h2C693 112 693 112 693 115v-2C693 116 693 116 691 116h-2C687 116 687 116 687 113v2" /><path fill="#FFC0CB" stroke="none" d="M687 122C687 119 687 119 689 119h2C693 119 693 119 693 122v-2C693 123 693 123 691 123h-2C687 123 687 123 687 120v2" /><path d="M687 122C687 119 687 119 689 119h2C693 119 693 119 693 122v-2C693 123 693 123 691 123h-2C687 123 687 123 687 120v2" /><path fill="#DFDFDF" stroke="none" d="M211 261C211 256 211 256 216 256H701C706 256 706 256 706 261v49C706 315 706 315 701 315H216C211 315 211 315 211 310V261" /><path fill="#FFC0CB" stroke="none" d="M208 258C208 253 208 253 213 253H698C703 253 703 253 703 258v49C703 312 703 312 698 312H213C208 312 208 312 208 307V258" /><path d="M208 258C208 253 208 253 213 253H698C703 253 703 253 703 258v49C703 312 703 312 698 312H213C208 312 208 312 208 307V258m0 0C208 253 208 253 213 253H698C703 253 703 253 703 258v49C703 312 703 312 698 312H213C208 312 208 312 208 307V258" /><rect x="208" y="253" width="495" height="59" /><text transform="matrix(1 0 0 1 406 262)" fill="#000000" font-weight="bold" stroke="none"><tspan dx="0 " x="0" y="9">Bussines Layer</tspan></text><path fill="#FFC0CB" stroke="none" d="M688 263C688 258 688 258 692 258h2C698 258 698 258 698 263v6C698 274 698 274 694 274h-2C688 274 688 274 688 269v-6" /><path d="M688 263C688 258 688 258 692 258h2C698 258 698 258 698 263v6C698 274 698 274 694 274h-2C688 274 688 274 688 269v-6" /><path fill="#FFC0CB" stroke="none" d="M685 263C685 260 685 260 687 260h2C691 260 691 260 691 263v-2C691 264 691 264 689 264h-2C685 264 685 264 685 261v2" /><path d="M685 263C685 260 685 260 687 260h2C691 260 691 260 691 263v-2C691 264 691 264 689 264h-2C685 264 685 264 685 261v2" /><path fill="#FFC0CB" stroke="none" d="M685 270C685 267 685 267 687 267h2C691 267 691 267 691 270v-2C691 271 691 271 689 271h-2C685 271 685 271 685 268v2" /><path d="M685 270C685 267 685 267 687 267h2C691 267 691 267 691 270v-2C691 271 691 271 689 271h-2C685 271 685 271 685 268v2" /><path fill="#DFDFDF" stroke="none" d="M104 427C104 422 104 422 109 422H703C708 422 708 422 708 427v49C708 481 708 481 703 481H109C104 481 104 481 104 476V427" /><path fill="#FFC0CB" stroke="none" d="M101 424C101 419 101 419 106 419H700C705 419 705 419 705 424v49C705 478 705 478 700 478H106C101 478 101 478 101 473V424" /><path d="M101 424C101 419 101 419 106 419H700C705 419 705 419 705 424v49C705 478 705 478 700 478H106C101 478 101 478 101 473V424m0 0C101 419 101 419 106 419H700C705 419 705 419 705 424v49C705 478 705 478 700 478H106C101 478 101 478 101 473V424" /><rect x="101" y="419" width="604" height="59" /><text transform="matrix(1 0 0 1 366 428)" fill="#000000" font-weight="bold" stroke="none"><tspan dx="0 " x="0" y="9">Data Layer</tspan></text><path fill="#FFC0CB" stroke="none" d="M690 429C690 424 690 424 694 424h2C700 424 700 424 700 429v6C700 440 700 440 696 440h-2C690 440 690 440 690 435v-6" /><path d="M690 429C690 424 690 424 694 424h2C700 424 700 424 700 429v6C700 440 700 440 696 440h-2C690 440 690 440 690 435v-6" /><path fill="#FFC0CB" stroke="none" d="M687 429C687 426 687 426 689 426h2C693 426 693 426 693 429v-2C693 430 693 430 691 430h-2C687 430 687 430 687 427v2" /><path d="M687 429C687 426 687 426 689 426h2C693 426 693 426 693 429v-2C693 430 693 430 691 430h-2C687 430 687 430 687 427v2" /><path fill="#FFC0CB" stroke="none" d="M687 436C687 433 687 433 689 433h2C693 433 693 433 693 436v-2C693 437 693 437 691 437h-2C687 437 687 437 687 434v2" /><path d="M687 436C687 433 687 433 689 433h2C693 433 693 433 693 436v-2C693 437 693 437 691 437h-2C687 437 687 437 687 434v2" /><path d="M587 313v44M595.45 365.95C595.48 365.63 595.5 365.32 595.5 365C596 360.25 591.75 356 586.5 356C581.25 356 577 360.25 577 365.5C576.5 365.35 576.52 365.7 576.56 366.05M587 373v46" /><path fill="#FCF2E3" stroke="none" d="M580 365.5C580 361.91 582.91 359 586.5 359C590.09 359 593 361.91 593 365.5C593 369.09 590.09 372 586.5 372C582.91 372 580 369.09 580 365.5" /><path d="M580 365.5C580 361.91 582.91 359 586.5 359C590.09 359 593 361.91 593 365.5C593 369.09 590.09 372 586.5 372C582.91 372 580 369.09 580 365.5M344 313v44M352.45 365.95C352.48 365.63 352.5 365.32 352.5 365C353 360.25 348.75 356 343.5 356C338.25 356 334 360.25 334 365.5C333.5 365.35 333.52 365.7 333.56 366.05M344 373v46" /><path fill="#FCF2E3" stroke="none" d="M337 365.5C337 361.91 339.91 359 343.5 359C347.09 359 350 361.91 350 365.5C350 369.09 347.09 372 343.5 372C339.91 372 337 369.09 337 365.5" /><path d="M337 365.5C337 361.91 339.91 359 343.5 359C347.09 359 350 361.91 350 365.5C350 369.09 347.09 372 343.5 372C339.91 372 337 369.09 337 365.5M500 313v44M508.45 365.95C508.48 365.63 508.5 365.32 508.5 365C509 360.25 504.75 356 499.5 356C494.25 356 490 360.25 490 365.5C489.5 365.35 489.52 365.7 489.56 366.05M500 373v46" /><path fill="#FCF2E3" stroke="none" d="M493 365.5C493 361.91 495.91 359 499.5 359C503.09 359 506 361.91 506 365.5C506 369.09 503.09 372 499.5 372C495.91 372 493 369.09 493 365.5" /><path d="M493 365.5C493 361.91 495.91 359 499.5 359C503.09 359 506 361.91 506 365.5C506 369.09 503.09 372 499.5 372C495.91 372 493 369.09 493 365.5M418 313v44M426.45 365.95C426.48 365.63 426.5 365.32 426.5 365C427 360.25 422.75 356 417.5 356C412.25 356 408 360.25 408 365.5C407.5 365.35 407.52 365.7 407.56 366.05M418 373v46" /><path fill="#FCF2E3" stroke="none" d="M411 365.5C411 361.91 413.91 359 417.5 359C421.09 359 424 361.91 424 365.5C424 369.09 421.09 372 417.5 372C413.91 372 411 369.09 411 365.5" /><path d="M411 365.5C411 361.91 413.91 359 417.5 359C421.09 359 424 361.91 424 365.5C424 369.09 421.09 372 417.5 372C413.91 372 411 369.09 411 365.5M249 313v44M257.45 365.95C257.48 365.63 257.5 365.32 257.5 365C258 360.25 253.75 356 248.5 356C243.25 356 239 360.25 239 365.5C238.5 365.35 238.52 365.7 238.56 366.05M249 373v46" /><path fill="#FCF2E3" stroke="none" d="M242 365.5C242 361.91 244.91 359 248.5 359C252.09 359 255 361.91 255 365.5C255 369.09 252.09 372 248.5 372C244.91 372 242 369.09 242 365.5" /><path d="M242 365.5C242 361.91 244.91 359 248.5 359C252.09 359 255 361.91 255 365.5C255 369.09 252.09 372 248.5 372C244.91 372 242 369.09 242 365.5M586 165v35M594.45 208.95C594.48 208.63 594.5 208.32 594.5 208C595 203.25 590.75 199 585.5 199C580.25 199 576 203.25 576 208.5C575.5 208.35 575.52 208.7 575.56 209.05M586 216v37" /><path fill="#FCF2E3" stroke="none" d="M579 208.5C579 204.91 581.91 202 585.5 202C589.09 202 592 204.91 592 208.5C592 212.09 589.09 215 585.5 215C581.91 215 579 212.09 579 208.5" /><path d="M579 208.5C579 204.91 581.91 202 585.5 202C589.09 202 592 204.91 592 208.5C592 212.09 589.09 215 585.5 215C581.91 215 579 212.09 579 208.5M153 165V283M161.45 291.95C161.48 291.63 161.5 291.32 161.5 291C162 286.25 157.75 282 152.5 282C147.25 282 143 286.25 143 291.5C142.5 291.35 142.52 291.7 142.56 292.05M153 299V419" /><path fill="#FCF2E3" stroke="none" d="M146 291.5C146 287.91 148.91 285 152.5 285C156.09 285 159 287.91 159 291.5C159 295.09 156.09 298 152.5 298C148.91 298 146 295.09 146 291.5" /><path d="M146 291.5C146 287.91 148.91 285 152.5 285C156.09 285 159 287.91 159 291.5C159 295.09 156.09 298 152.5 298C148.91 298 146 295.09 146 291.5M499 165v35M507.45 208.95C507.48 208.63 507.5 208.32 507.5 208C508 203.25 503.75 199 498.5 199C493.25 199 489 203.25 489 208.5C488.5 208.35 488.52 208.7 488.56 209.05M499 216v37" /><path fill="#FCF2E3" stroke="none" d="M492 208.5C492 204.91 494.91 202 498.5 202C502.09 202 505 204.91 505 208.5C505 212.09 502.09 215 498.5 215C494.91 215 492 212.09 492 208.5" /><path d="M492 208.5C492 204.91 494.91 202 498.5 202C502.09 202 505 204.91 505 208.5C505 212.09 502.09 215 498.5 215C494.91 215 492 212.09 492 208.5M417 165v35M425.45 208.95C425.48 208.63 425.5 208.32 425.5 208C426 203.25 421.75 199 416.5 199C411.25 199 407 203.25 407 208.5C406.5 208.35 406.52 208.7 406.56 209.05M417 216v37" /><path fill="#FCF2E3" stroke="none" d="M410 208.5C410 204.91 412.91 202 416.5 202C420.09 202 423 204.91 423 208.5C423 212.09 420.09 215 416.5 215C412.91 215 410 212.09 410 208.5" /><path d="M410 208.5C410 204.91 412.91 202 416.5 202C420.09 202 423 204.91 423 208.5C423 212.09 420.09 215 416.5 215C412.91 215 410 212.09 410 208.5M343 165v35M351.45 208.95C351.48 208.63 351.5 208.32 351.5 208C352 203.25 347.75 199 342.5 199C337.25 199 333 203.25 333 208.5C332.5 208.35 332.52 208.7 332.56 209.05M343 216v37" /><path fill="#FCF2E3" stroke="none" d="M336 208.5C336 204.91 338.91 202 342.5 202C346.09 202 349 204.91 349 208.5C349 212.09 346.09 215 342.5 215C338.91 215 336 212.09 336 208.5" /><path d="M336 208.5C336 204.91 338.91 202 342.5 202C346.09 202 349 204.91 349 208.5C349 212.09 346.09 215 342.5 215C338.91 215 336 212.09 336 208.5M247 165v35M255.45 208.95C255.48 208.63 255.5 208.32 255.5 208C256 203.25 251.75 199 246.5 199C241.25 199 237 203.25 237 208.5C236.5 208.35 236.52 208.7 236.56 209.05M247 216v37" /><path fill="#FCF2E3" stroke="none" d="M240 208.5C240 204.91 242.91 202 246.5 202C250.09 202 253 204.91 253 208.5C253 212.09 250.09 215 246.5 215C242.91 215 240 212.09 240 208.5" /><path d="M240 208.5C240 204.91 242.91 202 246.5 202C250.09 202 253 204.91 253 208.5C253 212.09 250.09 215 246.5 215C242.91 215 240 212.09 240 208.5M673 165v35M681.45 208.95C681.48 208.63 681.5 208.32 681.5 208C682 203.25 677.75 199 672.5 199C667.25 199 663 203.25 663 208.5C662.5 208.35 662.52 208.7 662.56 209.05M673 216v37" /><path fill="#FCF2E3" stroke="none" d="M666 208.5C666 204.91 668.91 202 672.5 202C676.09 202 679 204.91 679 208.5C679 212.09 676.09 215 672.5 215C668.91 215 666 212.09 666 208.5" /><path d="M666 208.5C666 204.91 668.91 202 672.5 202C676.09 202 679 204.91 679 208.5C679 212.09 676.09 215 672.5 215C668.91 215 666 212.09 666 208.5" /><g transform="matrix(1 0 0 -1 384 177)"><rect fill="#FFFFFF" stroke="none" x="0" width="69" y="-11" height="11" /></g><text transform="matrix(1 0 0 1 384 177)" fill="#000000" stroke="none"><tspan dx="0 " x="0" y="9">IMapManager</tspan></text><g transform="matrix(1 0 0 -1 554 335)"><rect fill="#FFFFFF" stroke="none" x="0" width="66" y="-11" height="11" /></g><text transform="matrix(1 0 0 1 554 335)" fill="#000000" stroke="none"><tspan dx="0 " x="0" y="9">ISettingsDAO</tspan></text><g transform="matrix(1 0 0 -1 124 261)"><rect fill="#FFFFFF" stroke="none" x="0" width="58" y="-11" height="11" /></g><text transform="matrix(1 0 0 1 124 261)" fill="#000000" stroke="none"><tspan dx="0 " x="0" y="9">IObjectDAO</tspan></text><g transform="matrix(1 0 0 -1 476 335)"><rect fill="#FFFFFF" stroke="none" x="0" width="51" y="-11" height="11" /></g><text transform="matrix(1 0 0 1 476 335)" fill="#000000" stroke="none"><tspan dx="0 " x="0" y="9">ILangDAO</tspan></text><g transform="matrix(1 0 0 -1 309 177)"><rect fill="#FFFFFF" stroke="none" x="0" width="70" y="-11" height="11" /></g><text transform="matrix(1 0 0 1 309 177)" fill="#000000" stroke="none"><tspan dx="0 " x="0" y="9">ITreeManager</tspan></text><g transform="matrix(1 0 0 -1 395 333)"><rect fill="#FFFFFF" stroke="none" x="0" width="48" y="-11" height="11" /></g><text transform="matrix(1 0 0 1 395 333)" fill="#000000" stroke="none"><tspan dx="0 " x="0" y="9">IMapDAO</tspan></text><g transform="matrix(1 0 0 -1 465 177)"><rect fill="#FFFFFF" stroke="none" x="0" width="72" y="-11" height="11" /></g><text transform="matrix(1 0 0 1 465 177)" fill="#000000" stroke="none"><tspan dx="0 " x="0" y="9">ILangManager</tspan></text><g transform="matrix(1 0 0 -1 640 175)"><rect fill="#FFFFFF" stroke="none" x="0" width="67" y="-11" height="11" /></g><text transform="matrix(1 0 0 1 640 175)" fill="#000000" stroke="none"><tspan dx="0 " x="0" y="9">ITabManager</tspan></text><g transform="matrix(1 0 0 -1 546 178)"><rect fill="#FFFFFF" stroke="none" x="0" width="87" y="-11" height="11" /></g><text transform="matrix(1 0 0 1 546 178)" fill="#000000" stroke="none"><tspan dx="0 " x="0" y="9">ISettignsManager</tspan></text><g transform="matrix(1 0 0 -1 220 331)"><rect fill="#FFFFFF" stroke="none" x="0" width="58" y="-11" height="11" /></g><text transform="matrix(1 0 0 1 220 331)" fill="#000000" stroke="none"><tspan dx="0 " x="0" y="9">IObjectDAO</tspan></text><g transform="matrix(1 0 0 -1 322 335)"><rect fill="#FFFFFF" stroke="none" x="0" width="49" y="-11" height="11" /></g><text transform="matrix(1 0 0 1 322 335)" fill="#000000" stroke="none"><tspan dx="0 " x="0" y="9">ITreeDAO</tspan></text><g transform="matrix(1 0 0 -1 209 176)"><rect fill="#FFFFFF" stroke="none" x="0" width="79" y="-11" height="11" /></g><text transform="matrix(1 0 0 1 209 176)" fill="#000000" stroke="none"><tspan dx="0 " x="0" y="9">IObjectManager</tspan></text></g></g></g></g></svg>