<?xml version="1.0" encoding="utf-8"?><svg version="1.1" preserveAspectRatio="xMidYMid" xml:space="preserve" width="375.95169999999996pt" height="286.41427pt" viewBox="129.9455 67.06463 375.95169999999996 286.41427" xmlns="http://www.w3.org/2000/svg" xmlns:xlink="http://www.w3.org/1999/xlink"><g transform="matrix(1 0 0 -1 0 816)"><g stroke="#000000" fill="none" fill-rule="evenodd" stroke-width="1" stroke-linecap="round" stroke-linejoin="round" stroke-miterlimit="3" letter-spacing="normal" font-weight="normal" font-style="normal" baseline-shift="0"><g transform="matrix(0.75 0 0 0.75 0 816.450012)"><g transform="matrix(0.957955 0 0 -0.958916 0 0)" font-family="ArialUnicode" font-size="10"><path fill="#DFDFDF" stroke="none" d="M195 113C195 108 195 108 200 108H687C692 108 692 108 692 113v49C692 167 692 167 687 167H200C195 167 195 167 195 162V113" /><path fill="#FFC0CB" stroke="none" d="M192 110C192 105 192 105 197 105H684C689 105 689 105 689 110v49C689 164 689 164 684 164H197C192 164 192 164 192 159V110" /><path d="M192 110C192 105 192 105 197 105H684C689 105 689 105 689 110v49C689 164 689 164 684 164H197C192 164 192 164 192 159V110m0 0C192 105 192 105 197 105H684C689 105 689 105 689 110v49C689 164 689 164 684 164H197C192 164 192 164 192 159V110" /><rect x="192" y="105" width="497" height="59" /><text transform="matrix(1 0 0 1 383 114)" fill="#000000" font-weight="bold" stroke="none"><tspan dx="0 " x="0" y="9">Presentation Layer</tspan></text><path fill="#FFC0CB" stroke="none" d="M674 115C674 110 674 110 678 110h2C684 110 684 110 684 115v6C684 126 684 126 680 126h-2C674 126 674 126 674 121v-6" /><path d="M674 115C674 110 674 110 678 110h2C684 110 684 110 684 115v6C684 126 684 126 680 126h-2C674 126 674 126 674 121v-6" /><path fill="#FFC0CB" stroke="none" d="M671 115C671 112 671 112 673 112h2C677 112 677 112 677 115v-2C677 116 677 116 675 116h-2C671 116 671 116 671 113v2" /><path d="M671 115C671 112 671 112 673 112h2C677 112 677 112 677 115v-2C677 116 677 116 675 116h-2C671 116 671 116 671 113v2" /><path fill="#FFC0CB" stroke="none" d="M671 122C671 119 671 119 673 119h2C677 119 677 119 677 122v-2C677 123 677 123 675 123h-2C671 123 671 123 671 120v2" /><path d="M671 122C671 119 671 119 673 119h2C677 119 677 119 677 122v-2C677 123 677 123 675 123h-2C671 123 671 123 671 120v2" /><path fill="#DFDFDF" stroke="none" d="M195 261C195 256 195 256 200 256H685C690 256 690 256 690 261v49C690 315 690 315 685 315H200C195 315 195 315 195 310V261" /><path fill="#FFC0CB" stroke="none" d="M192 258C192 253 192 253 197 253H682C687 253 687 253 687 258v49C687 312 687 312 682 312H197C192 312 192 312 192 307V258" /><path d="M192 258C192 253 192 253 197 253H682C687 253 687 253 687 258v49C687 312 687 312 682 312H197C192 312 192 312 192 307V258m0 0C192 253 192 253 197 253H682C687 253 687 253 687 258v49C687 312 687 312 682 312H197C192 312 192 312 192 307V258" /><rect x="192" y="253" width="495" height="59" /><text transform="matrix(1 0 0 1 390 262)" fill="#000000" font-weight="bold" stroke="none"><tspan dx="0 " x="0" y="9">Bussines Layer</tspan></text><path fill="#FFC0CB" stroke="none" d="M672 263C672 258 672 258 676 258h2C682 258 682 258 682 263v6C682 274 682 274 678 274h-2C672 274 672 274 672 269v-6" /><path d="M672 263C672 258 672 258 676 258h2C682 258 682 258 682 263v6C682 274 682 274 678 274h-2C672 274 672 274 672 269v-6" /><path fill="#FFC0CB" stroke="none" d="M669 263C669 260 669 260 671 260h2C675 260 675 260 675 263v-2C675 264 675 264 673 264h-2C669 264 669 264 669 261v2" /><path d="M669 263C669 260 669 260 671 260h2C675 260 675 260 675 263v-2C675 264 675 264 673 264h-2C669 264 669 264 669 261v2" /><path fill="#FFC0CB" stroke="none" d="M669 270C669 267 669 267 671 267h2C675 267 675 267 675 270v-2C675 271 675 271 673 271h-2C669 271 669 271 669 268v2" /><path d="M669 270C669 267 669 267 671 267h2C675 267 675 267 675 270v-2C675 271 675 271 673 271h-2C669 271 669 271 669 268v2" /><path fill="#DFDFDF" stroke="none" d="M195 427C195 422 195 422 200 422H685C690 422 690 422 690 427v49C690 481 690 481 685 481H200C195 481 195 481 195 476V427" /><path fill="#FFC0CB" stroke="none" d="M192 424C192 419 192 419 197 419H682C687 419 687 419 687 424v49C687 478 687 478 682 478H197C192 478 192 478 192 473V424" /><path d="M192 424C192 419 192 419 197 419H682C687 419 687 419 687 424v49C687 478 687 478 682 478H197C192 478 192 478 192 473V424m0 0C192 419 192 419 197 419H682C687 419 687 419 687 424v49C687 478 687 478 682 478H197C192 478 192 478 192 473V424" /><rect x="192" y="419" width="495" height="59" /><text transform="matrix(1 0 0 1 403 428)" fill="#000000" font-weight="bold" stroke="none"><tspan dx="0 " x="0" y="9">Data Layer</tspan></text><path fill="#FFC0CB" stroke="none" d="M672 429C672 424 672 424 676 424h2C682 424 682 424 682 429v6C682 440 682 440 678 440h-2C672 440 672 440 672 435v-6" /><path d="M672 429C672 424 672 424 676 424h2C682 424 682 424 682 429v6C682 440 682 440 678 440h-2C672 440 672 440 672 435v-6" /><path fill="#FFC0CB" stroke="none" d="M669 429C669 426 669 426 671 426h2C675 426 675 426 675 429v-2C675 430 675 430 673 430h-2C669 430 669 430 669 427v2" /><path d="M669 429C669 426 669 426 671 426h2C675 426 675 426 675 429v-2C675 430 675 430 673 430h-2C669 430 669 430 669 427v2" /><path fill="#FFC0CB" stroke="none" d="M669 436C669 433 669 433 671 433h2C675 433 675 433 675 436v-2C675 437 675 437 673 437h-2C669 437 669 437 669 434v2" /><path d="M669 436C669 433 669 433 671 433h2C675 433 675 433 675 436v-2C675 437 675 437 673 437h-2C669 437 669 437 669 434v2" /><path d="M571 313v44M579.45 365.95C579.48 365.63 579.5 365.32 579.5 365C580 360.25 575.75 356 570.5 356C565.25 356 561 360.25 561 365.5C560.5 365.35 560.52 365.7 560.56 366.05M571 373v46" /><path fill="#FCF2E3" stroke="none" d="M564 365.5C564 361.91 566.91 359 570.5 359C574.09 359 577 361.91 577 365.5C577 369.09 574.09 372 570.5 372C566.91 372 564 369.09 564 365.5" /><path d="M564 365.5C564 361.91 566.91 359 570.5 359C574.09 359 577 361.91 577 365.5C577 369.09 574.09 372 570.5 372C566.91 372 564 369.09 564 365.5M328 313v44M336.45 365.95C336.48 365.63 336.5 365.32 336.5 365C337 360.25 332.75 356 327.5 356C322.25 356 318 360.25 318 365.5C317.5 365.35 317.52 365.7 317.56 366.05M328 373v46" /><path fill="#FCF2E3" stroke="none" d="M321 365.5C321 361.91 323.91 359 327.5 359C331.09 359 334 361.91 334 365.5C334 369.09 331.09 372 327.5 372C323.91 372 321 369.09 321 365.5" /><path d="M321 365.5C321 361.91 323.91 359 327.5 359C331.09 359 334 361.91 334 365.5C334 369.09 331.09 372 327.5 372C323.91 372 321 369.09 321 365.5M484 313v44M492.45 365.95C492.48 365.63 492.5 365.32 492.5 365C493 360.25 488.75 356 483.5 356C478.25 356 474 360.25 474 365.5C473.5 365.35 473.52 365.7 473.56 366.05M484 373v46" /><path fill="#FCF2E3" stroke="none" d="M477 365.5C477 361.91 479.91 359 483.5 359C487.09 359 490 361.91 490 365.5C490 369.09 487.09 372 483.5 372C479.91 372 477 369.09 477 365.5" /><path d="M477 365.5C477 361.91 479.91 359 483.5 359C487.09 359 490 361.91 490 365.5C490 369.09 487.09 372 483.5 372C479.91 372 477 369.09 477 365.5M402 313v44M410.45 365.95C410.48 365.63 410.5 365.32 410.5 365C411 360.25 406.75 356 401.5 356C396.25 356 392 360.25 392 365.5C391.5 365.35 391.52 365.7 391.56 366.05M402 373v46" /><path fill="#FCF2E3" stroke="none" d="M395 365.5C395 361.91 397.91 359 401.5 359C405.09 359 408 361.91 408 365.5C408 369.09 405.09 372 401.5 372C397.91 372 395 369.09 395 365.5" /><path d="M395 365.5C395 361.91 397.91 359 401.5 359C405.09 359 408 361.91 408 365.5C408 369.09 405.09 372 401.5 372C397.91 372 395 369.09 395 365.5M233 313v44M241.45 365.95C241.48 365.63 241.5 365.32 241.5 365C242 360.25 237.75 356 232.5 356C227.25 356 223 360.25 223 365.5C222.5 365.35 222.52 365.7 222.56 366.05M233 373v46" /><path fill="#FCF2E3" stroke="none" d="M226 365.5C226 361.91 228.91 359 232.5 359C236.09 359 239 361.91 239 365.5C239 369.09 236.09 372 232.5 372C228.91 372 226 369.09 226 365.5" /><path d="M226 365.5C226 361.91 228.91 359 232.5 359C236.09 359 239 361.91 239 365.5C239 369.09 236.09 372 232.5 372C228.91 372 226 369.09 226 365.5M570 165v35M578.45 208.95C578.48 208.63 578.5 208.32 578.5 208C579 203.25 574.75 199 569.5 199C564.25 199 560 203.25 560 208.5C559.5 208.35 559.52 208.7 559.56 209.05M570 216v37" /><path fill="#FCF2E3" stroke="none" d="M563 208.5C563 204.91 565.91 202 569.5 202C573.09 202 576 204.91 576 208.5C576 212.09 573.09 215 569.5 215C565.91 215 563 212.09 563 208.5" /><path d="M563 208.5C563 204.91 565.91 202 569.5 202C573.09 202 576 204.91 576 208.5C576 212.09 573.09 215 569.5 215C565.91 215 563 212.09 563 208.5M483 165v35M491.45 208.95C491.48 208.63 491.5 208.32 491.5 208C492 203.25 487.75 199 482.5 199C477.25 199 473 203.25 473 208.5C472.5 208.35 472.52 208.7 472.56 209.05M483 216v37" /><path fill="#FCF2E3" stroke="none" d="M476 208.5C476 204.91 478.91 202 482.5 202C486.09 202 489 204.91 489 208.5C489 212.09 486.09 215 482.5 215C478.91 215 476 212.09 476 208.5" /><path d="M476 208.5C476 204.91 478.91 202 482.5 202C486.09 202 489 204.91 489 208.5C489 212.09 486.09 215 482.5 215C478.91 215 476 212.09 476 208.5M401 165v35M409.45 208.95C409.48 208.63 409.5 208.32 409.5 208C410 203.25 405.75 199 400.5 199C395.25 199 391 203.25 391 208.5C390.5 208.35 390.52 208.7 390.56 209.05M401 216v37" /><path fill="#FCF2E3" stroke="none" d="M394 208.5C394 204.91 396.91 202 400.5 202C404.09 202 407 204.91 407 208.5C407 212.09 404.09 215 400.5 215C396.91 215 394 212.09 394 208.5" /><path d="M394 208.5C394 204.91 396.91 202 400.5 202C404.09 202 407 204.91 407 208.5C407 212.09 404.09 215 400.5 215C396.91 215 394 212.09 394 208.5M327 165v35M335.45 208.95C335.48 208.63 335.5 208.32 335.5 208C336 203.25 331.75 199 326.5 199C321.25 199 317 203.25 317 208.5C316.5 208.35 316.52 208.7 316.56 209.05M327 216v37" /><path fill="#FCF2E3" stroke="none" d="M320 208.5C320 204.91 322.91 202 326.5 202C330.09 202 333 204.91 333 208.5C333 212.09 330.09 215 326.5 215C322.91 215 320 212.09 320 208.5" /><path d="M320 208.5C320 204.91 322.91 202 326.5 202C330.09 202 333 204.91 333 208.5C333 212.09 330.09 215 326.5 215C322.91 215 320 212.09 320 208.5M231 165v35M239.45 208.95C239.48 208.63 239.5 208.32 239.5 208C240 203.25 235.75 199 230.5 199C225.25 199 221 203.25 221 208.5C220.5 208.35 220.52 208.7 220.56 209.05M231 216v37" /><path fill="#FCF2E3" stroke="none" d="M224 208.5C224 204.91 226.91 202 230.5 202C234.09 202 237 204.91 237 208.5C237 212.09 234.09 215 230.5 215C226.91 215 224 212.09 224 208.5" /><path d="M224 208.5C224 204.91 226.91 202 230.5 202C234.09 202 237 204.91 237 208.5C237 212.09 234.09 215 230.5 215C226.91 215 224 212.09 224 208.5M657 165v35M665.45 208.95C665.48 208.63 665.5 208.32 665.5 208C666 203.25 661.75 199 656.5 199C651.25 199 647 203.25 647 208.5C646.5 208.35 646.52 208.7 646.56 209.05M657 216v37" /><path fill="#FCF2E3" stroke="none" d="M650 208.5C650 204.91 652.91 202 656.5 202C660.09 202 663 204.91 663 208.5C663 212.09 660.09 215 656.5 215C652.91 215 650 212.09 650 208.5" /><path d="M650 208.5C650 204.91 652.91 202 656.5 202C660.09 202 663 204.91 663 208.5C663 212.09 660.09 215 656.5 215C652.91 215 650 212.09 650 208.5" /><g transform="matrix(1 0 0 -1 530 178)"><rect fill="#FFFFFF" stroke="none" x="0" width="87" y="-11" height="11" /></g><text transform="matrix(1 0 0 1 530 178)" fill="#000000" stroke="none"><tspan dx="0 " x="0" y="9">ISettignsManager</tspan></text><g transform="matrix(1 0 0 -1 379 333)"><rect fill="#FFFFFF" stroke="none" x="0" width="48" y="-11" height="11" /></g><text transform="matrix(1 0 0 1 379 333)" fill="#000000" stroke="none"><tspan dx="0 " x="0" y="9">IMapDAO</tspan></text><g transform="matrix(1 0 0 -1 624 175)"><rect fill="#FFFFFF" stroke="none" x="0" width="67" y="-11" height="11" /></g><text transform="matrix(1 0 0 1 624 175)" fill="#000000" stroke="none"><tspan dx="0 " x="0" y="9">ITabManager</tspan></text><g transform="matrix(1 0 0 -1 368 177)"><rect fill="#FFFFFF" stroke="none" x="0" width="69" y="-11" height="11" /></g><text transform="matrix(1 0 0 1 368 177)" fill="#000000" stroke="none"><tspan dx="0 " x="0" y="9">IMapManager</tspan></text><g transform="matrix(1 0 0 -1 460 335)"><rect fill="#FFFFFF" stroke="none" x="0" width="51" y="-11" height="11" /></g><text transform="matrix(1 0 0 1 460 335)" fill="#000000" stroke="none"><tspan dx="0 " x="0" y="9">ILangDAO</tspan></text><g transform="matrix(1 0 0 -1 306 335)"><rect fill="#FFFFFF" stroke="none" x="0" width="49" y="-11" height="11" /></g><text transform="matrix(1 0 0 1 306 335)" fill="#000000" stroke="none"><tspan dx="0 " x="0" y="9">ITreeDAO</tspan></text><g transform="matrix(1 0 0 -1 293 177)"><rect fill="#FFFFFF" stroke="none" x="0" width="70" y="-11" height="11" /></g><text transform="matrix(1 0 0 1 293 177)" fill="#000000" stroke="none"><tspan dx="0 " x="0" y="9">ITreeManager</tspan></text><g transform="matrix(1 0 0 -1 538 335)"><rect fill="#FFFFFF" stroke="none" x="0" width="66" y="-11" height="11" /></g><text transform="matrix(1 0 0 1 538 335)" fill="#000000" stroke="none"><tspan dx="0 " x="0" y="9">ISettingsDAO</tspan></text><g transform="matrix(1 0 0 -1 204 331)"><rect fill="#FFFFFF" stroke="none" x="0" width="58" y="-11" height="11" /></g><text transform="matrix(1 0 0 1 204 331)" fill="#000000" stroke="none"><tspan dx="0 " x="0" y="9">IObjectDAO</tspan></text><g transform="matrix(1 0 0 -1 193 176)"><rect fill="#FFFFFF" stroke="none" x="0" width="79" y="-11" height="11" /></g><text transform="matrix(1 0 0 1 193 176)" fill="#000000" stroke="none"><tspan dx="0 " x="0" y="9">IObjectManager</tspan></text><g transform="matrix(1 0 0 -1 449 177)"><rect fill="#FFFFFF" stroke="none" x="0" width="72" y="-11" height="11" /></g><text transform="matrix(1 0 0 1 449 177)" fill="#000000" stroke="none"><tspan dx="0 " x="0" y="9">ILangManager</tspan></text></g></g></g></g></svg>