<?xml version="1.0" encoding="utf-8"?><svg version="1.1" preserveAspectRatio="xMidYMid" xml:space="preserve" width="702.048587pt" height="419.11388pt" viewBox="-0.08958699999999986 29.501820000000002 702.048587 419.11388" xmlns="http://www.w3.org/2000/svg" xmlns:xlink="http://www.w3.org/1999/xlink"><g transform="matrix(1 0 0 -1 0 841)"><g stroke="#000000" fill="none" fill-rule="evenodd" stroke-width="1" stroke-linecap="round" stroke-linejoin="round" stroke-miterlimit="3" letter-spacing="normal" font-weight="normal" font-style="normal" baseline-shift="0"><g transform="matrix(0.75 0 0 0.75 0 841.650024)"><g transform="matrix(0.958838 0 0 -0.959795 0 0)" font-family="ArialUnicode" font-size="10"><path fill="#DFDFDF" stroke="none" d="M499 232C499 227 499 227 504 227h79C588 227 588 227 588 232v59C588 296 588 296 583 296H504C499 296 499 296 499 291V232" /><path fill="#FFFFFF" stroke="none" d="M496 229C496 224 496 224 501 224h79C585 224 585 224 585 229v59C585 293 585 293 580 293H501C496 293 496 293 496 288V229" /><path d="M496 229C496 224 496 224 501 224h79C585 224 585 224 585 229v59C585 293 585 293 580 293H501C496 293 496 293 496 288V229m0 0C496 224 496 224 501 224h79C585 224 585 224 585 229v59C585 293 585 293 580 293H501C496 293 496 293 496 288V229" /><rect x="496" y="224" width="89" height="69" /><text transform="matrix(1 0 0 1 520 233)" fill="#000000" font-weight="bold" stroke="none"><tspan dx="0 " x="0" y="9">monster</tspan></text><path fill="#DFDFDF" stroke="none" d="M17 400C17 395 17 395 22 395h79C106 395 106 395 106 400v59C106 464 106 464 101 464H22C17 464 17 464 17 459V400" /><path fill="#FFFFFF" stroke="none" d="M14 397C14 392 14 392 19 392H98C103 392 103 392 103 397v59C103 461 103 461 98 461H19C14 461 14 461 14 456V397" /><path d="M14 397C14 392 14 392 19 392H98C103 392 103 392 103 397v59C103 461 103 461 98 461H19C14 461 14 461 14 456V397m0 0C14 392 14 392 19 392H98C103 392 103 392 103 397v59C103 461 103 461 98 461H19C14 461 14 461 14 456V397" /><rect x="14" y="392" width="89" height="69" /><text transform="matrix(1 0 0 1 45 401)" fill="#000000" font-weight="bold" stroke="none"><tspan dx="0 " x="0" y="9">items</tspan></text><path fill="#DFDFDF" stroke="none" d="M17 549C17 544 17 544 22 544h79C106 544 106 544 106 549v59C106 613 106 613 101 613H22C17 613 17 613 17 608V549" /><path fill="#FFFFFF" stroke="none" d="M14 546C14 541 14 541 19 541H98C103 541 103 541 103 546v59C103 610 103 610 98 610H19C14 610 14 610 14 605V546" /><path d="M14 546C14 541 14 541 19 541H98C103 541 103 541 103 546v59C103 610 103 610 98 610H19C14 610 14 610 14 605V546m0 0C14 541 14 541 19 541H98C103 541 103 541 103 546v59C103 610 103 610 98 610H19C14 610 14 610 14 605V546" /><rect x="14" y="541" width="89" height="69" /><text transform="matrix(1 0 0 1 48 550)" fill="#000000" font-weight="bold" stroke="none"><tspan dx="0 " x="0" y="9">item</tspan></text><path fill="#DFDFDF" stroke="none" d="M123 400C123 395 123 395 128 395h79C212 395 212 395 212 400v59C212 464 212 464 207 464H128C123 464 123 464 123 459V400" /><path fill="#FFFFFF" stroke="none" d="M120 397C120 392 120 392 125 392h79C209 392 209 392 209 397v59C209 461 209 461 204 461H125C120 461 120 461 120 456V397" /><path d="M120 397C120 392 120 392 125 392h79C209 392 209 392 209 397v59C209 461 209 461 204 461H125C120 461 120 461 120 456V397m0 0C120 392 120 392 125 392h79C209 392 209 392 209 397v59C209 461 209 461 204 461H125C120 461 120 461 120 456V397" /><rect x="120" y="392" width="89" height="69" /><text transform="matrix(1 0 0 1 144 401)" fill="#000000" font-weight="bold" stroke="none"><tspan dx="0 " x="0" y="9">abilities</tspan></text><path fill="#DFDFDF" stroke="none" d="M123 549C123 544 123 544 128 544h79C212 544 212 544 212 549v59C212 613 212 613 207 613H128C123 613 123 613 123 608V549" /><path fill="#FFFFFF" stroke="none" d="M120 546C120 541 120 541 125 541h79C209 541 209 541 209 546v59C209 610 209 610 204 610H125C120 610 120 610 120 605V546" /><path d="M120 546C120 541 120 541 125 541h79C209 541 209 541 209 546v59C209 610 209 610 204 610H125C120 610 120 610 120 605V546m0 0C120 541 120 541 125 541h79C209 541 209 541 209 546v59C209 610 209 610 204 610H125C120 610 120 610 120 605V546" /><rect x="120" y="541" width="89" height="69" /><text transform="matrix(1 0 0 1 150 550)" fill="#000000" font-weight="bold" stroke="none"><tspan dx="0 " x="0" y="9">ability</tspan></text><path fill="#DFDFDF" stroke="none" d="M229 400C229 395 229 395 234 395h79C318 395 318 395 318 400v59C318 464 318 464 313 464H234C229 464 229 464 229 459V400" /><path fill="#FFFFFF" stroke="none" d="M226 397C226 392 226 392 231 392h79C315 392 315 392 315 397v59C315 461 315 461 310 461H231C226 461 226 461 226 456V397" /><path d="M226 397C226 392 226 392 231 392h79C315 392 315 392 315 397v59C315 461 315 461 310 461H231C226 461 226 461 226 456V397m0 0C226 392 226 392 231 392h79C315 392 315 392 315 397v59C315 461 315 461 310 461H231C226 461 226 461 226 456V397" /><rect x="226" y="392" width="89" height="69" /><text transform="matrix(1 0 0 1 255 401)" fill="#000000" font-weight="bold" stroke="none"><tspan dx="0 " x="0" y="9">spells</tspan></text><path fill="#DFDFDF" stroke="none" d="M229 548C229 543 229 543 234 543h79C318 543 318 543 318 548v59C318 612 318 612 313 612H234C229 612 229 612 229 607V548" /><path fill="#FFFFFF" stroke="none" d="M226 545C226 540 226 540 231 540h79C315 540 315 540 315 545v59C315 609 315 609 310 609H231C226 609 226 609 226 604V545" /><path d="M226 545C226 540 226 540 231 540h79C315 540 315 540 315 545v59C315 609 315 609 310 609H231C226 609 226 609 226 604V545m0 0C226 540 226 540 231 540h79C315 540 315 540 315 545v59C315 609 315 609 310 609H231C226 609 226 609 226 604V545" /><rect x="226" y="540" width="89" height="69" /><text transform="matrix(1 0 0 1 258 549)" fill="#000000" font-weight="bold" stroke="none"><tspan dx="0 " x="0" y="9">spell</tspan></text><path fill="#DFDFDF" stroke="none" d="M335 400C335 395 335 395 340 395h79C424 395 424 395 424 400V526C424 531 424 531 419 531H340C335 531 335 531 335 526V400" /><path fill="#D7FCCE" stroke="none" d="M332 397C332 392 332 392 337 392h79C421 392 421 392 421 397V523C421 528 421 528 416 528H337C332 528 332 528 332 523V397" /><path d="M332 397C332 392 332 392 337 392h79C421 392 421 392 421 397V523C421 528 421 528 416 528H337C332 528 332 528 332 523V397m0 0C332 392 332 392 337 392h79C421 392 421 392 421 397V523C421 528 421 528 416 528H337C332 528 332 528 332 523V397" /><rect x="332" y="392" width="89" height="136" /><text transform="matrix(1 0 0 1 345 398)" fill="#000000" stroke="none"><tspan dx="0 " x="0" y="9">«enumerati...</tspan></text><text transform="matrix(1 0 0 1 365 411)" fill="#000000" font-weight="bold" stroke="none"><tspan dx="0 " x="0" y="9">race</tspan></text><path d="M332 428h89" /><text transform="matrix(1 0 0 1 354 432)" fill="#3C3C3C" stroke="none"><tspan dx="0 " x="0" y="9">DRAGON</tspan></text><text transform="matrix(1 0 0 1 354 445)" fill="#3C3C3C" stroke="none"><tspan dx="0 " x="0" y="9">ANIMAL</tspan></text><text transform="matrix(1 0 0 1 354 458)" fill="#3C3C3C" stroke="none"><tspan dx="0 " x="0" y="9">INSECT</tspan></text><text transform="matrix(1 0 0 1 354 471)" fill="#3C3C3C" stroke="none"><tspan dx="0 " x="0" y="9">UNDEAD</tspan></text><text transform="matrix(1 0 0 1 354 484)" fill="#3C3C3C" stroke="none"><tspan dx="0 " x="0" y="9">HUMANOID</tspan></text><text transform="matrix(1 0 0 1 354 497)" fill="#3C3C3C" stroke="none"><tspan dx="0 " x="0" y="9">MYTHIC</tspan></text><text transform="matrix(1 0 0 1 354 510)" fill="#3C3C3C" stroke="none"><tspan dx="0 " x="0" y="9">OTHERS</tspan></text><path fill="#DFDFDF" stroke="none" d="M14 61C14 56 14 56 19 56H98C103 56 103 56 103 61v49C103 115 103 115 98 115H19C14 115 14 115 14 110V61" /><path fill="#FBF9C6" stroke="none" d="M11 58C11 53 11 53 16 53H95C100 53 100 53 100 58v49C100 112 100 112 95 112H16C11 112 11 112 11 107V58" /><path d="M11 58C11 53 11 53 16 53H95C100 53 100 53 100 58v49C100 112 100 112 95 112H16C11 112 11 112 11 107V58m0 0C11 53 11 53 16 53H95C100 53 100 53 100 58v49C100 112 100 112 95 112H16C11 112 11 112 11 107V58" /><rect x="11" y="53" width="89" height="59" /><text transform="matrix(1 0 0 1 29 59)" fill="#000000" stroke="none"><tspan dx="0 " x="0" y="9">«primitive»</tspan></text><text transform="matrix(1 0 0 1 35 72)" fill="#000000" font-weight="bold" stroke="none"><tspan dx="0 " x="0" y="9">viability</tspan></text><path fill="#DFDFDF" stroke="none" d="M222 61C222 56 222 56 227 56h79C311 56 311 56 311 61v49C311 115 311 115 306 115H227C222 115 222 115 222 110V61" /><path fill="#FBF9C6" stroke="none" d="M219 58C219 53 219 53 224 53h79C308 53 308 53 308 58v49C308 112 308 112 303 112H224C219 112 219 112 219 107V58" /><path d="M219 58C219 53 219 53 224 53h79C308 53 308 53 308 58v49C308 112 308 112 303 112H224C219 112 219 112 219 107V58m0 0C219 53 219 53 224 53h79C308 53 308 53 308 58v49C308 112 308 112 303 112H224C219 112 219 112 219 107V58" /><rect x="219" y="53" width="89" height="59" /><text transform="matrix(1 0 0 1 237 59)" fill="#000000" stroke="none"><tspan dx="0 " x="0" y="9">«primitive»</tspan></text><text transform="matrix(1 0 0 1 243 72)" fill="#000000" font-weight="bold" stroke="none"><tspan dx="0 " x="0" y="9">defense</tspan></text><path fill="#DFDFDF" stroke="none" d="M326 61C326 56 326 56 331 56h79C415 56 415 56 415 61v49C415 115 415 115 410 115H331C326 115 326 115 326 110V61" /><path fill="#FBF9C6" stroke="none" d="M323 58C323 53 323 53 328 53h79C412 53 412 53 412 58v49C412 112 412 112 407 112H328C323 112 323 112 323 107V58" /><path d="M323 58C323 53 323 53 328 53h79C412 53 412 53 412 58v49C412 112 412 112 407 112H328C323 112 323 112 323 107V58m0 0C323 53 323 53 328 53h79C412 53 412 53 412 58v49C412 112 412 112 407 112H328C323 112 323 112 323 107V58" /><rect x="323" y="53" width="89" height="59" /><text transform="matrix(1 0 0 1 341 59)" fill="#000000" stroke="none"><tspan dx="0 " x="0" y="9">«primitive»</tspan></text><text transform="matrix(1 0 0 1 341 72)" fill="#000000" font-weight="bold" stroke="none"><tspan dx="0 " x="0" y="9">endurance</tspan></text><path fill="#DFDFDF" stroke="none" d="M430 61C430 56 430 56 435 56h79C519 56 519 56 519 61v49C519 115 519 115 514 115H435C430 115 430 115 430 110V61" /><path fill="#FBF9C6" stroke="none" d="M427 58C427 53 427 53 432 53h79C516 53 516 53 516 58v49C516 112 516 112 511 112H432C427 112 427 112 427 107V58" /><path d="M427 58C427 53 427 53 432 53h79C516 53 516 53 516 58v49C516 112 516 112 511 112H432C427 112 427 112 427 107V58m0 0C427 53 427 53 432 53h79C516 53 516 53 516 58v49C516 112 516 112 511 112H432C427 112 427 112 427 107V58" /><rect x="427" y="53" width="89" height="59" /><text transform="matrix(1 0 0 1 445 59)" fill="#000000" stroke="none"><tspan dx="0 " x="0" y="9">«primitive»</tspan></text><text transform="matrix(1 0 0 1 447 72)" fill="#000000" font-weight="bold" stroke="none"><tspan dx="0 " x="0" y="9">pugnacity</tspan></text><path fill="#DFDFDF" stroke="none" d="M534 61C534 56 534 56 539 56h79C623 56 623 56 623 61v49C623 115 623 115 618 115H539C534 115 534 115 534 110V61" /><path fill="#FBF9C6" stroke="none" d="M531 58C531 53 531 53 536 53h79C620 53 620 53 620 58v49C620 112 620 112 615 112H536C531 112 531 112 531 107V58" /><path d="M531 58C531 53 531 53 536 53h79C620 53 620 53 620 58v49C620 112 620 112 615 112H536C531 112 531 112 531 107V58m0 0C531 53 531 53 536 53h79C620 53 620 53 620 58v49C620 112 620 112 615 112H536C531 112 531 112 531 107V58" /><rect x="531" y="53" width="89" height="59" /><text transform="matrix(1 0 0 1 549 59)" fill="#000000" stroke="none"><tspan dx="0 " x="0" y="9">«primitive»</tspan></text><text transform="matrix(1 0 0 1 556 72)" fill="#000000" font-weight="bold" stroke="none"><tspan dx="0 " x="0" y="9">mobility</tspan></text><path fill="#DFDFDF" stroke="none" d="M638 61C638 56 638 56 643 56h79C727 56 727 56 727 61v49C727 115 727 115 722 115H643C638 115 638 115 638 110V61" /><path fill="#FBF9C6" stroke="none" d="M635 58C635 53 635 53 640 53h79C724 53 724 53 724 58v49C724 112 724 112 719 112H640C635 112 635 112 635 107V58" /><path d="M635 58C635 53 635 53 640 53h79C724 53 724 53 724 58v49C724 112 724 112 719 112H640C635 112 635 112 635 107V58m0 0C635 53 635 53 640 53h79C724 53 724 53 724 58v49C724 112 724 112 719 112H640C635 112 635 112 635 107V58" /><rect x="635" y="53" width="89" height="59" /><text transform="matrix(1 0 0 1 653 59)" fill="#000000" stroke="none"><tspan dx="0 " x="0" y="9">«primitive»</tspan></text><text transform="matrix(1 0 0 1 644 72)" fill="#000000" font-weight="bold" stroke="none"><tspan dx="0 " x="0" y="9">perseverance</tspan></text><path fill="#DFDFDF" stroke="none" d="M742 61C742 56 742 56 747 56h79C831 56 831 56 831 61v49C831 115 831 115 826 115H747C742 115 742 115 742 110V61" /><path fill="#FBF9C6" stroke="none" d="M739 58C739 53 739 53 744 53h79C828 53 828 53 828 58v49C828 112 828 112 823 112H744C739 112 739 112 739 107V58" /><path d="M739 58C739 53 739 53 744 53h79C828 53 828 53 828 58v49C828 112 828 112 823 112H744C739 112 739 112 739 107V58m0 0C739 53 739 53 744 53h79C828 53 828 53 828 58v49C828 112 828 112 823 112H744C739 112 739 112 739 107V58" /><rect x="739" y="53" width="89" height="59" /><text transform="matrix(1 0 0 1 757 59)" fill="#000000" stroke="none"><tspan dx="0 " x="0" y="9">«primitive»</tspan></text><text transform="matrix(1 0 0 1 756 72)" fill="#000000" font-weight="bold" stroke="none"><tspan dx="0 " x="0" y="9">inteligence</tspan></text><path fill="#DFDFDF" stroke="none" d="M870 111C870 106 870 106 875 106h79C959 106 959 106 959 111v49C959 165 959 165 954 165H875C870 165 870 165 870 160V111" /><path fill="#FBF9C6" stroke="none" d="M867 108C867 103 867 103 872 103h79C956 103 956 103 956 108v49C956 162 956 162 951 162H872C867 162 867 162 867 157V108" /><path d="M867 108C867 103 867 103 872 103h79C956 103 956 103 956 108v49C956 162 956 162 951 162H872C867 162 867 162 867 157V108m0 0C867 103 867 103 872 103h79C956 103 956 103 956 108v49C956 162 956 162 951 162H872C867 162 867 162 867 157V108" /><rect x="867" y="103" width="89" height="59" /><text transform="matrix(1 0 0 1 885 109)" fill="#000000" stroke="none"><tspan dx="0 " x="0" y="9">«primitive»</tspan></text><text transform="matrix(1 0 0 1 888 122)" fill="#000000" font-weight="bold" stroke="none"><tspan dx="0 " x="0" y="9">charisma</tspan></text><path fill="#DFDFDF" stroke="none" d="M870 186C870 181 870 181 875 181h79C959 181 959 181 959 186v49C959 240 959 240 954 240H875C870 240 870 240 870 235V186" /><path fill="#FBF9C6" stroke="none" d="M867 183C867 178 867 178 872 178h79C956 178 956 178 956 183v49C956 237 956 237 951 237H872C867 237 867 237 867 232V183" /><path d="M867 183C867 178 867 178 872 178h79C956 178 956 178 956 183v49C956 237 956 237 951 237H872C867 237 867 237 867 232V183m0 0C867 178 867 178 872 178h79C956 178 956 178 956 183v49C956 237 956 237 951 237H872C867 237 867 237 867 232V183" /><rect x="867" y="178" width="89" height="59" /><text transform="matrix(1 0 0 1 885 184)" fill="#000000" stroke="none"><tspan dx="0 " x="0" y="9">«primitive»</tspan></text><text transform="matrix(1 0 0 1 883 197)" fill="#000000" font-weight="bold" stroke="none"><tspan dx="0 " x="0" y="9">experience</tspan></text><path fill="#DFDFDF" stroke="none" d="M770 400C770 395 770 395 775 395h79C859 395 859 395 859 400v49C859 454 859 454 854 454H775C770 454 770 454 770 449V400" /><path fill="#FBF9C6" stroke="none" d="M767 397C767 392 767 392 772 392h79C856 392 856 392 856 397v49C856 451 856 451 851 451H772C767 451 767 451 767 446V397" /><path d="M767 397C767 392 767 392 772 392h79C856 392 856 392 856 397v49C856 451 856 451 851 451H772C767 451 767 451 767 446V397m0 0C767 392 767 392 772 392h79C856 392 856 392 856 397v49C856 451 856 451 851 451H772C767 451 767 451 767 446V397" /><rect x="767" y="392" width="89" height="59" /><text transform="matrix(1 0 0 1 783 398)" fill="#000000" stroke="none"><tspan dx="0 " x="0" y="9">«dataType»</tspan></text><text transform="matrix(1 0 0 1 798 411)" fill="#000000" font-weight="bold" stroke="none"><tspan dx="0 " x="0" y="9">name</tspan></text><path d="M767 428h89" /><text transform="matrix(1 0 0 1 772 432)" fill="#3C3C3C" stroke="none"><tspan dx="0 " x="0" y="9">- </tspan></text><text transform="matrix(1 0 0 1 789 432)" fill="#3C3C3C" stroke="none"><tspan dx="0 " x="0" y="9">lang: text</tspan></text><path fill="#DFDFDF" stroke="none" d="M664 400C664 395 664 395 669 395h79C753 395 753 395 753 400v49C753 454 753 454 748 454H669C664 454 664 454 664 449V400" /><path fill="#FBF9C6" stroke="none" d="M661 397C661 392 661 392 666 392h79C750 392 750 392 750 397v49C750 451 750 451 745 451H666C661 451 661 451 661 446V397" /><path d="M661 397C661 392 661 392 666 392h79C750 392 750 392 750 397v49C750 451 750 451 745 451H666C661 451 661 451 661 446V397m0 0C661 392 661 392 666 392h79C750 392 750 392 750 397v49C750 451 750 451 745 451H666C661 451 661 451 661 446V397" /><rect x="661" y="392" width="89" height="59" /><text transform="matrix(1 0 0 1 677 398)" fill="#000000" stroke="none"><tspan dx="0 " x="0" y="9">«dataType»</tspan></text><text transform="matrix(1 0 0 1 677 411)" fill="#000000" font-weight="bold" stroke="none"><tspan dx="0 " x="0" y="9">description</tspan></text><path d="M661 428h89" /><text transform="matrix(1 0 0 1 666 432)" fill="#3C3C3C" stroke="none"><tspan dx="0 " x="0" y="9">- </tspan></text><text transform="matrix(1 0 0 1 683 432)" fill="#3C3C3C" stroke="none"><tspan dx="0 " x="0" y="9">lang: text</tspan></text><path fill="#DFDFDF" stroke="none" d="M876 400C876 395 876 395 881 395h79C965 395 965 395 965 400v49C965 454 965 454 960 454H881C876 454 876 454 876 449V400" /><path fill="#FBF9C6" stroke="none" d="M873 397C873 392 873 392 878 392h79C962 392 962 392 962 397v49C962 451 962 451 957 451H878C873 451 873 451 873 446V397" /><path d="M873 397C873 392 873 392 878 392h79C962 392 962 392 962 397v49C962 451 962 451 957 451H878C873 451 873 451 873 446V397m0 0C873 392 873 392 878 392h79C962 392 962 392 962 397v49C962 451 962 451 957 451H878C873 451 873 451 873 446V397" /><rect x="873" y="392" width="89" height="59" /><text transform="matrix(1 0 0 1 891 398)" fill="#000000" stroke="none"><tspan dx="0 " x="0" y="9">«primitive»</tspan></text><text transform="matrix(1 0 0 1 913 411)" fill="#000000" font-weight="bold" stroke="none"><tspan dx="0 " x="0" y="9">id</tspan></text></g><g transform="matrix(0.958838 0 0 0.959795 0 0)" font-family="SegoeUIUnicode" font-size="10"><text transform="matrix(1 0 0 -1 0 0)" fill="#000000" stroke="none"><tspan dx="0 " x="526" y="273">ROOT</tspan></text></g><g transform="matrix(0.958838 0 0 -0.959795 0 0)" font-family="ArialUnicode" font-size="10"><path fill="#DFDFDF" stroke="none" d="M441 400C441 395 441 395 446 395h79C530 395 530 395 530 400V513C530 518 530 518 525 518H446C441 518 441 518 441 513V400" /><path fill="#D7FCCE" stroke="none" d="M438 397C438 392 438 392 443 392h79C527 392 527 392 527 397V510C527 515 527 515 522 515H443C438 515 438 515 438 510V397" /><path d="M438 397C438 392 438 392 443 392h79C527 392 527 392 527 397V510C527 515 527 515 522 515H443C438 515 438 515 438 510V397m0 0C438 392 438 392 443 392h79C527 392 527 392 527 397V510C527 515 527 515 522 515H443C438 515 438 515 438 510V397" /><rect x="438" y="392" width="89" height="123" /><text transform="matrix(1 0 0 1 451 398)" fill="#000000" stroke="none"><tspan dx="0 " x="0" y="9">«enumerati...</tspan></text><text transform="matrix(1 0 0 1 472 411)" fill="#000000" font-weight="bold" stroke="none"><tspan dx="0 " x="0" y="9">size</tspan></text><path d="M438 428h89" /><text transform="matrix(1 0 0 1 460 432)" fill="#3C3C3C" stroke="none"><tspan dx="0 " x="0" y="9">A0</tspan></text><text transform="matrix(1 0 0 1 460 445)" fill="#3C3C3C" stroke="none"><tspan dx="0 " x="0" y="9">A</tspan></text><text transform="matrix(1 0 0 1 460 458)" fill="#3C3C3C" stroke="none"><tspan dx="0 " x="0" y="9">B</tspan></text><text transform="matrix(1 0 0 1 460 471)" fill="#3C3C3C" stroke="none"><tspan dx="0 " x="0" y="9">C</tspan></text><text transform="matrix(1 0 0 1 460 484)" fill="#3C3C3C" stroke="none"><tspan dx="0 " x="0" y="9">D</tspan></text><text transform="matrix(1 0 0 1 460 497)" fill="#3C3C3C" stroke="none"><tspan dx="0 " x="0" y="9">E</tspan></text><path fill="#DFDFDF" stroke="none" d="M870 274C870 269 870 269 875 269h79C959 269 959 269 959 274v49C959 328 959 328 954 328H875C870 328 870 328 870 323V274" /><path fill="#FBF9C6" stroke="none" d="M867 271C867 266 867 266 872 266h79C956 266 956 266 956 271v49C956 325 956 325 951 325H872C867 325 867 325 867 320V271" /><path d="M867 271C867 266 867 266 872 266h79C956 266 956 266 956 271v49C956 325 956 325 951 325H872C867 325 867 325 867 320V271m0 0C867 266 867 266 872 266h79C956 266 956 266 956 271v49C956 325 956 325 951 325H872C867 325 867 325 867 320V271" /><rect x="867" y="266" width="89" height="59" /><text transform="matrix(1 0 0 1 885 272)" fill="#000000" stroke="none"><tspan dx="0 " x="0" y="9">«primitive»</tspan></text><text transform="matrix(1 0 0 1 904 285)" fill="#000000" font-weight="bold" stroke="none"><tspan dx="0 " x="0" y="9">HP</tspan></text><path fill="#DFDFDF" stroke="none" d="M547 400C547 395 547 395 552 395h97C654 395 654 395 654 400V500C654 505 654 505 649 505H552C547 505 547 505 547 500V400" /><path fill="#D7FCCE" stroke="none" d="M544 397C544 392 544 392 549 392h97C651 392 651 392 651 397V497C651 502 651 502 646 502H549C544 502 544 502 544 497V397" /><path d="M544 397C544 392 544 392 549 392h97C651 392 651 392 651 397V497C651 502 651 502 646 502H549C544 502 544 502 544 497V397m0 0C544 392 544 392 549 392h97C651 392 651 392 651 397V497C651 502 651 502 646 502H549C544 502 544 502 544 497V397" /><rect x="544" y="392" width="107" height="110" /><text transform="matrix(1 0 0 1 562 398)" fill="#000000" stroke="none"><tspan dx="0 " x="0" y="9">«enumeration»</tspan></text><text transform="matrix(1 0 0 1 573 411)" fill="#000000" font-weight="bold" stroke="none"><tspan dx="0 " x="0" y="9">alignment</tspan></text><path d="M544 428H651" /><text transform="matrix(1 0 0 1 566 432)" fill="#3C3C3C" stroke="none"><tspan dx="0 " x="0" y="9">LAWFUL_GOOD</tspan></text><text transform="matrix(1 0 0 1 566 445)" fill="#3C3C3C" stroke="none"><tspan dx="0 " x="0" y="9">CHAOTIC_GOOD</tspan></text><text transform="matrix(1 0 0 1 566 458)" fill="#3C3C3C" stroke="none"><tspan dx="0 " x="0" y="9">NEUTRAL</tspan></text><text transform="matrix(1 0 0 1 566 471)" fill="#3C3C3C" stroke="none"><tspan dx="0 " x="0" y="9">CHAOTIC_EVIL</tspan></text><text transform="matrix(1 0 0 1 566 484)" fill="#3C3C3C" stroke="none"><tspan dx="0 " x="0" y="9">LAWFUL_EVIL</tspan></text><path fill="#DFDFDF" stroke="none" d="M118 61C118 56 118 56 123 56h79C207 56 207 56 207 61v49C207 115 207 115 202 115H123C118 115 118 115 118 110V61" /><path fill="#FBF9C6" stroke="none" d="M115 58C115 53 115 53 120 53h79C204 53 204 53 204 58v49C204 112 204 112 199 112H120C115 112 115 112 115 107V58" /><path d="M115 58C115 53 115 53 120 53h79C204 53 204 53 204 58v49C204 112 204 112 199 112H120C115 112 115 112 115 107V58m0 0C115 53 115 53 120 53h79C204 53 204 53 204 58v49C204 112 204 112 199 112H120C115 112 115 112 115 107V58" /><rect x="115" y="53" width="89" height="59" /><text transform="matrix(1 0 0 1 131 59)" fill="#000000" stroke="none"><tspan dx="0 " x="0" y="9">«dataType»</tspan></text><text transform="matrix(1 0 0 1 141 72)" fill="#000000" font-weight="bold" stroke="none"><tspan dx="0 " x="0" y="9">offense</tspan></text><path d="M586 258H817m0 0V133m0 0h50" /><path d="M540 294v48m0 0H59m0 0v50" /><path d="M165 342v50" /><path d="M541 294v48m0 0H271m0 0v50" /><path d="M377 342v50" /><path d="M541 224V163m0 0H56m0 0V113" /><path d="M540 224V163" /><path d="M264 163V113" /><path d="M368 163V113" /><path d="M472 163V113" /><path d="M576 163V113" /><path d="M541 342H918m0 0v50" /><path d="M540 163H784m0 0V113" /><path d="M271 462v78" /><path d="M817 208h50" /><path d="M812 342v50" /><path d="M706 342v50" /><path d="M483 342v50" /><path d="M586 259H817m0 0v37m0 0h50" /><path d="M598 342v50" /><path d="M160 163V113" /><path d="M59 462v79" /><path d="M165 462v79" /><path d="M680 163V113" /><g transform="matrix(1 0 0 -1 923 376)"><rect fill="#FFFFFF" stroke="none" x="0" width="19" y="-11" height="11" /></g><text transform="matrix(1 0 0 1 923 376)" fill="#000000" stroke="none"><tspan dx="0 " x="0" y="9">0..1</tspan></text><g transform="matrix(1 0 0 -1 857 137)"><rect fill="#FFFFFF" stroke="none" x="0" width="6" y="-11" height="11" /></g><text transform="matrix(1 0 0 1 857 137)" fill="#000000" stroke="none"><tspan dx="0 " x="0" y="9">1</tspan></text><g transform="matrix(1 0 0 -1 479 116)"><rect fill="#FFFFFF" stroke="none" x="0" width="6" y="-11" height="11" /></g><text transform="matrix(1 0 0 1 479 116)" fill="#000000" stroke="none"><tspan dx="0 " x="0" y="9">1</tspan></text><g transform="matrix(1 0 0 -1 279 467)"><rect fill="#FFFFFF" stroke="none" x="0" width="6" y="-11" height="11" /></g><text transform="matrix(1 0 0 1 279 467)" fill="#000000" stroke="none"><tspan dx="0 " x="0" y="9">1</tspan></text><g transform="matrix(1 0 0 -1 279 522)"><rect fill="#FFFFFF" stroke="none" x="0" width="17" y="-11" height="11" /></g><text transform="matrix(1 0 0 1 279 522)" fill="#000000" stroke="none"><tspan dx="0 " x="0" y="9">0..*</tspan></text><g transform="matrix(1 0 0 -1 494 374)"><rect fill="#FFFFFF" stroke="none" x="0" width="6" y="-11" height="11" /></g><text transform="matrix(1 0 0 1 494 374)" fill="#000000" stroke="none"><tspan dx="0 " x="0" y="9">1</tspan></text><g transform="matrix(1 0 0 -1 173 467)"><rect fill="#FFFFFF" stroke="none" x="0" width="6" y="-11" height="11" /></g><text transform="matrix(1 0 0 1 173 467)" fill="#000000" stroke="none"><tspan dx="0 " x="0" y="9">1</tspan></text><g transform="matrix(1 0 0 -1 173 523)"><rect fill="#FFFFFF" stroke="none" x="0" width="17" y="-11" height="11" /></g><text transform="matrix(1 0 0 1 173 523)" fill="#000000" stroke="none"><tspan dx="0 " x="0" y="9">0..*</tspan></text><g transform="matrix(1 0 0 -1 72 374)"><rect fill="#FFFFFF" stroke="none" x="0" width="19" y="-11" height="11" /></g><text transform="matrix(1 0 0 1 72 374)" fill="#000000" stroke="none"><tspan dx="0 " x="0" y="9">0..1</tspan></text><g transform="matrix(1 0 0 -1 856 186)"><rect fill="#FFFFFF" stroke="none" x="0" width="6" y="-11" height="11" /></g><text transform="matrix(1 0 0 1 856 186)" fill="#000000" stroke="none"><tspan dx="0 " x="0" y="9">1</tspan></text><g transform="matrix(1 0 0 -1 274 115)"><rect fill="#FFFFFF" stroke="none" x="0" width="6" y="-11" height="11" /></g><text transform="matrix(1 0 0 1 274 115)" fill="#000000" stroke="none"><tspan dx="0 " x="0" y="9">1</tspan></text><g transform="matrix(1 0 0 -1 67 467)"><rect fill="#FFFFFF" stroke="none" x="0" width="6" y="-11" height="11" /></g><text transform="matrix(1 0 0 1 67 467)" fill="#000000" stroke="none"><tspan dx="0 " x="0" y="9">1</tspan></text><g transform="matrix(1 0 0 -1 67 523)"><rect fill="#FFFFFF" stroke="none" x="0" width="17" y="-11" height="11" /></g><text transform="matrix(1 0 0 1 67 523)" fill="#000000" stroke="none"><tspan dx="0 " x="0" y="9">0..*</tspan></text><g transform="matrix(1 0 0 -1 580 117)"><rect fill="#FFFFFF" stroke="none" x="0" width="6" y="-11" height="11" /></g><text transform="matrix(1 0 0 1 580 117)" fill="#000000" stroke="none"><tspan dx="0 " x="0" y="9">1</tspan></text><g transform="matrix(1 0 0 -1 602 377)"><rect fill="#FFFFFF" stroke="none" x="0" width="6" y="-11" height="11" /></g><text transform="matrix(1 0 0 1 602 377)" fill="#000000" stroke="none"><tspan dx="0 " x="0" y="9">1</tspan></text><g transform="matrix(1 0 0 -1 62 115)"><rect fill="#FFFFFF" stroke="none" x="0" width="6" y="-11" height="11" /></g><text transform="matrix(1 0 0 1 62 115)" fill="#000000" stroke="none"><tspan dx="0 " x="0" y="9">1</tspan></text><g transform="matrix(1 0 0 -1 856 281)"><rect fill="#FFFFFF" stroke="none" x="0" width="6" y="-11" height="11" /></g><text transform="matrix(1 0 0 1 856 281)" fill="#000000" stroke="none"><tspan dx="0 " x="0" y="9">1</tspan></text><g transform="matrix(1 0 0 -1 714 372)"><rect fill="#FFFFFF" stroke="none" x="0" width="17" y="-11" height="11" /></g><text transform="matrix(1 0 0 1 714 372)" fill="#000000" stroke="none"><tspan dx="0 " x="0" y="9">1..*</tspan></text><g transform="matrix(1 0 0 -1 375 117)"><rect fill="#FFFFFF" stroke="none" x="0" width="6" y="-11" height="11" /></g><text transform="matrix(1 0 0 1 375 117)" fill="#000000" stroke="none"><tspan dx="0 " x="0" y="9">1</tspan></text><g transform="matrix(1 0 0 -1 686 121)"><rect fill="#FFFFFF" stroke="none" x="0" width="6" y="-11" height="11" /></g><text transform="matrix(1 0 0 1 686 121)" fill="#000000" stroke="none"><tspan dx="0 " x="0" y="9">1</tspan></text><g transform="matrix(1 0 0 -1 549 207)"><rect fill="#FFFFFF" stroke="none" x="0" width="6" y="-11" height="11" /></g><text transform="matrix(1 0 0 1 549 207)" fill="#000000" stroke="none"><tspan dx="0 " x="0" y="9">1</tspan></text><g transform="matrix(1 0 0 -1 176 374)"><rect fill="#FFFFFF" stroke="none" x="0" width="19" y="-11" height="11" /></g><text transform="matrix(1 0 0 1 176 374)" fill="#000000" stroke="none"><tspan dx="0 " x="0" y="9">0..1</tspan></text><g transform="matrix(1 0 0 -1 546 305)"><rect fill="#FFFFFF" stroke="none" x="0" width="6" y="-11" height="11" /></g><text transform="matrix(1 0 0 1 546 305)" fill="#000000" stroke="none"><tspan dx="0 " x="0" y="9">1</tspan></text><g transform="matrix(1 0 0 -1 818 374)"><rect fill="#FFFFFF" stroke="none" x="0" width="17" y="-11" height="11" /></g><text transform="matrix(1 0 0 1 818 374)" fill="#000000" stroke="none"><tspan dx="0 " x="0" y="9">1..*</tspan></text><g transform="matrix(1 0 0 -1 790 118)"><rect fill="#FFFFFF" stroke="none" x="0" width="6" y="-11" height="11" /></g><text transform="matrix(1 0 0 1 790 118)" fill="#000000" stroke="none"><tspan dx="0 " x="0" y="9">1</tspan></text><g transform="matrix(1 0 0 -1 164 117)"><rect fill="#FFFFFF" stroke="none" x="0" width="6" y="-11" height="11" /></g><text transform="matrix(1 0 0 1 164 117)" fill="#000000" stroke="none"><tspan dx="0 " x="0" y="9">1</tspan></text><g transform="matrix(1 0 0 -1 274 376)"><rect fill="#FFFFFF" stroke="none" x="0" width="19" y="-11" height="11" /></g><text transform="matrix(1 0 0 1 274 376)" fill="#000000" stroke="none"><tspan dx="0 " x="0" y="9">0..1</tspan></text><g transform="matrix(1 0 0 -1 384 375)"><rect fill="#FFFFFF" stroke="none" x="0" width="6" y="-11" height="11" /></g><text transform="matrix(1 0 0 1 384 375)" fill="#000000" stroke="none"><tspan dx="0 " x="0" y="9">1</tspan></text></g></g></g></g></svg>