<?xml version="1.0" encoding="utf-8"?><svg version="1.1" preserveAspectRatio="xMidYMid" xml:space="preserve" width="898.3706870000001pt" height="419.11388pt" viewBox="-0.08958699999999986 29.501820000000002 898.3706870000001 419.11388" xmlns="http://www.w3.org/2000/svg" xmlns:xlink="http://www.w3.org/1999/xlink"><g transform="matrix(1 0 0 -1 0 841)"><g stroke="#000000" fill="none" fill-rule="evenodd" stroke-width="1" stroke-linecap="round" stroke-linejoin="round" stroke-miterlimit="3" letter-spacing="normal" font-weight="normal" font-style="normal" baseline-shift="0"><g transform="matrix(0.75 0 0 0.75 0 841.650024)"><g transform="matrix(0.958838 0 0 -0.959795 0 0)" font-family="ArialUnicode" font-size="10"><path fill="#DFDFDF" stroke="none" d="M683 232C683 227 683 227 688 227h79C772 227 772 227 772 232v59C772 296 772 296 767 296H688C683 296 683 296 683 291V232" /><path fill="#FFFFFF" stroke="none" d="M680 229C680 224 680 224 685 224h79C769 224 769 224 769 229v59C769 293 769 293 764 293H685C680 293 680 293 680 288V229" /><path d="M680 229C680 224 680 224 685 224h79C769 224 769 224 769 229v59C769 293 769 293 764 293H685C680 293 680 293 680 288V229m0 0C680 224 680 224 685 224h79C769 224 769 224 769 229v59C769 293 769 293 764 293H685C680 293 680 293 680 288V229" /><rect x="680" y="224" width="89" height="69" /><text transform="matrix(1 0 0 1 704 233)" fill="#000000" font-weight="bold" stroke="none"><tspan dx="0 " x="0" y="9">monster</tspan></text><path fill="#DFDFDF" stroke="none" d="M210 400C210 395 210 395 215 395h79C299 395 299 395 299 400v59C299 464 299 464 294 464H215C210 464 210 464 210 459V400" /><path fill="#FFFFFF" stroke="none" d="M207 397C207 392 207 392 212 392h79C296 392 296 392 296 397v59C296 461 296 461 291 461H212C207 461 207 461 207 456V397" /><path d="M207 397C207 392 207 392 212 392h79C296 392 296 392 296 397v59C296 461 296 461 291 461H212C207 461 207 461 207 456V397m0 0C207 392 207 392 212 392h79C296 392 296 392 296 397v59C296 461 296 461 291 461H212C207 461 207 461 207 456V397" /><rect x="207" y="392" width="89" height="69" /><text transform="matrix(1 0 0 1 238 401)" fill="#000000" font-weight="bold" stroke="none"><tspan dx="0 " x="0" y="9">items</tspan></text><path fill="#DFDFDF" stroke="none" d="M210 549C210 544 210 544 215 544h79C299 544 299 544 299 549v59C299 613 299 613 294 613H215C210 613 210 613 210 608V549" /><path fill="#FFFFFF" stroke="none" d="M207 546C207 541 207 541 212 541h79C296 541 296 541 296 546v59C296 610 296 610 291 610H212C207 610 207 610 207 605V546" /><path d="M207 546C207 541 207 541 212 541h79C296 541 296 541 296 546v59C296 610 296 610 291 610H212C207 610 207 610 207 605V546m0 0C207 541 207 541 212 541h79C296 541 296 541 296 546v59C296 610 296 610 291 610H212C207 610 207 610 207 605V546" /><rect x="207" y="541" width="89" height="69" /><text transform="matrix(1 0 0 1 241 550)" fill="#000000" font-weight="bold" stroke="none"><tspan dx="0 " x="0" y="9">item</tspan></text><path fill="#DFDFDF" stroke="none" d="M316 400C316 395 316 395 321 395h79C405 395 405 395 405 400v59C405 464 405 464 400 464H321C316 464 316 464 316 459V400" /><path fill="#FFFFFF" stroke="none" d="M313 397C313 392 313 392 318 392h79C402 392 402 392 402 397v59C402 461 402 461 397 461H318C313 461 313 461 313 456V397" /><path d="M313 397C313 392 313 392 318 392h79C402 392 402 392 402 397v59C402 461 402 461 397 461H318C313 461 313 461 313 456V397m0 0C313 392 313 392 318 392h79C402 392 402 392 402 397v59C402 461 402 461 397 461H318C313 461 313 461 313 456V397" /><rect x="313" y="392" width="89" height="69" /><text transform="matrix(1 0 0 1 337 401)" fill="#000000" font-weight="bold" stroke="none"><tspan dx="0 " x="0" y="9">abilities</tspan></text><path fill="#DFDFDF" stroke="none" d="M316 549C316 544 316 544 321 544h79C405 544 405 544 405 549v59C405 613 405 613 400 613H321C316 613 316 613 316 608V549" /><path fill="#FFFFFF" stroke="none" d="M313 546C313 541 313 541 318 541h79C402 541 402 541 402 546v59C402 610 402 610 397 610H318C313 610 313 610 313 605V546" /><path d="M313 546C313 541 313 541 318 541h79C402 541 402 541 402 546v59C402 610 402 610 397 610H318C313 610 313 610 313 605V546m0 0C313 541 313 541 318 541h79C402 541 402 541 402 546v59C402 610 402 610 397 610H318C313 610 313 610 313 605V546" /><rect x="313" y="541" width="89" height="69" /><text transform="matrix(1 0 0 1 343 550)" fill="#000000" font-weight="bold" stroke="none"><tspan dx="0 " x="0" y="9">ability</tspan></text><path fill="#DFDFDF" stroke="none" d="M422 400C422 395 422 395 427 395h79C511 395 511 395 511 400v59C511 464 511 464 506 464H427C422 464 422 464 422 459V400" /><path fill="#FFFFFF" stroke="none" d="M419 397C419 392 419 392 424 392h79C508 392 508 392 508 397v59C508 461 508 461 503 461H424C419 461 419 461 419 456V397" /><path d="M419 397C419 392 419 392 424 392h79C508 392 508 392 508 397v59C508 461 508 461 503 461H424C419 461 419 461 419 456V397m0 0C419 392 419 392 424 392h79C508 392 508 392 508 397v59C508 461 508 461 503 461H424C419 461 419 461 419 456V397" /><rect x="419" y="392" width="89" height="69" /><text transform="matrix(1 0 0 1 448 401)" fill="#000000" font-weight="bold" stroke="none"><tspan dx="0 " x="0" y="9">spells</tspan></text><path fill="#DFDFDF" stroke="none" d="M422 548C422 543 422 543 427 543h79C511 543 511 543 511 548v59C511 612 511 612 506 612H427C422 612 422 612 422 607V548" /><path fill="#FFFFFF" stroke="none" d="M419 545C419 540 419 540 424 540h79C508 540 508 540 508 545v59C508 609 508 609 503 609H424C419 609 419 609 419 604V545" /><path d="M419 545C419 540 419 540 424 540h79C508 540 508 540 508 545v59C508 609 508 609 503 609H424C419 609 419 609 419 604V545m0 0C419 540 419 540 424 540h79C508 540 508 540 508 545v59C508 609 508 609 503 609H424C419 609 419 609 419 604V545" /><rect x="419" y="540" width="89" height="69" /><text transform="matrix(1 0 0 1 451 549)" fill="#000000" font-weight="bold" stroke="none"><tspan dx="0 " x="0" y="9">spell</tspan></text><path fill="#DFDFDF" stroke="none" d="M528 400C528 395 528 395 533 395h79C617 395 617 395 617 400V526C617 531 617 531 612 531H533C528 531 528 531 528 526V400" /><path fill="#D7FCCE" stroke="none" d="M525 397C525 392 525 392 530 392h79C614 392 614 392 614 397V523C614 528 614 528 609 528H530C525 528 525 528 525 523V397" /><path d="M525 397C525 392 525 392 530 392h79C614 392 614 392 614 397V523C614 528 614 528 609 528H530C525 528 525 528 525 523V397m0 0C525 392 525 392 530 392h79C614 392 614 392 614 397V523C614 528 614 528 609 528H530C525 528 525 528 525 523V397" /><rect x="525" y="392" width="89" height="136" /><text transform="matrix(1 0 0 1 538 398)" fill="#000000" stroke="none"><tspan dx="0 " x="0" y="9">«enumerati...</tspan></text><text transform="matrix(1 0 0 1 558 411)" fill="#000000" font-weight="bold" stroke="none"><tspan dx="0 " x="0" y="9">race</tspan></text><path d="M525 428h89" /><text transform="matrix(1 0 0 1 547 432)" fill="#3C3C3C" stroke="none"><tspan dx="0 " x="0" y="9">DRAGON</tspan></text><text transform="matrix(1 0 0 1 547 445)" fill="#3C3C3C" stroke="none"><tspan dx="0 " x="0" y="9">ANIMAL</tspan></text><text transform="matrix(1 0 0 1 547 458)" fill="#3C3C3C" stroke="none"><tspan dx="0 " x="0" y="9">INSECT</tspan></text><text transform="matrix(1 0 0 1 547 471)" fill="#3C3C3C" stroke="none"><tspan dx="0 " x="0" y="9">UNDEAD</tspan></text><text transform="matrix(1 0 0 1 547 484)" fill="#3C3C3C" stroke="none"><tspan dx="0 " x="0" y="9">HUMANOID</tspan></text><text transform="matrix(1 0 0 1 547 497)" fill="#3C3C3C" stroke="none"><tspan dx="0 " x="0" y="9">MYTHIC</tspan></text><text transform="matrix(1 0 0 1 547 510)" fill="#3C3C3C" stroke="none"><tspan dx="0 " x="0" y="9">OTHERS</tspan></text><path fill="#DFDFDF" stroke="none" d="M14 61C14 56 14 56 19 56H98C103 56 103 56 103 61v49C103 115 103 115 98 115H19C14 115 14 115 14 110V61" /><path fill="#FBF9C6" stroke="none" d="M11 58C11 53 11 53 16 53H95C100 53 100 53 100 58v49C100 112 100 112 95 112H16C11 112 11 112 11 107V58" /><path d="M11 58C11 53 11 53 16 53H95C100 53 100 53 100 58v49C100 112 100 112 95 112H16C11 112 11 112 11 107V58m0 0C11 53 11 53 16 53H95C100 53 100 53 100 58v49C100 112 100 112 95 112H16C11 112 11 112 11 107V58" /><rect x="11" y="53" width="89" height="59" /><text transform="matrix(1 0 0 1 29 59)" fill="#000000" stroke="none"><tspan dx="0 " x="0" y="9">«primitive»</tspan></text><text transform="matrix(1 0 0 1 35 72)" fill="#000000" font-weight="bold" stroke="none"><tspan dx="0 " x="0" y="9">viability</tspan></text><path fill="#DFDFDF" stroke="none" d="M115 61C115 56 115 56 120 56h79C204 56 204 56 204 61v49C204 115 204 115 199 115H120C115 115 115 115 115 110V61" /><path fill="#FBF9C6" stroke="none" d="M112 58C112 53 112 53 117 53h79C201 53 201 53 201 58v49C201 112 201 112 196 112H117C112 112 112 112 112 107V58" /><path d="M112 58C112 53 112 53 117 53h79C201 53 201 53 201 58v49C201 112 201 112 196 112H117C112 112 112 112 112 107V58m0 0C112 53 112 53 117 53h79C201 53 201 53 201 58v49C201 112 201 112 196 112H117C112 112 112 112 112 107V58" /><rect x="112" y="53" width="89" height="59" /><text transform="matrix(1 0 0 1 130 59)" fill="#000000" stroke="none"><tspan dx="0 " x="0" y="9">«primitive»</tspan></text><text transform="matrix(1 0 0 1 141 72)" fill="#000000" font-weight="bold" stroke="none"><tspan dx="0 " x="0" y="9">offens</tspan></text><path fill="#DFDFDF" stroke="none" d="M216 61C216 56 216 56 221 56h79C305 56 305 56 305 61v49C305 115 305 115 300 115H221C216 115 216 115 216 110V61" /><path fill="#FBF9C6" stroke="none" d="M213 58C213 53 213 53 218 53h79C302 53 302 53 302 58v49C302 112 302 112 297 112H218C213 112 213 112 213 107V58" /><path d="M213 58C213 53 213 53 218 53h79C302 53 302 53 302 58v49C302 112 302 112 297 112H218C213 112 213 112 213 107V58m0 0C213 53 213 53 218 53h79C302 53 302 53 302 58v49C302 112 302 112 297 112H218C213 112 213 112 213 107V58" /><rect x="213" y="53" width="89" height="59" /><text transform="matrix(1 0 0 1 231 59)" fill="#000000" stroke="none"><tspan dx="0 " x="0" y="9">«primitive»</tspan></text><text transform="matrix(1 0 0 1 237 72)" fill="#000000" font-weight="bold" stroke="none"><tspan dx="0 " x="0" y="9">defense</tspan></text><path fill="#DFDFDF" stroke="none" d="M317 61C317 56 317 56 322 56h79C406 56 406 56 406 61v49C406 115 406 115 401 115H322C317 115 317 115 317 110V61" /><path fill="#FBF9C6" stroke="none" d="M314 58C314 53 314 53 319 53h79C403 53 403 53 403 58v49C403 112 403 112 398 112H319C314 112 314 112 314 107V58" /><path d="M314 58C314 53 314 53 319 53h79C403 53 403 53 403 58v49C403 112 403 112 398 112H319C314 112 314 112 314 107V58m0 0C314 53 314 53 319 53h79C403 53 403 53 403 58v49C403 112 403 112 398 112H319C314 112 314 112 314 107V58" /><rect x="314" y="53" width="89" height="59" /><text transform="matrix(1 0 0 1 332 59)" fill="#000000" stroke="none"><tspan dx="0 " x="0" y="9">«primitive»</tspan></text><text transform="matrix(1 0 0 1 332 72)" fill="#000000" font-weight="bold" stroke="none"><tspan dx="0 " x="0" y="9">endurance</tspan></text><path fill="#DFDFDF" stroke="none" d="M434 61C434 56 434 56 439 56h79C523 56 523 56 523 61v49C523 115 523 115 518 115H439C434 115 434 115 434 110V61" /><path fill="#FBF9C6" stroke="none" d="M431 58C431 53 431 53 436 53h79C520 53 520 53 520 58v49C520 112 520 112 515 112H436C431 112 431 112 431 107V58" /><path d="M431 58C431 53 431 53 436 53h79C520 53 520 53 520 58v49C520 112 520 112 515 112H436C431 112 431 112 431 107V58m0 0C431 53 431 53 436 53h79C520 53 520 53 520 58v49C520 112 520 112 515 112H436C431 112 431 112 431 107V58" /><rect x="431" y="53" width="89" height="59" /><text transform="matrix(1 0 0 1 449 59)" fill="#000000" stroke="none"><tspan dx="0 " x="0" y="9">«primitive»</tspan></text><text transform="matrix(1 0 0 1 451 72)" fill="#000000" font-weight="bold" stroke="none"><tspan dx="0 " x="0" y="9">rampancy</tspan></text><path fill="#DFDFDF" stroke="none" d="M535 61C535 56 535 56 540 56h79C624 56 624 56 624 61v49C624 115 624 115 619 115H540C535 115 535 115 535 110V61" /><path fill="#FBF9C6" stroke="none" d="M532 58C532 53 532 53 537 53h79C621 53 621 53 621 58v49C621 112 621 112 616 112H537C532 112 532 112 532 107V58" /><path d="M532 58C532 53 532 53 537 53h79C621 53 621 53 621 58v49C621 112 621 112 616 112H537C532 112 532 112 532 107V58m0 0C532 53 532 53 537 53h79C621 53 621 53 621 58v49C621 112 621 112 616 112H537C532 112 532 112 532 107V58" /><rect x="532" y="53" width="89" height="59" /><text transform="matrix(1 0 0 1 550 59)" fill="#000000" stroke="none"><tspan dx="0 " x="0" y="9">«primitive»</tspan></text><text transform="matrix(1 0 0 1 557 72)" fill="#000000" font-weight="bold" stroke="none"><tspan dx="0 " x="0" y="9">mobility</tspan></text><path fill="#DFDFDF" stroke="none" d="M636 61C636 56 636 56 641 56h79C725 56 725 56 725 61v49C725 115 725 115 720 115H641C636 115 636 115 636 110V61" /><path fill="#FBF9C6" stroke="none" d="M633 58C633 53 633 53 638 53h79C722 53 722 53 722 58v49C722 112 722 112 717 112H638C633 112 633 112 633 107V58" /><path d="M633 58C633 53 633 53 638 53h79C722 53 722 53 722 58v49C722 112 722 112 717 112H638C633 112 633 112 633 107V58m0 0C633 53 633 53 638 53h79C722 53 722 53 722 58v49C722 112 722 112 717 112H638C633 112 633 112 633 107V58" /><rect x="633" y="53" width="89" height="59" /><text transform="matrix(1 0 0 1 651 59)" fill="#000000" stroke="none"><tspan dx="0 " x="0" y="9">«primitive»</tspan></text><text transform="matrix(1 0 0 1 642 72)" fill="#000000" font-weight="bold" stroke="none"><tspan dx="0 " x="0" y="9">perseverance</tspan></text><path fill="#DFDFDF" stroke="none" d="M737 61C737 56 737 56 742 56h79C826 56 826 56 826 61v49C826 115 826 115 821 115H742C737 115 737 115 737 110V61" /><path fill="#FBF9C6" stroke="none" d="M734 58C734 53 734 53 739 53h79C823 53 823 53 823 58v49C823 112 823 112 818 112H739C734 112 734 112 734 107V58" /><path d="M734 58C734 53 734 53 739 53h79C823 53 823 53 823 58v49C823 112 823 112 818 112H739C734 112 734 112 734 107V58m0 0C734 53 734 53 739 53h79C823 53 823 53 823 58v49C823 112 823 112 818 112H739C734 112 734 112 734 107V58" /><rect x="734" y="53" width="89" height="59" /><text transform="matrix(1 0 0 1 752 59)" fill="#000000" stroke="none"><tspan dx="0 " x="0" y="9">«primitive»</tspan></text><text transform="matrix(1 0 0 1 751 72)" fill="#000000" font-weight="bold" stroke="none"><tspan dx="0 " x="0" y="9">inteligence</tspan></text><path fill="#DFDFDF" stroke="none" d="M838 61C838 56 838 56 843 56h79C927 56 927 56 927 61v49C927 115 927 115 922 115H843C838 115 838 115 838 110V61" /><path fill="#FBF9C6" stroke="none" d="M835 58C835 53 835 53 840 53h79C924 53 924 53 924 58v49C924 112 924 112 919 112H840C835 112 835 112 835 107V58" /><path d="M835 58C835 53 835 53 840 53h79C924 53 924 53 924 58v49C924 112 924 112 919 112H840C835 112 835 112 835 107V58m0 0C835 53 835 53 840 53h79C924 53 924 53 924 58v49C924 112 924 112 919 112H840C835 112 835 112 835 107V58" /><rect x="835" y="53" width="89" height="59" /><text transform="matrix(1 0 0 1 853 59)" fill="#000000" stroke="none"><tspan dx="0 " x="0" y="9">«primitive»</tspan></text><text transform="matrix(1 0 0 1 856 72)" fill="#000000" font-weight="bold" stroke="none"><tspan dx="0 " x="0" y="9">charisma</tspan></text><path fill="#DFDFDF" stroke="none" d="M939 61C939 56 939 56 944 56h79C1028 56 1028 56 1028 61v49C1028 115 1028 115 1023 115H944C939 115 939 115 939 110V61" /><path fill="#FBF9C6" stroke="none" d="M936 58C936 53 936 53 941 53h79C1025 53 1025 53 1025 58v49C1025 112 1025 112 1020 112H941C936 112 936 112 936 107V58" /><path d="M936 58C936 53 936 53 941 53h79C1025 53 1025 53 1025 58v49C1025 112 1025 112 1020 112H941C936 112 936 112 936 107V58m0 0C936 53 936 53 941 53h79C1025 53 1025 53 1025 58v49C1025 112 1025 112 1020 112H941C936 112 936 112 936 107V58" /><rect x="936" y="53" width="89" height="59" /><text transform="matrix(1 0 0 1 954 59)" fill="#000000" stroke="none"><tspan dx="0 " x="0" y="9">«primitive»</tspan></text><text transform="matrix(1 0 0 1 954 72)" fill="#000000" font-weight="bold" stroke="none"><tspan dx="0 " x="0" y="9">conviction</tspan></text><path fill="#DFDFDF" stroke="none" d="M1040 61C1040 56 1040 56 1045 56h79C1129 56 1129 56 1129 61v49C1129 115 1129 115 1124 115h-79C1040 115 1040 115 1040 110V61" /><path fill="#FBF9C6" stroke="none" d="M1037 58C1037 53 1037 53 1042 53h79C1126 53 1126 53 1126 58v49C1126 112 1126 112 1121 112h-79C1037 112 1037 112 1037 107V58" /><path d="M1037 58C1037 53 1037 53 1042 53h79C1126 53 1126 53 1126 58v49C1126 112 1126 112 1121 112h-79C1037 112 1037 112 1037 107V58m0 0C1037 53 1037 53 1042 53h79C1126 53 1126 53 1126 58v49C1126 112 1126 112 1121 112h-79C1037 112 1037 112 1037 107V58" /><rect x="1037" y="53" width="89" height="59" /><text transform="matrix(1 0 0 1 1055 59)" fill="#000000" stroke="none"><tspan dx="0 " x="0" y="9">«primitive»</tspan></text><text transform="matrix(1 0 0 1 1053 72)" fill="#000000" font-weight="bold" stroke="none"><tspan dx="0 " x="0" y="9">experience</tspan></text><path fill="#DFDFDF" stroke="none" d="M846 400C846 395 846 395 851 395h79C935 395 935 395 935 400v49C935 454 935 454 930 454H851C846 454 846 454 846 449V400" /><path fill="#FBF9C6" stroke="none" d="M843 397C843 392 843 392 848 392h79C932 392 932 392 932 397v49C932 451 932 451 927 451H848C843 451 843 451 843 446V397" /><path d="M843 397C843 392 843 392 848 392h79C932 392 932 392 932 397v49C932 451 932 451 927 451H848C843 451 843 451 843 446V397m0 0C843 392 843 392 848 392h79C932 392 932 392 932 397v49C932 451 932 451 927 451H848C843 451 843 451 843 446V397" /><rect x="843" y="392" width="89" height="59" /><text transform="matrix(1 0 0 1 859 398)" fill="#000000" stroke="none"><tspan dx="0 " x="0" y="9">«dataType»</tspan></text><text transform="matrix(1 0 0 1 874 411)" fill="#000000" font-weight="bold" stroke="none"><tspan dx="0 " x="0" y="9">name</tspan></text><path d="M843 428h89" /><text transform="matrix(1 0 0 1 848 432)" fill="#3C3C3C" stroke="none"><tspan dx="0 " x="0" y="9">- </tspan></text><text transform="matrix(1 0 0 1 865 432)" fill="#3C3C3C" stroke="none"><tspan dx="0 " x="0" y="9">lang: text</tspan></text><path fill="#DFDFDF" stroke="none" d="M740 400C740 395 740 395 745 395h79C829 395 829 395 829 400v49C829 454 829 454 824 454H745C740 454 740 454 740 449V400" /><path fill="#FBF9C6" stroke="none" d="M737 397C737 392 737 392 742 392h79C826 392 826 392 826 397v49C826 451 826 451 821 451H742C737 451 737 451 737 446V397" /><path d="M737 397C737 392 737 392 742 392h79C826 392 826 392 826 397v49C826 451 826 451 821 451H742C737 451 737 451 737 446V397m0 0C737 392 737 392 742 392h79C826 392 826 392 826 397v49C826 451 826 451 821 451H742C737 451 737 451 737 446V397" /><rect x="737" y="392" width="89" height="59" /><text transform="matrix(1 0 0 1 753 398)" fill="#000000" stroke="none"><tspan dx="0 " x="0" y="9">«dataType»</tspan></text><text transform="matrix(1 0 0 1 753 411)" fill="#000000" font-weight="bold" stroke="none"><tspan dx="0 " x="0" y="9">description</tspan></text><path d="M737 428h89" /><text transform="matrix(1 0 0 1 742 432)" fill="#3C3C3C" stroke="none"><tspan dx="0 " x="0" y="9">- </tspan></text><text transform="matrix(1 0 0 1 759 432)" fill="#3C3C3C" stroke="none"><tspan dx="0 " x="0" y="9">lang: text</tspan></text><path fill="#DFDFDF" stroke="none" d="M952 400C952 395 952 395 957 395h79C1041 395 1041 395 1041 400v49C1041 454 1041 454 1036 454H957C952 454 952 454 952 449V400" /><path fill="#FBF9C6" stroke="none" d="M949 397C949 392 949 392 954 392h79C1038 392 1038 392 1038 397v49C1038 451 1038 451 1033 451H954C949 451 949 451 949 446V397" /><path d="M949 397C949 392 949 392 954 392h79C1038 392 1038 392 1038 397v49C1038 451 1038 451 1033 451H954C949 451 949 451 949 446V397m0 0C949 392 949 392 954 392h79C1038 392 1038 392 1038 397v49C1038 451 1038 451 1033 451H954C949 451 949 451 949 446V397" /><rect x="949" y="392" width="89" height="59" /><text transform="matrix(1 0 0 1 967 398)" fill="#000000" stroke="none"><tspan dx="0 " x="0" y="9">«primitive»</tspan></text><text transform="matrix(1 0 0 1 989 411)" fill="#000000" font-weight="bold" stroke="none"><tspan dx="0 " x="0" y="9">id</tspan></text></g><g transform="matrix(0.958838 0 0 0.959795 0 0)" font-family="SegoeUIUnicode" font-size="10"><text transform="matrix(1 0 0 -1 0 0)" fill="#000000" stroke="none"><tspan dx="0 " x="710" y="273">ROOT</tspan></text></g><g transform="matrix(0.958838 0 0 -0.959795 0 0)" font-family="ArialUnicode" font-size="10"><path fill="#DFDFDF" stroke="none" d="M634 400C634 395 634 395 639 395h79C723 395 723 395 723 400V513C723 518 723 518 718 518H639C634 518 634 518 634 513V400" /><path fill="#D7FCCE" stroke="none" d="M631 397C631 392 631 392 636 392h79C720 392 720 392 720 397V510C720 515 720 515 715 515H636C631 515 631 515 631 510V397" /><path d="M631 397C631 392 631 392 636 392h79C720 392 720 392 720 397V510C720 515 720 515 715 515H636C631 515 631 515 631 510V397m0 0C631 392 631 392 636 392h79C720 392 720 392 720 397V510C720 515 720 515 715 515H636C631 515 631 515 631 510V397" /><rect x="631" y="392" width="89" height="123" /><text transform="matrix(1 0 0 1 644 398)" fill="#000000" stroke="none"><tspan dx="0 " x="0" y="9">«enumerati...</tspan></text><text transform="matrix(1 0 0 1 665 411)" fill="#000000" font-weight="bold" stroke="none"><tspan dx="0 " x="0" y="9">size</tspan></text><path d="M631 428h89" /><text transform="matrix(1 0 0 1 653 432)" fill="#3C3C3C" stroke="none"><tspan dx="0 " x="0" y="9">A0</tspan></text><text transform="matrix(1 0 0 1 653 445)" fill="#3C3C3C" stroke="none"><tspan dx="0 " x="0" y="9">A</tspan></text><text transform="matrix(1 0 0 1 653 458)" fill="#3C3C3C" stroke="none"><tspan dx="0 " x="0" y="9">B</tspan></text><text transform="matrix(1 0 0 1 653 471)" fill="#3C3C3C" stroke="none"><tspan dx="0 " x="0" y="9">C</tspan></text><text transform="matrix(1 0 0 1 653 484)" fill="#3C3C3C" stroke="none"><tspan dx="0 " x="0" y="9">D</tspan></text><text transform="matrix(1 0 0 1 653 497)" fill="#3C3C3C" stroke="none"><tspan dx="0 " x="0" y="9">E</tspan></text><path fill="#DFDFDF" stroke="none" d="M1149 61C1149 56 1149 56 1154 56h79C1238 56 1238 56 1238 61v49C1238 115 1238 115 1233 115h-79C1149 115 1149 115 1149 110V61" /><path fill="#FBF9C6" stroke="none" d="M1146 58C1146 53 1146 53 1151 53h79C1235 53 1235 53 1235 58v49C1235 112 1235 112 1230 112h-79C1146 112 1146 112 1146 107V58" /><path d="M1146 58C1146 53 1146 53 1151 53h79C1235 53 1235 53 1235 58v49C1235 112 1235 112 1230 112h-79C1146 112 1146 112 1146 107V58m0 0C1146 53 1146 53 1151 53h79C1235 53 1235 53 1235 58v49C1235 112 1235 112 1230 112h-79C1146 112 1146 112 1146 107V58" /><rect x="1146" y="53" width="89" height="59" /><text transform="matrix(1 0 0 1 1164 59)" fill="#000000" stroke="none"><tspan dx="0 " x="0" y="9">«primitive»</tspan></text><text transform="matrix(1 0 0 1 1183 72)" fill="#000000" font-weight="bold" stroke="none"><tspan dx="0 " x="0" y="9">HP</tspan></text><path d="M725 224V163" /><path d="M779 163V113" /><path d="M724 294v48m0 0H252m0 0v50" /><path d="M358 342v50" /><path d="M725 294v48m0 0H464m0 0v50" /><path d="M570 342v50" /><path d="M725 163H56m0 0V113" /><path d="M157 163V113" /><path d="M258 163V113" /><path d="M359 163V113" /><path d="M476 163V113" /><path d="M725 342H994m0 0v50" /><path d="M678 163V113" /><path d="M464 462v78" /><path d="M880 163V113" /><path d="M981 163V113" /><path d="M1082 163V113" /><path d="M888 342v50" /><path d="M782 342v50" /><path d="M676 342v50" /><path d="M725 163h466m0 0V113" /><path d="M252 462v79" /><path d="M358 462v79" /><path d="M577 163V113" /><g transform="matrix(1 0 0 -1 70 119)"><rect fill="#FFFFFF" stroke="none" x="0" width="6" y="-11" height="11" /></g><text transform="matrix(1 0 0 1 70 119)" fill="#000000" stroke="none"><tspan dx="0 " x="0" y="9">1</tspan></text><g transform="matrix(1 0 0 -1 568 375)"><rect fill="#FFFFFF" stroke="none" x="0" width="6" y="-11" height="11" /></g><text transform="matrix(1 0 0 1 568 375)" fill="#000000" stroke="none"><tspan dx="0 " x="0" y="9">1</tspan></text><g transform="matrix(1 0 0 -1 256 374)"><rect fill="#FFFFFF" stroke="none" x="0" width="19" y="-11" height="11" /></g><text transform="matrix(1 0 0 1 256 374)" fill="#000000" stroke="none"><tspan dx="0 " x="0" y="9">0..1</tspan></text><g transform="matrix(1 0 0 -1 1202 115)"><rect fill="#FFFFFF" stroke="none" x="0" width="6" y="-11" height="11" /></g><text transform="matrix(1 0 0 1 1202 115)" fill="#000000" stroke="none"><tspan dx="0 " x="0" y="9">1</tspan></text><g transform="matrix(1 0 0 -1 733 207)"><rect fill="#FFFFFF" stroke="none" x="0" width="6" y="-11" height="11" /></g><text transform="matrix(1 0 0 1 733 207)" fill="#000000" stroke="none"><tspan dx="0 " x="0" y="9">1</tspan></text><g transform="matrix(1 0 0 -1 360 374)"><rect fill="#FFFFFF" stroke="none" x="0" width="19" y="-11" height="11" /></g><text transform="matrix(1 0 0 1 360 374)" fill="#000000" stroke="none"><tspan dx="0 " x="0" y="9">0..1</tspan></text><g transform="matrix(1 0 0 -1 667 114)"><rect fill="#FFFFFF" stroke="none" x="0" width="6" y="-11" height="11" /></g><text transform="matrix(1 0 0 1 667 114)" fill="#000000" stroke="none"><tspan dx="0 " x="0" y="9">1</tspan></text><g transform="matrix(1 0 0 -1 1003 368)"><rect fill="#FFFFFF" stroke="none" x="0" width="19" y="-11" height="11" /></g><text transform="matrix(1 0 0 1 1003 368)" fill="#000000" stroke="none"><tspan dx="0 " x="0" y="9">0..1</tspan></text><g transform="matrix(1 0 0 -1 173 115)"><rect fill="#FFFFFF" stroke="none" x="0" width="6" y="-11" height="11" /></g><text transform="matrix(1 0 0 1 173 115)" fill="#000000" stroke="none"><tspan dx="0 " x="0" y="9">1</tspan></text><g transform="matrix(1 0 0 -1 472 467)"><rect fill="#FFFFFF" stroke="none" x="0" width="6" y="-11" height="11" /></g><text transform="matrix(1 0 0 1 472 467)" fill="#000000" stroke="none"><tspan dx="0 " x="0" y="9">1</tspan></text><g transform="matrix(1 0 0 -1 472 522)"><rect fill="#FFFFFF" stroke="none" x="0" width="17" y="-11" height="11" /></g><text transform="matrix(1 0 0 1 472 522)" fill="#000000" stroke="none"><tspan dx="0 " x="0" y="9">0..*</tspan></text><g transform="matrix(1 0 0 -1 366 467)"><rect fill="#FFFFFF" stroke="none" x="0" width="6" y="-11" height="11" /></g><text transform="matrix(1 0 0 1 366 467)" fill="#000000" stroke="none"><tspan dx="0 " x="0" y="9">1</tspan></text><g transform="matrix(1 0 0 -1 366 523)"><rect fill="#FFFFFF" stroke="none" x="0" width="17" y="-11" height="11" /></g><text transform="matrix(1 0 0 1 366 523)" fill="#000000" stroke="none"><tspan dx="0 " x="0" y="9">0..*</tspan></text><g transform="matrix(1 0 0 -1 267 117)"><rect fill="#FFFFFF" stroke="none" x="0" width="6" y="-11" height="11" /></g><text transform="matrix(1 0 0 1 267 117)" fill="#000000" stroke="none"><tspan dx="0 " x="0" y="9">1</tspan></text><g transform="matrix(1 0 0 -1 678 374)"><rect fill="#FFFFFF" stroke="none" x="0" width="6" y="-11" height="11" /></g><text transform="matrix(1 0 0 1 678 374)" fill="#000000" stroke="none"><tspan dx="0 " x="0" y="9">1</tspan></text><g transform="matrix(1 0 0 -1 784 376)"><rect fill="#FFFFFF" stroke="none" x="0" width="17" y="-11" height="11" /></g><text transform="matrix(1 0 0 1 784 376)" fill="#000000" stroke="none"><tspan dx="0 " x="0" y="9">1..*</tspan></text><g transform="matrix(1 0 0 -1 458 376)"><rect fill="#FFFFFF" stroke="none" x="0" width="19" y="-11" height="11" /></g><text transform="matrix(1 0 0 1 458 376)" fill="#000000" stroke="none"><tspan dx="0 " x="0" y="9">0..1</tspan></text><g transform="matrix(1 0 0 -1 730 305)"><rect fill="#FFFFFF" stroke="none" x="0" width="6" y="-11" height="11" /></g><text transform="matrix(1 0 0 1 730 305)" fill="#000000" stroke="none"><tspan dx="0 " x="0" y="9">1</tspan></text><g transform="matrix(1 0 0 -1 890 375)"><rect fill="#FFFFFF" stroke="none" x="0" width="17" y="-11" height="11" /></g><text transform="matrix(1 0 0 1 890 375)" fill="#000000" stroke="none"><tspan dx="0 " x="0" y="9">1..*</tspan></text><g transform="matrix(1 0 0 -1 767 113)"><rect fill="#FFFFFF" stroke="none" x="0" width="6" y="-11" height="11" /></g><text transform="matrix(1 0 0 1 767 113)" fill="#000000" stroke="none"><tspan dx="0 " x="0" y="9">1</tspan></text><g transform="matrix(1 0 0 -1 867 117)"><rect fill="#FFFFFF" stroke="none" x="0" width="6" y="-11" height="11" /></g><text transform="matrix(1 0 0 1 867 117)" fill="#000000" stroke="none"><tspan dx="0 " x="0" y="9">1</tspan></text><g transform="matrix(1 0 0 -1 1071 117)"><rect fill="#FFFFFF" stroke="none" x="0" width="6" y="-11" height="11" /></g><text transform="matrix(1 0 0 1 1071 117)" fill="#000000" stroke="none"><tspan dx="0 " x="0" y="9">1</tspan></text><g transform="matrix(1 0 0 -1 566 115)"><rect fill="#FFFFFF" stroke="none" x="0" width="6" y="-11" height="11" /></g><text transform="matrix(1 0 0 1 566 115)" fill="#000000" stroke="none"><tspan dx="0 " x="0" y="9">1</tspan></text><g transform="matrix(1 0 0 -1 464 115)"><rect fill="#FFFFFF" stroke="none" x="0" width="6" y="-11" height="11" /></g><text transform="matrix(1 0 0 1 464 115)" fill="#000000" stroke="none"><tspan dx="0 " x="0" y="9">1</tspan></text><g transform="matrix(1 0 0 -1 370 114)"><rect fill="#FFFFFF" stroke="none" x="0" width="6" y="-11" height="11" /></g><text transform="matrix(1 0 0 1 370 114)" fill="#000000" stroke="none"><tspan dx="0 " x="0" y="9">1</tspan></text><g transform="matrix(1 0 0 -1 969 115)"><rect fill="#FFFFFF" stroke="none" x="0" width="6" y="-11" height="11" /></g><text transform="matrix(1 0 0 1 969 115)" fill="#000000" stroke="none"><tspan dx="0 " x="0" y="9">1</tspan></text><g transform="matrix(1 0 0 -1 260 467)"><rect fill="#FFFFFF" stroke="none" x="0" width="6" y="-11" height="11" /></g><text transform="matrix(1 0 0 1 260 467)" fill="#000000" stroke="none"><tspan dx="0 " x="0" y="9">1</tspan></text><g transform="matrix(1 0 0 -1 260 523)"><rect fill="#FFFFFF" stroke="none" x="0" width="17" y="-11" height="11" /></g><text transform="matrix(1 0 0 1 260 523)" fill="#000000" stroke="none"><tspan dx="0 " x="0" y="9">0..*</tspan></text></g></g></g></g></svg>