<?xml version="1.0" encoding="utf-8"?><svg version="1.1" preserveAspectRatio="xMidYMid" xml:space="preserve" width="476.50280000000003pt" height="277.25874999999996pt" viewBox="96.8883 14.381049999999998 476.50280000000003 277.25874999999996" xmlns="http://www.w3.org/2000/svg" xmlns:xlink="http://www.w3.org/1999/xlink"><g transform="matrix(1 0 0 -1 0 841)"><g stroke="#000000" fill="none" fill-rule="evenodd" stroke-width="1" stroke-linecap="round" stroke-linejoin="round" stroke-miterlimit="3" letter-spacing="normal" font-weight="normal" font-style="normal" baseline-shift="0"><g transform="matrix(0.75 0 0 0.75 0 841.650024)"><g transform="matrix(0.957884 0 0 -0.959628 0 0)" font-family="ArialUnicode" font-size="10"><path d="M204 32V395m0 0H787m0 0V32m0 0H204" /><text transform="matrix(1 0 0 1 474 36)" fill="#000000" stroke="none"><tspan dx="0 " x="0" y="9">DeskChar</tspan></text><path fill="#DFDFDF" stroke="none" d="M156 185C156 178.37 161.37 173 168 173C174.63 173 180 178.37 180 185C180 191.63 174.63 197 168 197C161.37 197 156 191.63 156 185" /><path fill="#F8E2C1" stroke="none" d="M155 182.5C155 176.15 160.15 171 166.5 171C172.85 171 178 176.15 178 182.5C178 188.85 172.85 194 166.5 194C160.15 194 155 188.85 155 182.5" /><path d="M155 182.5C155 176.15 160.15 171 166.5 171C172.85 171 178 176.15 178 182.5C178 188.85 172.85 194 166.5 194C160.15 194 155 188.85 155 182.5M155 182.5C155 176.15 160.15 171 166.5 171C172.85 171 178 176.15 178 182.5C178 188.85 172.85 194 166.5 194C160.15 194 155 188.85 155 182.5M167 195v24M149 201h18m18 0H167m0 18l15 25" /><path d="M167 219l-15 25" /><text transform="matrix(1 0 0 1 146 244)" fill="#000000" font-weight="bold" stroke="none"><tspan dx="0 " x="0" y="9">Uživatel</tspan></text><path fill="#DFDFDF" stroke="none" d="M266 283.5C266 261.68 292.64 244 325.5 244C358.36 244 385 261.68 385 283.5C385 305.32 358.36 323 325.5 323C292.64 323 266 305.32 266 283.5" /><path fill="#B2D8FF" stroke="none" d="M264 281.5C264 259.68 290.64 242 323.5 242C356.36 242 383 259.68 383 281.5C383 303.32 356.36 321 323.5 321C290.64 321 264 303.32 264 281.5" /><path d="M264 281.5C264 259.68 290.64 242 323.5 242C356.36 242 383 259.68 383 281.5C383 303.32 356.36 321 323.5 321C290.64 321 264 303.32 264 281.5M264 281.5C264 259.68 290.64 242 323.5 242C356.36 242 383 259.68 383 281.5C383 303.32 356.36 321 323.5 321C290.64 321 264 303.32 264 281.5" /><text transform="matrix(1 0 0 1 273 270)" fill="#000000" font-weight="bold" stroke="none"><tspan dx="0 " x="0" y="9">Vytváření a editace </tspan></text><text transform="matrix(1 0 0 1 307 282)" fill="#000000" font-weight="bold" stroke="none"><tspan dx="0 " x="0" y="9">šablon</tspan></text><path fill="#DFDFDF" stroke="none" d="M456 108.5C456 86.68 482.64 69 515.5 69C548.36 69 575 86.68 575 108.5C575 130.32 548.36 148 515.5 148C482.64 148 456 130.32 456 108.5" /><path fill="#B2D8FF" stroke="none" d="M454 106.5C454 84.68 480.64 67 513.5 67C546.36 67 573 84.68 573 106.5C573 128.32 546.36 146 513.5 146C480.64 146 454 128.32 454 106.5" /><path d="M454 106.5C454 84.68 480.64 67 513.5 67C546.36 67 573 84.68 573 106.5C573 128.32 546.36 146 513.5 146C480.64 146 454 128.32 454 106.5M454 106.5C454 84.68 480.64 67 513.5 67C546.36 67 573 84.68 573 106.5C573 128.32 546.36 146 513.5 146C480.64 146 454 128.32 454 106.5" /><text transform="matrix(1 0 0 1 478 101)" fill="#000000" font-weight="bold" stroke="none"><tspan dx="0 " x="0" y="9">Export šablon</tspan></text><path fill="#DFDFDF" stroke="none" d="M647 196.5C647 174.68 673.64 157 706.5 157C739.36 157 766 174.68 766 196.5C766 218.32 739.36 236 706.5 236C673.64 236 647 218.32 647 196.5" /><path fill="#B2D8FF" stroke="none" d="M645 194.5C645 172.68 671.64 155 704.5 155C737.36 155 764 172.68 764 194.5C764 216.32 737.36 234 704.5 234C671.64 234 645 216.32 645 194.5" /><path d="M645 194.5C645 172.68 671.64 155 704.5 155C737.36 155 764 172.68 764 194.5C764 216.32 737.36 234 704.5 234C671.64 234 645 216.32 645 194.5M645 194.5C645 172.68 671.64 155 704.5 155C737.36 155 764 172.68 764 194.5C764 216.32 737.36 234 704.5 234C671.64 234 645 216.32 645 194.5" /><text transform="matrix(1 0 0 1 647 183)" fill="#000000" font-weight="bold" stroke="none"><tspan dx="0 " x="0" y="9">Sdružování šablon do </tspan></text><text transform="matrix(1 0 0 1 688 195)" fill="#000000" font-weight="bold" stroke="none"><tspan dx="0 " x="0" y="9">skupin</tspan></text><path fill="#DFDFDF" stroke="none" d="M266 108.5C266 86.68 292.64 69 325.5 69C358.36 69 385 86.68 385 108.5C385 130.32 358.36 148 325.5 148C292.64 148 266 130.32 266 108.5" /><path fill="#B2D8FF" stroke="none" d="M264 106.5C264 84.68 290.64 67 323.5 67C356.36 67 383 84.68 383 106.5C383 128.32 356.36 146 323.5 146C290.64 146 264 128.32 264 106.5" /><path d="M264 106.5C264 84.68 290.64 67 323.5 67C356.36 67 383 84.68 383 106.5C383 128.32 356.36 146 323.5 146C290.64 146 264 128.32 264 106.5M264 106.5C264 84.68 290.64 67 323.5 67C356.36 67 383 84.68 383 106.5C383 128.32 356.36 146 323.5 146C290.64 146 264 128.32 264 106.5" /><text transform="matrix(1 0 0 1 270 95)" fill="#000000" font-weight="bold" stroke="none"><tspan dx="0 " x="0" y="9">Import šablon z XML </tspan></text><text transform="matrix(1 0 0 1 303 107)" fill="#000000" font-weight="bold" stroke="none"><tspan dx="0 " x="0" y="9">souboru</tspan></text><path fill="#DFDFDF" stroke="none" d="M456 283.5C456 261.68 482.64 244 515.5 244C548.36 244 575 261.68 575 283.5C575 305.32 548.36 323 515.5 323C482.64 323 456 305.32 456 283.5" /><path fill="#B2D8FF" stroke="none" d="M454 281.5C454 259.68 480.64 242 513.5 242C546.36 242 573 259.68 573 281.5C573 303.32 546.36 321 513.5 321C480.64 321 454 303.32 454 281.5" /><path d="M454 281.5C454 259.68 480.64 242 513.5 242C546.36 242 573 259.68 573 281.5C573 303.32 546.36 321 513.5 321C480.64 321 454 303.32 454 281.5M454 281.5C454 259.68 480.64 242 513.5 242C546.36 242 573 259.68 573 281.5C573 303.32 546.36 321 513.5 321C480.64 321 454 303.32 454 281.5" /><text transform="matrix(1 0 0 1 470 270)" fill="#000000" font-weight="bold" stroke="none"><tspan dx="0 " x="0" y="9">Tvorba překladů </tspan></text><text transform="matrix(1 0 0 1 497 282)" fill="#000000" font-weight="bold" stroke="none"><tspan dx="0 " x="0" y="9">šablon</tspan></text><path d="M189 210l302 32" /><path d="M189 236l75 29" /><path d="M189 188L454 123" /><path d="M189 180l75 -62" /><path d="M189 202l456 -5" /></g></g></g></g></svg>