<?xml version="1.0" encoding="utf-8"?><svg version="1.1" preserveAspectRatio="xMidYMid" xml:space="preserve" width="450.63991pt" height="340.59418999999997pt" viewBox="58.093990000000005 33.81351 450.63991 340.59418999999997" xmlns="http://www.w3.org/2000/svg" xmlns:xlink="http://www.w3.org/1999/xlink"><g transform="matrix(1 0 0 -1 0 841)"><g stroke="#000000" fill="none" fill-rule="evenodd" stroke-width="1" stroke-linecap="round" stroke-linejoin="round" stroke-miterlimit="3" letter-spacing="normal" font-weight="normal" font-style="normal" baseline-shift="0"><g transform="matrix(0.75 0 0 0.75 0 841.650024)"><g transform="matrix(0.957884 0 0 -0.959628 0 0)" font-family="ArialNarrowUnicode" font-size="13"><path d="M231 59V510m0 0H697m0 0V59m0 0H231" /><text transform="matrix(1 0 0 1 442 63)" fill="#000000" font-family="ArialUnicode" font-size="10" stroke="none"><tspan dx="0 " x="0" y="9">MobChar</tspan></text><path fill="#DFDFDF" stroke="none" d="M478 214C478 191.36 505.53 173 539.5 173C573.47 173 601 191.36 601 214C601 236.64 573.47 255 539.5 255C505.53 255 478 236.64 478 214" /><path fill="#B2D8FF" stroke="none" d="M476 212C476 189.36 503.53 171 537.5 171C571.47 171 599 189.36 599 212C599 234.64 571.47 253 537.5 253C503.53 253 476 234.64 476 212" /><path d="M476 212C476 189.36 503.53 171 537.5 171C571.47 171 599 189.36 599 212C599 234.64 571.47 253 537.5 253C503.53 253 476 234.64 476 212M476 212C476 189.36 503.53 171 537.5 171C571.47 171 599 189.36 599 212C599 234.64 571.47 253 537.5 253C503.53 253 476 234.64 476 212" /><text transform="matrix(1 0 0 1 492 196)" fill="#000000" font-weight="bold" stroke="none"><tspan dx="0 " x="0" y="13">Práce s objekty na </tspan></text><text transform="matrix(1 0 0 1 525 212)" fill="#000000" font-weight="bold" stroke="none"><tspan dx="0 " x="0" y="13">mapě</tspan></text><path fill="#DFDFDF" stroke="none" d="M102 282C102 275.37 107.37 270 114 270C120.63 270 126 275.37 126 282C126 288.63 120.63 294 114 294C107.37 294 102 288.63 102 282" /><path fill="#F8E2C1" stroke="none" d="M101 279.5C101 273.15 106.15 268 112.5 268C118.85 268 124 273.15 124 279.5C124 285.85 118.85 291 112.5 291C106.15 291 101 285.85 101 279.5" /><path d="M101 279.5C101 273.15 106.15 268 112.5 268C118.85 268 124 273.15 124 279.5C124 285.85 118.85 291 112.5 291C106.15 291 101 285.85 101 279.5M101 279.5C101 273.15 106.15 268 112.5 268C118.85 268 124 273.15 124 279.5C124 285.85 118.85 291 112.5 291C106.15 291 101 285.85 101 279.5M113 292v24M95 298h18m18 0H113m0 18l15 25" /><path d="M113 316L98 341" /><text transform="matrix(1 0 0 1 92 341)" fill="#000000" font-family="ArialUnicode" font-size="10" font-weight="bold" stroke="none"><tspan dx="0 " x="0" y="9">Uživatel</tspan></text><path fill="#DFDFDF" stroke="none" d="M374 463.5C374 442.24 399.97 425 432 425C464.03 425 490 442.24 490 463.5C490 484.76 464.03 502 432 502C399.97 502 374 484.76 374 463.5" /><path fill="#B2D8FF" stroke="none" d="M372 461.5C372 440.24 397.97 423 430 423C462.03 423 488 440.24 488 461.5C488 482.76 462.03 500 430 500C397.97 500 372 482.76 372 461.5" /><path d="M372 461.5C372 440.24 397.97 423 430 423C462.03 423 488 440.24 488 461.5C488 482.76 462.03 500 430 500C397.97 500 372 482.76 372 461.5M372 461.5C372 440.24 397.97 423 430 423C462.03 423 488 440.24 488 461.5C488 482.76 462.03 500 430 500C397.97 500 372 482.76 372 461.5" /><text transform="matrix(1 0 0 1 400 454)" fill="#000000" font-weight="bold" stroke="none"><tspan dx="0 " x="0" y="13">Export mapy</tspan></text><path fill="#DFDFDF" stroke="none" d="M479 394.5C479 373.24 504.97 356 537 356C569.03 356 595 373.24 595 394.5C595 415.76 569.03 433 537 433C504.97 433 479 415.76 479 394.5" /><path fill="#B2D8FF" stroke="none" d="M477 392.5C477 371.24 502.97 354 535 354C567.03 354 593 371.24 593 392.5C593 413.76 567.03 431 535 431C502.97 431 477 413.76 477 392.5" /><path d="M477 392.5C477 371.24 502.97 354 535 354C567.03 354 593 371.24 593 392.5C593 413.76 567.03 431 535 431C502.97 431 477 413.76 477 392.5M477 392.5C477 371.24 502.97 354 535 354C567.03 354 593 371.24 593 392.5C593 413.76 567.03 431 535 431C502.97 431 477 413.76 477 392.5" /><text transform="matrix(1 0 0 1 503 385)" fill="#000000" font-weight="bold" stroke="none"><tspan dx="0 " x="0" y="13">Úprava mapy</tspan></text><path fill="#DFDFDF" stroke="none" d="M374 133.5C374 112.24 399.97 95 432 95C464.03 95 490 112.24 490 133.5C490 154.76 464.03 172 432 172C399.97 172 374 154.76 374 133.5" /><path fill="#B2D8FF" stroke="none" d="M372 131.5C372 110.24 397.97 93 430 93C462.03 93 488 110.24 488 131.5C488 152.76 462.03 170 430 170C397.97 170 372 152.76 372 131.5" /><path d="M372 131.5C372 110.24 397.97 93 430 93C462.03 93 488 110.24 488 131.5C488 152.76 462.03 170 430 170C397.97 170 372 152.76 372 131.5M372 131.5C372 110.24 397.97 93 430 93C462.03 93 488 110.24 488 131.5C488 152.76 462.03 170 430 170C397.97 170 372 152.76 372 131.5" /><text transform="matrix(1 0 0 1 392 124)" fill="#000000" font-weight="bold" stroke="none"><tspan dx="0 " x="0" y="13">Vytvoření mapy</tspan></text><path fill="#DFDFDF" stroke="none" d="M569 302.5C569 279.58 596.98 261 631.5 261C666.02 261 694 279.58 694 302.5C694 325.42 666.02 344 631.5 344C596.98 344 569 325.42 569 302.5" /><path fill="#B2D8FF" stroke="none" d="M567 300.5C567 277.58 594.98 259 629.5 259C664.02 259 692 277.58 692 300.5C692 323.42 664.02 342 629.5 342C594.98 342 567 323.42 567 300.5" /><path d="M567 300.5C567 277.58 594.98 259 629.5 259C664.02 259 692 277.58 692 300.5C692 323.42 664.02 342 629.5 342C594.98 342 567 323.42 567 300.5M567 300.5C567 277.58 594.98 259 629.5 259C664.02 259 692 277.58 692 300.5C692 323.42 664.02 342 629.5 342C594.98 342 567 323.42 567 300.5" /><text transform="matrix(1 0 0 1 581 285)" fill="#000000" font-weight="bold" stroke="none"><tspan dx="0 " x="0" y="13">Přidání podkladové </tspan></text><text transform="matrix(1 0 0 1 617 301)" fill="#000000" font-weight="bold" stroke="none"><tspan dx="0 " x="0" y="13">mapy</tspan></text><path d="M135 313L567 302" /><path d="M135 301L372 165" /><path d="M135 318l342 65" /><path d="M135 326L372 436" /><path d="M135 309L476 228" /></g></g></g></g></svg>