<?xml version="1.0" encoding="utf-8"?><svg version="1.1" preserveAspectRatio="xMidYMid" xml:space="preserve" width="545.3536799999999pt" height="388.74086pt" viewBox="89.09612 27.528840000000002 545.3536799999999 388.74086" xmlns="http://www.w3.org/2000/svg" xmlns:xlink="http://www.w3.org/1999/xlink"><g transform="matrix(1 0 0 -1 0 816)"><g stroke="#000000" fill="none" fill-rule="evenodd" stroke-width="1" stroke-linecap="round" stroke-linejoin="round" stroke-miterlimit="3" letter-spacing="normal" font-weight="normal" font-style="normal" baseline-shift="0"><g transform="matrix(0.75 0 0 0.75 0 816.450012)"><g transform="matrix(0.958974 0 0 -0.959436 0 0)" font-family="ArialNarrowUnicode" font-size="10"><path d="M266 50V568m0 0H871m0 0V50m0 0H266" /><text transform="matrix(1 0 0 1 547 54)" fill="#000000" font-family="ArialUnicode" stroke="none"><tspan dx="0 " x="0" y="9">DeskChar</tspan></text><path fill="#DFDFDF" stroke="none" d="M147 304.5C147 298.7 151.7 294 157.5 294C163.3 294 168 298.7 168 304.5C168 310.3 163.3 315 157.5 315C151.7 315 147 310.3 147 304.5" /><path fill="#F8E2C1" stroke="none" d="M145 302.5C145 296.7 149.7 292 155.5 292C161.3 292 166 296.7 166 302.5C166 308.3 161.3 313 155.5 313C149.7 313 145 308.3 145 302.5" /><path d="M145 302.5C145 296.7 149.7 292 155.5 292C161.3 292 166 296.7 166 302.5C166 308.3 161.3 313 155.5 313C149.7 313 145 308.3 145 302.5M145 302.5C145 296.7 149.7 292 155.5 292C161.3 292 166 296.7 166 302.5C166 308.3 161.3 313 155.5 313C149.7 313 145 308.3 145 302.5M156 314v21M141 319h15m15 0H156m0 16l12 21" /><path d="M156 335l-12 21" /><text transform="matrix(1 0 0 1 135 356)" fill="#000000" font-family="ArialUnicode" font-weight="bold" stroke="none"><tspan dx="0 " x="0" y="9">Uživatel</tspan></text><text transform="matrix(1 0 0 1 144 373)" fill="#000000" font-family="ArialUnicode" font-style="italic" stroke="none"><tspan dx="0 " x="0" y="9">(from </tspan></text><text transform="matrix(1 0 0 1 140 386)" fill="#000000" font-family="ArialUnicode" font-style="italic" stroke="none"><tspan dx="0 " x="0" y="9">Actors)</tspan></text><path fill="#DFDFDF" stroke="none" d="M698 329.5C698 306.03 726.65 287 762 287C797.35 287 826 306.03 826 329.5C826 352.97 797.35 372 762 372C726.65 372 698 352.97 698 329.5" /><path fill="#B2D8FF" stroke="none" d="M696 327.5C696 304.03 724.65 285 760 285C795.35 285 824 304.03 824 327.5C824 350.97 795.35 370 760 370C724.65 370 696 350.97 696 327.5" /><path d="M696 327.5C696 304.03 724.65 285 760 285C795.35 285 824 304.03 824 327.5C824 350.97 795.35 370 760 370C724.65 370 696 350.97 696 327.5M696 327.5C696 304.03 724.65 285 760 285C795.35 285 824 304.03 824 327.5C824 350.97 795.35 370 760 370C724.65 370 696 350.97 696 327.5" /><text transform="matrix(1 0 0 1 724 314)" fill="#000000" font-weight="bold" stroke="none"><tspan dx="0 " x="0" y="9">Tvorba a editace </tspan></text><text transform="matrix(1 0 0 1 731 328)" fill="#000000" font-weight="bold" stroke="none"><tspan dx="0 " x="0" y="9">dobrodružství</tspan></text><path fill="#DFDFDF" stroke="none" d="M319 114.5C319 91.03 347.65 72 383 72C418.35 72 447 91.03 447 114.5C447 137.97 418.35 157 383 157C347.65 157 319 137.97 319 114.5" /><path fill="#B2D8FF" stroke="none" d="M317 112.5C317 89.03 345.65 70 381 70C416.35 70 445 89.03 445 112.5C445 135.97 416.35 155 381 155C345.65 155 317 135.97 317 112.5" /><path d="M317 112.5C317 89.03 345.65 70 381 70C416.35 70 445 89.03 445 112.5C445 135.97 416.35 155 381 155C345.65 155 317 135.97 317 112.5M317 112.5C317 89.03 345.65 70 381 70C416.35 70 445 89.03 445 112.5C445 135.97 416.35 155 381 155C345.65 155 317 135.97 317 112.5" /><text transform="matrix(1 0 0 1 328 99)" fill="#000000" font-weight="bold" stroke="none"><tspan dx="0 " x="0" y="9">Uložení dobrodružství do </tspan></text><text transform="matrix(1 0 0 1 364 113)" fill="#000000" font-weight="bold" stroke="none"><tspan dx="0 " x="0" y="9">souboru</tspan></text><path fill="#DFDFDF" stroke="none" d="M465 141.5C465 118.03 493.65 99 529 99C564.35 99 593 118.03 593 141.5C593 164.97 564.35 184 529 184C493.65 184 465 164.97 465 141.5" /><path fill="#B2D8FF" stroke="none" d="M463 139.5C463 116.03 491.65 97 527 97C562.35 97 591 116.03 591 139.5C591 162.97 562.35 182 527 182C491.65 182 463 162.97 463 139.5" /><path d="M463 139.5C463 116.03 491.65 97 527 97C562.35 97 591 116.03 591 139.5C591 162.97 562.35 182 527 182C491.65 182 463 162.97 463 139.5M463 139.5C463 116.03 491.65 97 527 97C562.35 97 591 116.03 591 139.5C591 162.97 562.35 182 527 182C491.65 182 463 162.97 463 139.5" /><text transform="matrix(1 0 0 1 473 126)" fill="#000000" font-weight="bold" stroke="none"><tspan dx="0 " x="0" y="9">Nahrání dobrodružství ze </tspan></text><text transform="matrix(1 0 0 1 510 140)" fill="#000000" font-weight="bold" stroke="none"><tspan dx="0 " x="0" y="9">souboru</tspan></text><path fill="#DFDFDF" stroke="none" d="M461 474.5C461 451.03 489.65 432 525 432C560.35 432 589 451.03 589 474.5C589 497.97 560.35 517 525 517C489.65 517 461 497.97 461 474.5" /><path fill="#B2D8FF" stroke="none" d="M459 472.5C459 449.03 487.65 430 523 430C558.35 430 587 449.03 587 472.5C587 495.97 558.35 515 523 515C487.65 515 459 495.97 459 472.5" /><path d="M459 472.5C459 449.03 487.65 430 523 430C558.35 430 587 449.03 587 472.5C587 495.97 558.35 515 523 515C487.65 515 459 495.97 459 472.5M459 472.5C459 449.03 487.65 430 523 430C558.35 430 587 449.03 587 472.5C587 495.97 558.35 515 523 515C487.65 515 459 495.97 459 472.5" /><text transform="matrix(1 0 0 1 478 466)" fill="#000000" font-weight="bold" stroke="none"><tspan dx="0 " x="0" y="9">Export dobrodružství</tspan></text><path fill="#DFDFDF" stroke="none" d="M319 500.5C319 477.03 347.65 458 383 458C418.35 458 447 477.03 447 500.5C447 523.97 418.35 543 383 543C347.65 543 319 523.97 319 500.5" /><path fill="#B2D8FF" stroke="none" d="M317 498.5C317 475.03 345.65 456 381 456C416.35 456 445 475.03 445 498.5C445 521.97 416.35 541 381 541C345.65 541 317 521.97 317 498.5" /><path d="M317 498.5C317 475.03 345.65 456 381 456C416.35 456 445 475.03 445 498.5C445 521.97 416.35 541 381 541C345.65 541 317 521.97 317 498.5M317 498.5C317 475.03 345.65 456 381 456C416.35 456 445 475.03 445 498.5C445 521.97 416.35 541 381 541C345.65 541 317 521.97 317 498.5" /><text transform="matrix(1 0 0 1 337 492)" fill="#000000" font-weight="bold" stroke="none"><tspan dx="0 " x="0" y="9">Import dobrodružství</tspan></text><path fill="#DFDFDF" stroke="none" d="M607 222.5C607 199.03 635.65 180 671 180C706.35 180 735 199.03 735 222.5C735 245.97 706.35 265 671 265C635.65 265 607 245.97 607 222.5" /><path fill="#B2D8FF" stroke="none" d="M605 220.5C605 197.03 633.65 178 669 178C704.35 178 733 197.03 733 220.5C733 243.97 704.35 263 669 263C633.65 263 605 243.97 605 220.5" /><path d="M605 220.5C605 197.03 633.65 178 669 178C704.35 178 733 197.03 733 220.5C733 243.97 704.35 263 669 263C633.65 263 605 243.97 605 220.5M605 220.5C605 197.03 633.65 178 669 178C704.35 178 733 197.03 733 220.5C733 243.97 704.35 263 669 263C633.65 263 605 243.97 605 220.5" /><text transform="matrix(1 0 0 1 624 207)" fill="#000000" font-weight="bold" stroke="none"><tspan dx="0 " x="0" y="9">Rozdělení na části do </tspan></text><text transform="matrix(1 0 0 1 628 221)" fill="#000000" font-weight="bold" stroke="none"><tspan dx="0 " x="0" y="9">stromové struktury</tspan></text><path fill="#DFDFDF" stroke="none" d="M606 424.5C606 401.03 634.65 382 670 382C705.35 382 734 401.03 734 424.5C734 447.97 705.35 467 670 467C634.65 467 606 447.97 606 424.5" /><path fill="#B2D8FF" stroke="none" d="M604 422.5C604 399.03 632.65 380 668 380C703.35 380 732 399.03 732 422.5C732 445.97 703.35 465 668 465C632.65 465 604 445.97 604 422.5" /><path d="M604 422.5C604 399.03 632.65 380 668 380C703.35 380 732 399.03 732 422.5C732 445.97 703.35 465 668 465C632.65 465 604 445.97 604 422.5M604 422.5C604 399.03 632.65 380 668 380C703.35 380 732 399.03 732 422.5C732 445.97 703.35 465 668 465C632.65 465 604 445.97 604 422.5" /><text transform="matrix(1 0 0 1 614 409)" fill="#000000" font-weight="bold" stroke="none"><tspan dx="0 " x="0" y="9">Editace objektů přímo pro </tspan></text><text transform="matrix(1 0 0 1 639 423)" fill="#000000" font-weight="bold" stroke="none"><tspan dx="0 " x="0" y="9">dobrodružství</tspan></text><path d="M176 348L322 456" /><path d="M176 337l428 74" /><path d="M176 329L605 235" /><path d="M176 333l520 -5" /><path d="M176 341L459 448" /><path d="M176 322L463 155" /><path d="M176 310L317 141" /></g></g></g></g></svg>