<?xml version="1.0" encoding="utf-8"?><svg version="1.1" preserveAspectRatio="xMidYMid" xml:space="preserve" width="593.46017pt" height="698.4142099999999pt" viewBox="17.88863 27.34229 593.46017 698.4142099999999" xmlns="http://www.w3.org/2000/svg" xmlns:xlink="http://www.w3.org/1999/xlink"><g transform="matrix(1 0 0 -1 0 841)"><g stroke="#000000" fill="none" fill-rule="evenodd" stroke-width="1" stroke-linecap="round" stroke-linejoin="round" stroke-miterlimit="3" letter-spacing="normal" font-weight="normal" font-style="normal" baseline-shift="0"><g transform="matrix(0.75 0 0 0.75 0 841.650024)"><g transform="matrix(0.958838 0 0 -0.959795 0 0)" font-family="ArialUnicode" font-size="10"><path fill="#DFDFDF" stroke="none" d="M52 56.5C52 54.01 54.01 52 56.5 52C58.99 52 61 54.01 61 56.5C61 58.99 58.99 61 56.5 61C54.01 61 52 58.99 52 56.5" /><path fill="#F8E2C1" stroke="none" d="M50 54.5C50 52.01 52.01 50 54.5 50C56.99 50 59 52.01 59 54.5C59 56.99 56.99 59 54.5 59C52.01 59 50 56.99 50 54.5" /><path d="M50 54.5C50 52.01 52.01 50 54.5 50C56.99 50 59 52.01 59 54.5C59 56.99 56.99 59 54.5 59C52.01 59 50 56.99 50 54.5M55 60V70M50 65H60M50 80L55 70m5 10L55 70" /><text transform="matrix(1 0 0 1 36 85)" fill="#000000" stroke="none"><tspan dx="0 " x="0" y="9">Uživatel</tspan></text><path stroke-dasharray="7,4" d="M55 98L55 996" /><path fill="#F8E2C1" stroke="none" d="M50 140C50 135 50 135 53.5 135h2C59 135 59 135 59 140V931C59 936 59 936 55.5 936h-2C50 936 50 936 50 931V140" /><path d="M50 140C50 135 50 135 53.5 135h2C59 135 59 135 59 140V931C59 936 59 936 55.5 936h-2C50 936 50 936 50 931V140" /><path fill="#DFDFDF" stroke="none" d="M174 58C174 53 174 53 179 53h79C263 53 263 53 263 58V97C263 102 263 102 258 102H179C174 102 174 102 174 97V58" /><path fill="#00FFFF" stroke="none" d="M171 55C171 50 171 50 176 50h79C260 50 260 50 260 55V94C260 99 260 99 255 99H176C171 99 171 99 171 94V55" /><path d="M171 55C171 50 171 50 176 50h79C260 50 260 50 260 55V94C260 99 260 99 255 99H176C171 99 171 99 171 94V55m0 0C171 50 171 50 176 50h79C260 50 260 50 260 55V94C260 99 260 99 255 99H176C171 99 171 99 171 94V55" /><rect x="171" y="50" width="89" height="49" /><text transform="matrix(1 0 0 1 184 53)" fill="#000000" stroke="none"><tspan dx="0 " x="0" y="9">:MenuWidget</tspan></text><path stroke-dasharray="7,4" d="M216 100L216 998" /><path fill="#00FFFF" stroke="none" d="M211 140C211 135 211 135 214.5 135h2C220 135 220 135 220 140V544C220 549 220 549 216.5 549h-2C211 549 211 549 211 544V140" /><path d="M211 140C211 135 211 135 214.5 135h2C220 135 220 135 220 140V544C220 549 220 549 216.5 549h-2C211 549 211 549 211 544V140" /><path fill="#DFDFDF" stroke="none" d="M477 58C477 53 477 53 482 53h79C566 53 566 53 566 58V97C566 102 566 102 561 102H482C477 102 477 102 477 97V58" /><path fill="#00FFFF" stroke="none" d="M474 55C474 50 474 50 479 50h79C563 50 563 50 563 55V94C563 99 563 99 558 99H479C474 99 474 99 474 94V55" /><path d="M474 55C474 50 474 50 479 50h79C563 50 563 50 563 55V94C563 99 563 99 558 99H479C474 99 474 99 474 94V55m0 0C474 50 474 50 479 50h79C563 50 563 50 563 55V94C563 99 563 99 558 99H479C474 99 474 99 474 94V55" /><rect x="474" y="50" width="89" height="49" /><text transform="matrix(1 0 0 1 485 53)" fill="#000000" stroke="none"><tspan dx="0 " x="0" y="9">:TreeManager</tspan></text><path stroke-dasharray="7,4" d="M519 100L519 998" /><path fill="#00FFFF" stroke="none" d="M514 209C514 204 514 204 517.5 204h2C523 204 523 204 523 209V474C523 479 523 479 519.5 479h-2C514 479 514 479 514 474V209" /><path d="M514 209C514 204 514 204 517.5 204h2C523 204 523 204 523 209V474C523 479 523 479 519.5 479h-2C514 479 514 479 514 474V209" /><path fill="#DFDFDF" stroke="none" d="M720 58C720 53 720 53 725 53h79C809 53 809 53 809 58V97C809 102 809 102 804 102H725C720 102 720 102 720 97V58" /><path fill="#00FFFF" stroke="none" d="M717 55C717 50 717 50 722 50h79C806 50 806 50 806 55V94C806 99 806 99 801 99H722C717 99 717 99 717 94V55" /><path d="M717 55C717 50 717 50 722 50h79C806 50 806 50 806 55V94C806 99 806 99 801 99H722C717 99 717 99 717 94V55m0 0C717 50 717 50 722 50h79C806 50 806 50 806 55V94C806 99 806 99 801 99H722C717 99 717 99 717 94V55" /><rect x="717" y="50" width="89" height="49" /><text transform="matrix(1 0 0 1 734 53)" fill="#000000" stroke="none"><tspan dx="0 " x="0" y="9">:ObjectDAO</tspan></text><path stroke-dasharray="7,4" d="M762 100L762 998" /><path fill="#00FFFF" stroke="none" d="M757 244C757 239 757 239 760.5 239h2C766 239 766 239 766 244v39C766 288 766 288 762.5 288h-2C757 288 757 288 757 283V244" /><path d="M757 244C757 239 757 239 760.5 239h2C766 239 766 239 766 244v39C766 288 766 288 762.5 288h-2C757 288 757 288 757 283V244" /><path fill="#00FFFF" stroke="none" d="M757 402C757 397 757 397 760.5 397h2C766 397 766 397 766 402v39C766 446 766 446 762.5 446h-2C757 446 757 446 757 441V402" /><path d="M757 402C757 397 757 397 760.5 397h2C766 397 766 397 766 402v39C766 446 766 446 762.5 446h-2C757 446 757 446 757 441V402" /><path fill="#00FFFF" stroke="none" d="M757 772C757 767 757 767 760.5 767h2C766 767 766 767 766 772v39C766 816 766 816 762.5 816h-2C757 816 757 816 757 811V772" /><path d="M757 772C757 767 757 767 760.5 767h2C766 767 766 767 766 772v39C766 816 766 816 762.5 816h-2C757 816 757 816 757 811V772" /><path fill="#DFDFDF" stroke="none" d="M318 58C318 53 318 53 323 53h79C407 53 407 53 407 58V97C407 102 407 102 402 102H323C318 102 318 102 318 97V58" /><path fill="#00FFFF" stroke="none" d="M315 55C315 50 315 50 320 50h79C404 50 404 50 404 55V94C404 99 404 99 399 99H320C315 99 315 99 315 94V55" /><path d="M315 55C315 50 315 50 320 50h79C404 50 404 50 404 55V94C404 99 404 99 399 99H320C315 99 315 99 315 94V55m0 0C315 50 315 50 320 50h79C404 50 404 50 404 55V94C404 99 404 99 399 99H320C315 99 315 99 315 94V55" /><rect x="315" y="50" width="89" height="49" /><text transform="matrix(1 0 0 1 331 53)" fill="#000000" stroke="none"><tspan dx="0 " x="0" y="9">:TreeWidget</tspan></text><path stroke-dasharray="7,4" d="M360 100L360 998" /><path fill="#00FFFF" stroke="none" d="M355 174C355 169 355 169 358.5 169h2C364 169 364 169 364 174V509C364 514 364 514 360.5 514h-2C355 514 355 514 355 509V174" /><path d="M355 174C355 169 355 169 358.5 169h2C364 169 364 169 364 174V509C364 514 364 514 360.5 514h-2C355 514 355 514 355 509V174" /><path fill="#00FFFF" stroke="none" d="M355 584C355 579 355 579 358.5 579h2C364 579 364 579 364 584V931C364 936 364 936 360.5 936h-2C355 936 355 936 355 931V584" /><path d="M355 584C355 579 355 579 358.5 579h2C364 579 364 579 364 584V931C364 936 364 936 360.5 936h-2C355 936 355 936 355 931V584" /><path fill="#DFDFDF" stroke="none" d="M600 58C600 53 600 53 605 53h79C689 53 689 53 689 58V97C689 102 689 102 684 102H605C600 102 600 102 600 97V58" /><path fill="#00FFFF" stroke="none" d="M597 55C597 50 597 50 602 50h79C686 50 686 50 686 55V94C686 99 686 99 681 99H602C597 99 597 99 597 94V55" /><path d="M597 55C597 50 597 50 602 50h79C686 50 686 50 686 55V94C686 99 686 99 681 99H602C597 99 597 99 597 94V55m0 0C597 50 597 50 602 50h79C686 50 686 50 686 55V94C686 99 686 99 681 99H602C597 99 597 99 597 94V55" /><rect x="597" y="50" width="89" height="49" /><text transform="matrix(1 0 0 1 614 53)" fill="#000000" stroke="none"><tspan dx="0 " x="0" y="9">:TabWidget</tspan></text><path stroke-dasharray="7,4" d="M642 100L642 998" /><path fill="#00FFFF" stroke="none" d="M637 667C637 662 637 662 640.5 662h2C646 662 646 662 646 667v39C646 711 646 711 642.5 711h-2C637 711 637 711 637 706V667" /><path d="M637 667C637 662 637 662 640.5 662h2C646 662 646 662 646 667v39C646 711 646 711 642.5 711h-2C637 711 637 711 637 706V667" /><path fill="#00FFFF" stroke="none" d="M637 737C637 732 637 732 640.5 732h2C646 732 646 732 646 737V878C646 883 646 883 642.5 883h-2C637 883 637 883 637 878V737" /><path d="M637 737C637 732 637 732 640.5 732h2C646 732 646 732 646 737V878C646 883 646 883 642.5 883h-2C637 883 637 883 637 878V737" /><path stroke="#C0C0C0" stroke-width="2" d="M238 603V887m0 0H839m0 0V603m0 0H238" /><path d="M238 603V887m0 0H839m0 0V603m0 0H238" /><path fill="#FCF2E3" d="M238 603v19h25l13 -14v-5H238" /><path d="M238 603v19h25l13 -14v-5H238 Z" /><text transform="matrix(1 0 0 1 243 606)" fill="#000000" font-weight="bold" stroke="none"><tspan dx="0 " x="0" y="9">opt </tspan></text><text transform="matrix(1 0 0 1 243 625)" fill="#000000" stroke="none"><tspan dx="0 " x="0" y="9">[If node is ObjectNode]</tspan></text><path stroke="#C0C0C0" stroke-width="2" d="M434 297V451m0 0H796m0 0V297m0 0H434" /><path d="M434 297V451m0 0H796m0 0V297m0 0H434" /><path fill="#FCF2E3" d="M434 297v19h31l13 -14v-5H434" /><path d="M434 297v19h31l13 -14v-5H434 Z" /><text transform="matrix(1 0 0 1 439 300)" fill="#000000" font-weight="bold" stroke="none"><tspan dx="0 " x="0" y="9">loop </tspan></text><text transform="matrix(1 0 0 1 439 319)" fill="#000000" stroke="none"><tspan dx="0 " x="0" y="9">[for root in roots]</tspan></text><path d="M60 135H211" /><path fill="#000000" d="M199 131v4v4l12 -4l-12 -4" /><path d="M221 169H355" /><path fill="#000000" d="M343 165v4v4l12 -4l-12 -4" /><path d="M365 204H514" /><path fill="#000000" d="M502 200v4v4l12 -4l-12 -4" /><path d="M524 239H757" /><path fill="#000000" d="M745 235v4v4l12 -4l-12 -4" /><path stroke-dasharray="7,4" d="M757 274L524 274" /><path d="M524 274l12 -4m-12 4l12 4" /><path d="M524 397H757" /><path fill="#000000" d="M745 393v4v4l12 -4l-12 -4" /><path stroke-dasharray="7,4" d="M757 432L524 432" /><path d="M524 432l12 -4m-12 4l12 4" /><path stroke-dasharray="7,4" d="M514 465L365 465" /><path d="M365 465l12 -4m-12 4l12 4" /><path stroke-dasharray="7,4" d="M355 500L221 500" /><path d="M221 500l12 -4m-12 4l12 4" /><path stroke-dasharray="7,4" d="M211 535L61 535" /><path d="M60 535l12 -4m-12 4l12 4" /><path d="M60 579H355" /><path fill="#000000" d="M343 575v4v4l12 -4l-12 -4" /><path d="M365 662H637" /><path fill="#000000" d="M625 658v4v4l12 -4l-12 -4" /><path stroke-dasharray="7,4" d="M637 697L366 697" /><path d="M365 697l12 -4m-12 4l12 4" /><path d="M365 732H637" /><path fill="#000000" d="M625 728v4v4l12 -4l-12 -4" /><path d="M647 767H757" /><path fill="#000000" d="M745 763v4v4l12 -4l-12 -4" /><path stroke-dasharray="7,4" d="M757 802L651 802" /><path d="M647 802l12 -4m-12 4l12 4" /><path stroke-dasharray="7,4" d="M637 869L366 869" /><path d="M365 869l12 -4m-12 4l12 4" /><path stroke-dasharray="7,4" d="M355 922L62 922" /><path d="M60 922l12 -4m-12 4l12 4" /><g transform="matrix(1 0 0 -1 401 188)"><rect fill="#FFFFFF" stroke="none" x="0" width="66" y="-11" height="11" /></g><text transform="matrix(1 0 0 1 401 188)" fill="#000000" stroke="none"><tspan dx="0 " x="0" y="9">getTreeRoots</tspan></text><g transform="matrix(1 0 0 -1 386 201)"><rect fill="#FFFFFF" stroke="none" x="0" width="100" y="-11" height="11" /></g><text transform="matrix(1 0 0 1 386 201)" fill="#000000" stroke="none"><tspan dx="0 " x="0" y="9">(objectType): Node[]</tspan></text><g transform="matrix(1 0 0 -1 115 121)"><rect fill="#FFFFFF" stroke="none" x="0" width="42" y="-11" height="11" /></g><text transform="matrix(1 0 0 1 115 121)" fill="#000000" stroke="none"><tspan dx="0 " x="0" y="9">onClick()</tspan></text><g transform="matrix(1 0 0 -1 653 754)"><rect fill="#FFFFFF" stroke="none" x="0" width="93" y="-11" height="11" /></g><text transform="matrix(1 0 0 1 653 754)" fill="#000000" stroke="none"><tspan dx="0 " x="0" y="9">getAllLanguages():</tspan></text><g transform="matrix(1 0 0 -1 670 767)"><rect fill="#FFFFFF" stroke="none" x="0" width="58" y="-11" height="11" /></g><text transform="matrix(1 0 0 1 670 767)" fill="#000000" stroke="none"><tspan dx="0 " x="0" y="9">(list): Object</tspan></text><g transform="matrix(1 0 0 -1 582 383)"><rect fill="#FFFFFF" stroke="none" x="0" width="122" y="-11" height="11" /></g><text transform="matrix(1 0 0 1 582 383)" fill="#000000" stroke="none"><tspan dx="0 " x="0" y="9">getObjects(root): Obejct[]</tspan></text><g transform="matrix(1 0 0 -1 158 565)"><rect fill="#FFFFFF" stroke="none" x="0" width="71" y="-11" height="11" /></g><text transform="matrix(1 0 0 1 158 565)" fill="#000000" stroke="none"><tspan dx="0 " x="0" y="9">onDoubleClick</tspan></text><g transform="matrix(1 0 0 -1 176 578)"><rect fill="#FFFFFF" stroke="none" x="0" width="31" y="-11" height="11" /></g><text transform="matrix(1 0 0 1 176 578)" fill="#000000" stroke="none"><tspan dx="0 " x="0" y="9">(node)</tspan></text><g transform="matrix(1 0 0 -1 589 225)"><rect fill="#FFFFFF" stroke="none" x="0" width="107" y="-11" height="11" /></g><text transform="matrix(1 0 0 1 589 225)" fill="#000000" stroke="none"><tspan dx="0 " x="0" y="9">getTreeRoots(): roots[]</tspan></text><g transform="matrix(1 0 0 -1 240 155)"><rect fill="#FFFFFF" stroke="none" x="0" width="100" y="-11" height="11" /></g><text transform="matrix(1 0 0 1 240 155)" fill="#000000" stroke="none"><tspan dx="0 " x="0" y="9">Redraw(ObjectType)</tspan></text><g transform="matrix(1 0 0 -1 481 718)"><rect fill="#FFFFFF" stroke="none" x="0" width="43" y="-11" height="11" /></g><text transform="matrix(1 0 0 1 481 718)" fill="#000000" stroke="none"><tspan dx="0 " x="0" y="9">Redraw()</tspan></text><g transform="matrix(1 0 0 -1 462 648)"><rect fill="#FFFFFF" stroke="none" x="0" width="82" y="-11" height="11" /></g><text transform="matrix(1 0 0 1 462 648)" fill="#000000" stroke="none"><tspan dx="0 " x="0" y="9">setObject(object)</tspan></text></g></g></g></g></svg>