<?xml version="1.0" encoding="utf-8"?><svg version="1.1" preserveAspectRatio="xMidYMid" xml:space="preserve" width="571.2723699999999pt" height="532.0399699999999pt" viewBox="17.86003 27.33603 571.2723699999999 532.0399699999999" xmlns="http://www.w3.org/2000/svg" xmlns:xlink="http://www.w3.org/1999/xlink"><g transform="matrix(1 0 0 -1 0 841)"><g stroke="#000000" fill="none" fill-rule="evenodd" stroke-width="1" stroke-linecap="round" stroke-linejoin="round" stroke-miterlimit="3" letter-spacing="normal" font-weight="normal" font-style="normal" baseline-shift="0"><g transform="matrix(0.75 0 0 0.75 0 841.650024)"><g transform="matrix(0.957779 0 0 -0.959628 0 0)" font-family="ArialUnicode" font-size="10"><path fill="#DFDFDF" stroke="none" d="M52 56.5C52 54.01 54.01 52 56.5 52C58.99 52 61 54.01 61 56.5C61 58.99 58.99 61 56.5 61C54.01 61 52 58.99 52 56.5" /><path fill="#F8E2C1" stroke="none" d="M50 54.5C50 52.01 52.01 50 54.5 50C56.99 50 59 52.01 59 54.5C59 56.99 56.99 59 54.5 59C52.01 59 50 56.99 50 54.5" /><path d="M50 54.5C50 52.01 52.01 50 54.5 50C56.99 50 59 52.01 59 54.5C59 56.99 56.99 59 54.5 59C52.01 59 50 56.99 50 54.5M55 60V70M50 65H60M50 80L55 70m5 10L55 70" /><text transform="matrix(1 0 0 1 36 85)" fill="#000000" stroke="none"><tspan dx="0 " x="0" y="9">Uživatel</tspan></text><path stroke-dasharray="7,4" d="M55 98L55 765" /><path fill="#F8E2C1" stroke="none" d="M50 140C50 135 50 135 53.5 135h2C59 135 59 135 59 140V747C59 752 59 752 55.5 752h-2C50 752 50 752 50 747V140" /><path d="M50 140C50 135 50 135 53.5 135h2C59 135 59 135 59 140V747C59 752 59 752 55.5 752h-2C50 752 50 752 50 747V140" /><path fill="#DFDFDF" stroke="none" d="M174 58C174 53 174 53 179 53h79C263 53 263 53 263 58V97C263 102 263 102 258 102H179C174 102 174 102 174 97V58" /><path fill="#00FFFF" stroke="none" d="M171 55C171 50 171 50 176 50h79C260 50 260 50 260 55V94C260 99 260 99 255 99H176C171 99 171 99 171 94V55" /><path d="M171 55C171 50 171 50 176 50h79C260 50 260 50 260 55V94C260 99 260 99 255 99H176C171 99 171 99 171 94V55m0 0C171 50 171 50 176 50h79C260 50 260 50 260 55V94C260 99 260 99 255 99H176C171 99 171 99 171 94V55" /><rect x="171" y="50" width="89" height="49" /><text transform="matrix(1 0 0 1 184 53)" fill="#000000" stroke="none"><tspan dx="0 " x="0" y="9">:MenuWidget</tspan></text><path stroke-dasharray="7,4" d="M216 100L216 767" /><path fill="#00FFFF" stroke="none" d="M211 140C211 135 211 135 214.5 135h2C220 135 220 135 220 140V388C220 393 220 393 216.5 393h-2C211 393 211 393 211 388V140" /><path d="M211 140C211 135 211 135 214.5 135h2C220 135 220 135 220 140V388C220 393 220 393 216.5 393h-2C211 393 211 393 211 388V140" /><path fill="#DFDFDF" stroke="none" d="M477 58C477 53 477 53 482 53h79C566 53 566 53 566 58V97C566 102 566 102 561 102H482C477 102 477 102 477 97V58" /><path fill="#00FFFF" stroke="none" d="M474 55C474 50 474 50 479 50h79C563 50 563 50 563 55V94C563 99 563 99 558 99H479C474 99 474 99 474 94V55" /><path d="M474 55C474 50 474 50 479 50h79C563 50 563 50 563 55V94C563 99 563 99 558 99H479C474 99 474 99 474 94V55m0 0C474 50 474 50 479 50h79C563 50 563 50 563 55V94C563 99 563 99 558 99H479C474 99 474 99 474 94V55" /><rect x="474" y="50" width="89" height="49" /><text transform="matrix(1 0 0 1 485 53)" fill="#000000" stroke="none"><tspan dx="0 " x="0" y="9">:TreeManager</tspan></text><path stroke-dasharray="7,4" d="M519 100L519 767" /><path fill="#00FFFF" stroke="none" d="M514 209C514 204 514 204 517.5 204h2C523 204 523 204 523 209V318C523 323 523 323 519.5 323h-2C514 323 514 323 514 318V209" /><path d="M514 209C514 204 514 204 517.5 204h2C523 204 523 204 523 209V318C523 323 523 323 519.5 323h-2C514 323 514 323 514 318V209" /><path fill="#DFDFDF" stroke="none" d="M720 58C720 53 720 53 725 53h79C809 53 809 53 809 58V97C809 102 809 102 804 102H725C720 102 720 102 720 97V58" /><path fill="#00FFFF" stroke="none" d="M717 55C717 50 717 50 722 50h79C806 50 806 50 806 55V94C806 99 806 99 801 99H722C717 99 717 99 717 94V55" /><path d="M717 55C717 50 717 50 722 50h79C806 50 806 50 806 55V94C806 99 806 99 801 99H722C717 99 717 99 717 94V55m0 0C717 50 717 50 722 50h79C806 50 806 50 806 55V94C806 99 806 99 801 99H722C717 99 717 99 717 94V55" /><rect x="717" y="50" width="89" height="49" /><text transform="matrix(1 0 0 1 734 53)" fill="#000000" stroke="none"><tspan dx="0 " x="0" y="9">:ObjectDAO</tspan></text><path stroke-dasharray="7,4" d="M762 100L762 767" /><path fill="#00FFFF" stroke="none" d="M757 244C757 239 757 239 760.5 239h2C766 239 766 239 766 244v39C766 288 766 288 762.5 288h-2C757 288 757 288 757 283V244" /><path d="M757 244C757 239 757 239 760.5 239h2C766 239 766 239 766 244v39C766 288 766 288 762.5 288h-2C757 288 757 288 757 283V244" /><path fill="#00FFFF" stroke="none" d="M757 583C757 578 757 578 760.5 578h2C766 578 766 578 766 583v39C766 627 766 627 762.5 627h-2C757 627 757 627 757 622V583" /><path d="M757 583C757 578 757 578 760.5 578h2C766 578 766 578 766 583v39C766 627 766 627 762.5 627h-2C757 627 757 627 757 622V583" /><path fill="#DFDFDF" stroke="none" d="M318 58C318 53 318 53 323 53h79C407 53 407 53 407 58V97C407 102 407 102 402 102H323C318 102 318 102 318 97V58" /><path fill="#00FFFF" stroke="none" d="M315 55C315 50 315 50 320 50h79C404 50 404 50 404 55V94C404 99 404 99 399 99H320C315 99 315 99 315 94V55" /><path d="M315 55C315 50 315 50 320 50h79C404 50 404 50 404 55V94C404 99 404 99 399 99H320C315 99 315 99 315 94V55m0 0C315 50 315 50 320 50h79C404 50 404 50 404 55V94C404 99 404 99 399 99H320C315 99 315 99 315 94V55" /><rect x="315" y="50" width="89" height="49" /><text transform="matrix(1 0 0 1 331 53)" fill="#000000" stroke="none"><tspan dx="0 " x="0" y="9">:TreeWidget</tspan></text><path stroke-dasharray="7,4" d="M360 100L360 767" /><path fill="#00FFFF" stroke="none" d="M355 174C355 169 355 169 358.5 169h2C364 169 364 169 364 174V353C364 358 364 358 360.5 358h-2C355 358 355 358 355 353V174" /><path d="M355 174C355 169 355 169 358.5 169h2C364 169 364 169 364 174V353C364 358 364 358 360.5 358h-2C355 358 355 358 355 353V174" /><path fill="#00FFFF" stroke="none" d="M355 428C355 423 355 423 358.5 423h2C364 423 364 423 364 428V747C364 752 364 752 360.5 752h-2C355 752 355 752 355 747V428" /><path d="M355 428C355 423 355 423 358.5 423h2C364 423 364 423 364 428V747C364 752 364 752 360.5 752h-2C355 752 355 752 355 747V428" /><path fill="#DFDFDF" stroke="none" d="M600 58C600 53 600 53 605 53h79C689 53 689 53 689 58V97C689 102 689 102 684 102H605C600 102 600 102 600 97V58" /><path fill="#00FFFF" stroke="none" d="M597 55C597 50 597 50 602 50h79C686 50 686 50 686 55V94C686 99 686 99 681 99H602C597 99 597 99 597 94V55" /><path d="M597 55C597 50 597 50 602 50h79C686 50 686 50 686 55V94C686 99 686 99 681 99H602C597 99 597 99 597 94V55m0 0C597 50 597 50 602 50h79C686 50 686 50 686 55V94C686 99 686 99 681 99H602C597 99 597 99 597 94V55" /><rect x="597" y="50" width="89" height="49" /><text transform="matrix(1 0 0 1 614 53)" fill="#000000" stroke="none"><tspan dx="0 " x="0" y="9">:TabWidget</tspan></text><path stroke-dasharray="7,4" d="M642 100L642 767" /><path fill="#00FFFF" stroke="none" d="M637 478C637 473 637 473 640.5 473h2C646 473 646 473 646 478v39C646 522 646 522 642.5 522h-2C637 522 637 522 637 517V478" /><path d="M637 478C637 473 637 473 640.5 473h2C646 473 646 473 646 478v39C646 522 646 522 642.5 522h-2C637 522 637 522 637 517V478" /><path fill="#00FFFF" stroke="none" d="M637 548C637 543 637 543 640.5 543h2C646 543 646 543 646 548V657C646 662 646 662 642.5 662h-2C637 662 637 662 637 657V548" /><path d="M637 548C637 543 637 543 640.5 543h2C646 543 646 543 646 548V657C646 662 646 662 642.5 662h-2C637 662 637 662 637 657V548" /><path stroke="#C0C0C0" stroke-width="2" d="M259 458V683m0 0H789m0 0V458m0 0H259" /><path d="M259 458V683m0 0H789m0 0V458m0 0H259" /><path fill="#FCF2E3" d="M259 458v19h22l13 -14v-5H259" /><path d="M259 458v19h22l13 -14v-5H259 Z" /><text transform="matrix(1 0 0 1 264 461)" fill="#000000" font-weight="bold" stroke="none"><tspan dx="0 " x="0" y="9">alt </tspan></text><text transform="matrix(1 0 0 1 264 480)" fill="#000000" stroke="none"><tspan dx="0 " x="0" y="9">[node is not folder]</tspan></text><path stroke="#C0C0C0" stroke-width="2" d="M491 151V330m0 0H791m0 0V151m0 0H491" /><path d="M491 151V330m0 0H791m0 0V151m0 0H491" /><path fill="#FCF2E3" d="M491 151v19h31l13 -14v-5H491" /><path d="M491 151v19h31l13 -14v-5H491 Z" /><text transform="matrix(1 0 0 1 496 154)" fill="#000000" font-weight="bold" stroke="none"><tspan dx="0 " x="0" y="9">loop </tspan></text><text transform="matrix(1 0 0 1 496 173)" fill="#000000" stroke="none"><tspan dx="0 " x="0" y="9">[for root in roots]</tspan></text><path d="M60 135H211" /><path fill="#000000" d="M199 131v4v4l12 -4l-12 -4" /><path d="M221 169H355" /><path fill="#000000" d="M343 165v4v4l12 -4l-12 -4" /><path d="M365 204H514" /><path fill="#000000" d="M502 200v4v4l12 -4l-12 -4" /><path d="M524 239H757" /><path fill="#000000" d="M745 235v4v4l12 -4l-12 -4" /><path stroke-dasharray="7,4" d="M757 274L524 274" /><path d="M524 274l12 -4m-12 4l12 4" /><path stroke-dasharray="7,4" d="M514 309L365 309" /><path d="M365 309l12 -4m-12 4l12 4" /><path stroke-dasharray="7,4" d="M355 344L221 344" /><path d="M221 344l12 -4m-12 4l12 4" /><path stroke-dasharray="7,4" d="M211 379L61 379" /><path d="M60 379l12 -4m-12 4l12 4" /><path d="M60 423H355" /><path fill="#000000" d="M343 419v4v4l12 -4l-12 -4" /><path d="M365 473H637" /><path fill="#000000" d="M625 469v4v4l12 -4l-12 -4" /><path stroke-dasharray="7,4" d="M637 508L366 508" /><path d="M365 508l12 -4m-12 4l12 4" /><path d="M365 543H637" /><path fill="#000000" d="M625 539v4v4l12 -4l-12 -4" /><path d="M647 578H757" /><path fill="#000000" d="M745 574v4v4l12 -4l-12 -4" /><path stroke-dasharray="7,4" d="M757 613L651 613" /><path d="M647 613l12 -4m-12 4l12 4" /><path stroke-dasharray="7,4" d="M637 648L366 648" /><path d="M365 648l12 -4m-12 4l12 4" /><path stroke-dasharray="7,4" d="M355 738L62 738" /><path d="M60 738l12 -4m-12 4l12 4" /><g transform="matrix(1 0 0 -1 401 188)"><rect fill="#FFFFFF" stroke="none" x="0" width="66" y="-11" height="11" /></g><text transform="matrix(1 0 0 1 401 188)" fill="#000000" stroke="none"><tspan dx="0 " x="0" y="9">getTreeRoots</tspan></text><g transform="matrix(1 0 0 -1 386 201)"><rect fill="#FFFFFF" stroke="none" x="0" width="100" y="-11" height="11" /></g><text transform="matrix(1 0 0 1 386 201)" fill="#000000" stroke="none"><tspan dx="0 " x="0" y="9">(objectType): Node[]</tspan></text><g transform="matrix(1 0 0 -1 158 409)"><rect fill="#FFFFFF" stroke="none" x="0" width="71" y="-11" height="11" /></g><text transform="matrix(1 0 0 1 158 409)" fill="#000000" stroke="none"><tspan dx="0 " x="0" y="9">onDoubleClick</tspan></text><g transform="matrix(1 0 0 -1 176 422)"><rect fill="#FFFFFF" stroke="none" x="0" width="31" y="-11" height="11" /></g><text transform="matrix(1 0 0 1 176 422)" fill="#000000" stroke="none"><tspan dx="0 " x="0" y="9">(node)</tspan></text><g transform="matrix(1 0 0 -1 564 225)"><rect fill="#FFFFFF" stroke="none" x="0" width="117" y="-11" height="11" /></g><text transform="matrix(1 0 0 1 564 225)" fill="#000000" stroke="none"><tspan dx="0 " x="0" y="9">getObjects(objectType):</tspan></text><g transform="matrix(1 0 0 -1 602 238)"><rect fill="#FFFFFF" stroke="none" x="0" width="39" y="-11" height="11" /></g><text transform="matrix(1 0 0 1 602 238)" fill="#000000" stroke="none"><tspan dx="0 " x="0" y="9">Obejct[]</tspan></text><g transform="matrix(1 0 0 -1 115 121)"><rect fill="#FFFFFF" stroke="none" x="0" width="42" y="-11" height="11" /></g><text transform="matrix(1 0 0 1 115 121)" fill="#000000" stroke="none"><tspan dx="0 " x="0" y="9">onClick()</tspan></text><g transform="matrix(1 0 0 -1 653 565)"><rect fill="#FFFFFF" stroke="none" x="0" width="93" y="-11" height="11" /></g><text transform="matrix(1 0 0 1 653 565)" fill="#000000" stroke="none"><tspan dx="0 " x="0" y="9">getAllLanguages():</tspan></text><g transform="matrix(1 0 0 -1 670 578)"><rect fill="#FFFFFF" stroke="none" x="0" width="58" y="-11" height="11" /></g><text transform="matrix(1 0 0 1 670 578)" fill="#000000" stroke="none"><tspan dx="0 " x="0" y="9">(list): Object</tspan></text><g transform="matrix(1 0 0 -1 481 529)"><rect fill="#FFFFFF" stroke="none" x="0" width="43" y="-11" height="11" /></g><text transform="matrix(1 0 0 1 481 529)" fill="#000000" stroke="none"><tspan dx="0 " x="0" y="9">Redraw()</tspan></text><g transform="matrix(1 0 0 -1 462 459)"><rect fill="#FFFFFF" stroke="none" x="0" width="82" y="-11" height="11" /></g><text transform="matrix(1 0 0 1 462 459)" fill="#000000" stroke="none"><tspan dx="0 " x="0" y="9">setObject(object)</tspan></text><g transform="matrix(1 0 0 -1 240 155)"><rect fill="#FFFFFF" stroke="none" x="0" width="100" y="-11" height="11" /></g><text transform="matrix(1 0 0 1 240 155)" fill="#000000" stroke="none"><tspan dx="0 " x="0" y="9">Redraw(ObjectType)</tspan></text></g></g></g></g></svg>