<?xml version="1.0" encoding="utf-8"?><svg version="1.1" preserveAspectRatio="xMidYMid" xml:space="preserve" width="593.46017pt" height="698.4142099999999pt" viewBox="17.88863 27.34229 593.46017 698.4142099999999" xmlns="http://www.w3.org/2000/svg" xmlns:xlink="http://www.w3.org/1999/xlink"><g transform="matrix(1 0 0 -1 0 841)"><g stroke="#000000" fill="none" fill-rule="evenodd" stroke-width="1" stroke-linecap="round" stroke-linejoin="round" stroke-miterlimit="3" letter-spacing="normal" font-weight="normal" font-style="normal" baseline-shift="0"><g transform="matrix(0.75 0 0 0.75 0 841.650024)"><g transform="matrix(0.958838 0 0 -0.959795 0 0)" font-family="ArialUnicode" font-size="10"><path fill="#DFDFDF" stroke="none" d="M52 56.5C52 54.01 54.01 52 56.5 52C58.99 52 61 54.01 61 56.5C61 58.99 58.99 61 56.5 61C54.01 61 52 58.99 52 56.5" /><path fill="#F8E2C1" stroke="none" d="M50 54.5C50 52.01 52.01 50 54.5 50C56.99 50 59 52.01 59 54.5C59 56.99 56.99 59 54.5 59C52.01 59 50 56.99 50 54.5" /><path d="M50 54.5C50 52.01 52.01 50 54.5 50C56.99 50 59 52.01 59 54.5C59 56.99 56.99 59 54.5 59C52.01 59 50 56.99 50 54.5M55 60V70M50 65H60M50 80L55 70m5 10L55 70" /><text transform="matrix(1 0 0 1 36 85)" fill="#000000" stroke="none"><tspan dx="0 " x="0" y="9">Uživatel</tspan></text><path stroke-dasharray="7,4" d="M55 98L55 996" /><path fill="#F8E2C1" stroke="none" d="M50 140C50 135 50 135 53.5 135h2C59 135 59 135 59 140V933C59 938 59 938 55.5 938h-2C50 938 50 938 50 933V140" /><path d="M50 140C50 135 50 135 53.5 135h2C59 135 59 135 59 140V933C59 938 59 938 55.5 938h-2C50 938 50 938 50 933V140" /><path fill="#DFDFDF" stroke="none" d="M174 58C174 53 174 53 179 53h79C263 53 263 53 263 58V97C263 102 263 102 258 102H179C174 102 174 102 174 97V58" /><path fill="#00FFFF" stroke="none" d="M171 55C171 50 171 50 176 50h79C260 50 260 50 260 55V94C260 99 260 99 255 99H176C171 99 171 99 171 94V55" /><path d="M171 55C171 50 171 50 176 50h79C260 50 260 50 260 55V94C260 99 260 99 255 99H176C171 99 171 99 171 94V55m0 0C171 50 171 50 176 50h79C260 50 260 50 260 55V94C260 99 260 99 255 99H176C171 99 171 99 171 94V55" /><rect x="171" y="50" width="89" height="49" /><text transform="matrix(1 0 0 1 184 53)" fill="#000000" stroke="none"><tspan dx="0 " x="0" y="9">:MenuWidget</tspan></text><path stroke-dasharray="7,4" d="M216 100L216 998" /><path fill="#00FFFF" stroke="none" d="M211 140C211 135 211 135 214.5 135h2C220 135 220 135 220 140V546C220 551 220 551 216.5 551h-2C211 551 211 551 211 546V140" /><path d="M211 140C211 135 211 135 214.5 135h2C220 135 220 135 220 140V546C220 551 220 551 216.5 551h-2C211 551 211 551 211 546V140" /><path fill="#DFDFDF" stroke="none" d="M477 58C477 53 477 53 482 53h79C566 53 566 53 566 58V97C566 102 566 102 561 102H482C477 102 477 102 477 97V58" /><path fill="#00FFFF" stroke="none" d="M474 55C474 50 474 50 479 50h79C563 50 563 50 563 55V94C563 99 563 99 558 99H479C474 99 474 99 474 94V55" /><path d="M474 55C474 50 474 50 479 50h79C563 50 563 50 563 55V94C563 99 563 99 558 99H479C474 99 474 99 474 94V55m0 0C474 50 474 50 479 50h79C563 50 563 50 563 55V94C563 99 563 99 558 99H479C474 99 474 99 474 94V55" /><rect x="474" y="50" width="89" height="49" /><text transform="matrix(1 0 0 1 485 53)" fill="#000000" stroke="none"><tspan dx="0 " x="0" y="9">:TreeManager</tspan></text><path stroke-dasharray="7,4" d="M519 100L519 998" /><path fill="#00FFFF" stroke="none" d="M514 209C514 204 514 204 517.5 204h2C523 204 523 204 523 209V476C523 481 523 481 519.5 481h-2C514 481 514 481 514 476V209" /><path d="M514 209C514 204 514 204 517.5 204h2C523 204 523 204 523 209V476C523 481 523 481 519.5 481h-2C514 481 514 481 514 476V209" /><path fill="#DFDFDF" stroke="none" d="M720 58C720 53 720 53 725 53h79C809 53 809 53 809 58V97C809 102 809 102 804 102H725C720 102 720 102 720 97V58" /><path fill="#00FFFF" stroke="none" d="M717 55C717 50 717 50 722 50h79C806 50 806 50 806 55V94C806 99 806 99 801 99H722C717 99 717 99 717 94V55" /><path d="M717 55C717 50 717 50 722 50h79C806 50 806 50 806 55V94C806 99 806 99 801 99H722C717 99 717 99 717 94V55m0 0C717 50 717 50 722 50h79C806 50 806 50 806 55V94C806 99 806 99 801 99H722C717 99 717 99 717 94V55" /><rect x="717" y="50" width="89" height="49" /><text transform="matrix(1 0 0 1 734 53)" fill="#000000" stroke="none"><tspan dx="0 " x="0" y="9">:ObjectDAO</tspan></text><path stroke-dasharray="7,4" d="M762 100L762 998" /><path fill="#00FFFF" stroke="none" d="M757 244C757 239 757 239 760.5 239h2C766 239 766 239 766 244v39C766 288 766 288 762.5 288h-2C757 288 757 288 757 283V244" /><path d="M757 244C757 239 757 239 760.5 239h2C766 239 766 239 766 244v39C766 288 766 288 762.5 288h-2C757 288 757 288 757 283V244" /><path fill="#00FFFF" stroke="none" d="M757 402C757 397 757 397 760.5 397h2C766 397 766 397 766 402v39C766 446 766 446 762.5 446h-2C757 446 757 446 757 441V402" /><path d="M757 402C757 397 757 397 760.5 397h2C766 397 766 397 766 402v39C766 446 766 446 762.5 446h-2C757 446 757 446 757 441V402" /><path fill="#00FFFF" stroke="none" d="M757 774C757 769 757 769 760.5 769h2C766 769 766 769 766 774v39C766 818 766 818 762.5 818h-2C757 818 757 818 757 813V774" /><path d="M757 774C757 769 757 769 760.5 769h2C766 769 766 769 766 774v39C766 818 766 818 762.5 818h-2C757 818 757 818 757 813V774" /><path fill="#DFDFDF" stroke="none" d="M318 58C318 53 318 53 323 53h79C407 53 407 53 407 58V97C407 102 407 102 402 102H323C318 102 318 102 318 97V58" /><path fill="#00FFFF" stroke="none" d="M315 55C315 50 315 50 320 50h79C404 50 404 50 404 55V94C404 99 404 99 399 99H320C315 99 315 99 315 94V55" /><path d="M315 55C315 50 315 50 320 50h79C404 50 404 50 404 55V94C404 99 404 99 399 99H320C315 99 315 99 315 94V55m0 0C315 50 315 50 320 50h79C404 50 404 50 404 55V94C404 99 404 99 399 99H320C315 99 315 99 315 94V55" /><rect x="315" y="50" width="89" height="49" /><text transform="matrix(1 0 0 1 331 53)" fill="#000000" stroke="none"><tspan dx="0 " x="0" y="9">:TreeWidget</tspan></text><path stroke-dasharray="7,4" d="M360 100L360 998" /><path fill="#00FFFF" stroke="none" d="M355 174C355 169 355 169 358.5 169h2C364 169 364 169 364 174V511C364 516 364 516 360.5 516h-2C355 516 355 516 355 511V174" /><path d="M355 174C355 169 355 169 358.5 169h2C364 169 364 169 364 174V511C364 516 364 516 360.5 516h-2C355 516 355 516 355 511V174" /><path fill="#00FFFF" stroke="none" d="M355 586C355 581 355 581 358.5 581h2C364 581 364 581 364 586V933C364 938 364 938 360.5 938h-2C355 938 355 938 355 933V586" /><path d="M355 586C355 581 355 581 358.5 581h2C364 581 364 581 364 586V933C364 938 364 938 360.5 938h-2C355 938 355 938 355 933V586" /><path fill="#DFDFDF" stroke="none" d="M600 58C600 53 600 53 605 53h79C689 53 689 53 689 58V97C689 102 689 102 684 102H605C600 102 600 102 600 97V58" /><path fill="#00FFFF" stroke="none" d="M597 55C597 50 597 50 602 50h79C686 50 686 50 686 55V94C686 99 686 99 681 99H602C597 99 597 99 597 94V55" /><path d="M597 55C597 50 597 50 602 50h79C686 50 686 50 686 55V94C686 99 686 99 681 99H602C597 99 597 99 597 94V55m0 0C597 50 597 50 602 50h79C686 50 686 50 686 55V94C686 99 686 99 681 99H602C597 99 597 99 597 94V55" /><rect x="597" y="50" width="89" height="49" /><text transform="matrix(1 0 0 1 614 53)" fill="#000000" stroke="none"><tspan dx="0 " x="0" y="9">:TabWidget</tspan></text><path stroke-dasharray="7,4" d="M642 100L642 998" /><path fill="#00FFFF" stroke="none" d="M637 669C637 664 637 664 640.5 664h2C646 664 646 664 646 669v39C646 713 646 713 642.5 713h-2C637 713 637 713 637 708V669" /><path d="M637 669C637 664 637 664 640.5 664h2C646 664 646 664 646 669v39C646 713 646 713 642.5 713h-2C637 713 637 713 637 708V669" /><path fill="#00FFFF" stroke="none" d="M637 739C637 734 637 734 640.5 734h2C646 734 646 734 646 739V880C646 885 646 885 642.5 885h-2C637 885 637 885 637 880V739" /><path d="M637 739C637 734 637 734 640.5 734h2C646 734 646 734 646 739V880C646 885 646 885 642.5 885h-2C637 885 637 885 637 880V739" /><path stroke="#C0C0C0" stroke-width="2" d="M491 309V488m0 0H791m0 0V309m0 0H491" /><path d="M491 309V488m0 0H791m0 0V309m0 0H491" /><path fill="#FCF2E3" d="M491 309v19h31l13 -14v-5H491" /><path d="M491 309v19h31l13 -14v-5H491 Z" /><text transform="matrix(1 0 0 1 496 312)" fill="#000000" font-weight="bold" stroke="none"><tspan dx="0 " x="0" y="9">loop </tspan></text><text transform="matrix(1 0 0 1 496 331)" fill="#000000" stroke="none"><tspan dx="0 " x="0" y="9">[for root in roots]</tspan></text><path stroke="#C0C0C0" stroke-width="2" d="M238 605V889m0 0H839m0 0V605m0 0H238" /><path d="M238 605V889m0 0H839m0 0V605m0 0H238" /><path fill="#FCF2E3" d="M238 605v19h22l13 -14v-5H238" /><path d="M238 605v19h22l13 -14v-5H238 Z" /><text transform="matrix(1 0 0 1 243 608)" fill="#000000" font-weight="bold" stroke="none"><tspan dx="0 " x="0" y="9">alt </tspan></text><text transform="matrix(1 0 0 1 243 627)" fill="#000000" stroke="none"><tspan dx="0 " x="0" y="9">[If node is ObjectNode]</tspan></text><path d="M60 135H211" /><path fill="#000000" d="M199 131v4v4l12 -4l-12 -4" /><path d="M221 169H355" /><path fill="#000000" d="M343 165v4v4l12 -4l-12 -4" /><path d="M365 204H514" /><path fill="#000000" d="M502 200v4v4l12 -4l-12 -4" /><path d="M524 239H757" /><path fill="#000000" d="M745 235v4v4l12 -4l-12 -4" /><path stroke-dasharray="7,4" d="M757 274L524 274" /><path d="M524 274l12 -4m-12 4l12 4" /><path d="M524 397H757" /><path fill="#000000" d="M745 393v4v4l12 -4l-12 -4" /><path stroke-dasharray="7,4" d="M757 432L524 432" /><path d="M524 432l12 -4m-12 4l12 4" /><path stroke-dasharray="7,4" d="M514 467L365 467" /><path d="M365 467l12 -4m-12 4l12 4" /><path stroke-dasharray="7,4" d="M355 502L221 502" /><path d="M221 502l12 -4m-12 4l12 4" /><path stroke-dasharray="7,4" d="M211 537L61 537" /><path d="M60 537l12 -4m-12 4l12 4" /><path d="M60 581H355" /><path fill="#000000" d="M343 577v4v4l12 -4l-12 -4" /><path d="M365 664H637" /><path fill="#000000" d="M625 660v4v4l12 -4l-12 -4" /><path stroke-dasharray="7,4" d="M637 699L366 699" /><path d="M365 699l12 -4m-12 4l12 4" /><path d="M365 734H637" /><path fill="#000000" d="M625 730v4v4l12 -4l-12 -4" /><path d="M647 769H757" /><path fill="#000000" d="M745 765v4v4l12 -4l-12 -4" /><path stroke-dasharray="7,4" d="M757 804L651 804" /><path d="M647 804l12 -4m-12 4l12 4" /><path stroke-dasharray="7,4" d="M637 871L366 871" /><path d="M365 871l12 -4m-12 4l12 4" /><path stroke-dasharray="7,4" d="M355 924L62 924" /><path d="M60 924l12 -4m-12 4l12 4" /><g transform="matrix(1 0 0 -1 653 756)"><rect fill="#FFFFFF" stroke="none" x="0" width="93" y="-11" height="11" /></g><text transform="matrix(1 0 0 1 653 756)" fill="#000000" stroke="none"><tspan dx="0 " x="0" y="9">getAllLanguages():</tspan></text><g transform="matrix(1 0 0 -1 670 769)"><rect fill="#FFFFFF" stroke="none" x="0" width="58" y="-11" height="11" /></g><text transform="matrix(1 0 0 1 670 769)" fill="#000000" stroke="none"><tspan dx="0 " x="0" y="9">(list): Object</tspan></text><g transform="matrix(1 0 0 -1 582 383)"><rect fill="#FFFFFF" stroke="none" x="0" width="122" y="-11" height="11" /></g><text transform="matrix(1 0 0 1 582 383)" fill="#000000" stroke="none"><tspan dx="0 " x="0" y="9">getObjects(root): Obejct[]</tspan></text><g transform="matrix(1 0 0 -1 401 188)"><rect fill="#FFFFFF" stroke="none" x="0" width="66" y="-11" height="11" /></g><text transform="matrix(1 0 0 1 401 188)" fill="#000000" stroke="none"><tspan dx="0 " x="0" y="9">getTreeRoots</tspan></text><g transform="matrix(1 0 0 -1 386 201)"><rect fill="#FFFFFF" stroke="none" x="0" width="100" y="-11" height="11" /></g><text transform="matrix(1 0 0 1 386 201)" fill="#000000" stroke="none"><tspan dx="0 " x="0" y="9">(objectType): Node[]</tspan></text><g transform="matrix(1 0 0 -1 115 121)"><rect fill="#FFFFFF" stroke="none" x="0" width="42" y="-11" height="11" /></g><text transform="matrix(1 0 0 1 115 121)" fill="#000000" stroke="none"><tspan dx="0 " x="0" y="9">onClick()</tspan></text><g transform="matrix(1 0 0 -1 158 567)"><rect fill="#FFFFFF" stroke="none" x="0" width="71" y="-11" height="11" /></g><text transform="matrix(1 0 0 1 158 567)" fill="#000000" stroke="none"><tspan dx="0 " x="0" y="9">onDoubleClick</tspan></text><g transform="matrix(1 0 0 -1 176 580)"><rect fill="#FFFFFF" stroke="none" x="0" width="31" y="-11" height="11" /></g><text transform="matrix(1 0 0 1 176 580)" fill="#000000" stroke="none"><tspan dx="0 " x="0" y="9">(node)</tspan></text><g transform="matrix(1 0 0 -1 481 720)"><rect fill="#FFFFFF" stroke="none" x="0" width="43" y="-11" height="11" /></g><text transform="matrix(1 0 0 1 481 720)" fill="#000000" stroke="none"><tspan dx="0 " x="0" y="9">Redraw()</tspan></text><g transform="matrix(1 0 0 -1 589 225)"><rect fill="#FFFFFF" stroke="none" x="0" width="107" y="-11" height="11" /></g><text transform="matrix(1 0 0 1 589 225)" fill="#000000" stroke="none"><tspan dx="0 " x="0" y="9">getTreeRoots(): roots[]</tspan></text><g transform="matrix(1 0 0 -1 240 155)"><rect fill="#FFFFFF" stroke="none" x="0" width="100" y="-11" height="11" /></g><text transform="matrix(1 0 0 1 240 155)" fill="#000000" stroke="none"><tspan dx="0 " x="0" y="9">Redraw(ObjectType)</tspan></text><g transform="matrix(1 0 0 -1 462 650)"><rect fill="#FFFFFF" stroke="none" x="0" width="82" y="-11" height="11" /></g><text transform="matrix(1 0 0 1 462 650)" fill="#000000" stroke="none"><tspan dx="0 " x="0" y="9">setObject(object)</tspan></text></g></g></g></g></svg>